<?xml version="1.0" encoding="utf-8"?>
<!-- Generator: Adobe Illustrator 16.0.0, SVG Export Plug-In . SVG Version: 6.00 Build 0)  -->
<!DOCTYPE svg PUBLIC "-//W3C//DTD SVG 1.0//EN" "http://www.w3.org/TR/2001/REC-SVG-20010904/DTD/svg10.dtd">
<svg version="1.0" id="图层_1" xmlns="http://www.w3.org/2000/svg" xmlns:xlink="http://www.w3.org/1999/xlink" x="0px" y="0px"
	 width="20px" height="20px" viewBox="0 0 20 20" enable-background="new 0 0 20 20" xml:space="preserve">
<path fill-rule="evenodd" clip-rule="evenodd" fill="#1C374B" d="M10,0.105c-5.465,0-9.895,4.43-9.895,9.895
	c0,5.464,4.43,9.895,9.895,9.895s9.895-4.431,9.895-9.895C19.895,4.535,15.465,0.105,10,0.105z M10,18.01
	c-4.425,0-8.011-3.586-8.011-8.01c0-4.425,3.586-8.011,8.011-8.011S18.011,5.575,18.011,10C18.011,14.424,14.425,18.01,10,18.01z"/>
<polygon fill-rule="evenodd" clip-rule="evenodd" fill="#1C374B" points="10,0.105 10,10 19.895,10 18.064,5.052 16.043,2.919 "/>
</svg>
