<?xml version="1.0" encoding="utf-8"?>
<!-- Generator: Adobe Illustrator 16.0.0, SVG Export Plug-In . SVG Version: 6.00 Build 0)  -->
<!DOCTYPE svg PUBLIC "-//W3C//DTD SVG 1.1//EN" "http://www.w3.org/Graphics/SVG/1.1/DTD/svg11.dtd">
<svg version="1.1" id="图层_1" xmlns="http://www.w3.org/2000/svg" xmlns:xlink="http://www.w3.org/1999/xlink" x="0px" y="0px"
	 width="20px" height="20px" viewBox="0 0 20 20" enable-background="new 0 0 20 20" xml:space="preserve">
<path fill-rule="evenodd" clip-rule="evenodd" d="M10,4.133c3.24,0,5.867,2.627,5.867,5.867c0,1.139-0.324,2.201-0.885,3.101
	c-0.416-0.274-0.912-0.434-1.448-0.434c-1.473,0-2.667,1.194-2.667,2.667c0,0.159,0.014,0.313,0.041,0.463
	c-0.296,0.046-0.599,0.07-0.908,0.07c-0.546,0-1.075-0.075-1.576-0.215c0.042-0.188,0.065-0.383,0.065-0.584
	c0-1.473-1.194-2.667-2.667-2.667c-0.381,0-0.742,0.081-1.068,0.227c-0.396-0.791-0.62-1.683-0.62-2.628
	C4.133,6.76,6.76,4.133,10,4.133z M10,1.999c-4.412,0-8,3.589-8,8s3.588,8,8,8c4.412,0,8-3.589,8-8S14.412,1.999,10,1.999z
	 M13.652,6.076c-0.075-0.074-0.196-0.074-0.271,0.001l-1.197,1.196c-0.075,0.075-0.075,0.197,0,0.271l0.271,0.271
	c0.075,0.075,0.196,0.074,0.271,0l1.197-1.197c0.075-0.075,0.076-0.196,0.001-0.271L13.652,6.076z M6.27,6.076L6,6.347
	C5.925,6.422,5.925,6.543,6,6.618l1.196,1.197c0.075,0.075,0.197,0.075,0.271,0l0.271-0.271c0.075-0.075,0.074-0.196,0-0.271
	L6.542,6.078C6.466,6.002,6.345,6.002,6.27,6.076z M10.077,4.627H9.69c-0.106,0-0.193,0.086-0.193,0.193v1.701
	c0,0.107,0.086,0.193,0.193,0.193h0.387c0.106,0,0.193-0.086,0.193-0.193V4.82C10.271,4.714,10.184,4.627,10.077,4.627z
	 M13.285,9.381v0.387c0,0.107,0.086,0.193,0.193,0.193h1.701c0.106,0,0.193-0.086,0.193-0.193V9.381
	c0-0.106-0.087-0.193-0.193-0.193h-1.701C13.372,9.188,13.285,9.274,13.285,9.381z M4.396,9.381v0.387
	c0,0.107,0.087,0.193,0.193,0.193H6.29c0.106,0,0.193-0.086,0.193-0.193V9.381c0-0.106-0.086-0.193-0.193-0.193H4.589
	C4.482,9.188,4.396,9.274,4.396,9.381z M10.735,11.01c-0.272-0.675-2.243-2.518-2.243-2.518s0.309,1.958,0.554,3.105
	c0.096,0.238,0.594,0.922,1.301,0.657C10.966,12.022,10.907,11.436,10.735,11.01z"/>
</svg>
