<?xml version="1.0" encoding="utf-8"?>
<!-- Generator: Adobe Illustrator 16.0.0, SVG Export Plug-In . SVG Version: 6.00 Build 0)  -->
<!DOCTYPE svg PUBLIC "-//W3C//DTD SVG 1.1//EN" "http://www.w3.org/Graphics/SVG/1.1/DTD/svg11.dtd">
<svg version="1.1" id="图层_1" xmlns="http://www.w3.org/2000/svg" xmlns:xlink="http://www.w3.org/1999/xlink" x="0px" y="0px"
	 width="20px" height="20px" viewBox="0 0 20 20" enable-background="new 0 0 20 20" xml:space="preserve">
<path fill-rule="evenodd" clip-rule="evenodd" d="M8.742,12.105c1.216-0.726,2.772-0.295,3.475,0.961
	c0.703,1.256,0.286,2.862-0.931,3.587c-1.216,0.725-2.772,0.295-3.475-0.961C7.108,14.436,7.525,12.83,8.742,12.105z"/>
<path fill-rule="evenodd" clip-rule="evenodd" d="M3.267,5.192l1.582-1.098l4.539,6.971c0,0-0.615,0.042-1.019,0.349
	c-0.647,0.492-0.76,0.759-0.76,0.759L3.267,5.192z"/>
<path fill-rule="evenodd" clip-rule="evenodd" d="M8.364,5.439L3.003,3.002l0.01,6.066L8.364,5.439z"/>
<path fill-rule="evenodd" clip-rule="evenodd" d="M16.733,5.192l-1.582-1.098l-4.539,6.971c0,0,0.615,0.042,1.019,0.349
	c0.646,0.492,0.76,0.759,0.76,0.759L16.733,5.192z"/>
<path fill-rule="evenodd" clip-rule="evenodd" d="M11.636,5.439l5.361-2.437l-0.01,6.066L11.636,5.439z"/>
</svg>
