<?xml version="1.0" encoding="utf-8"?>
<!-- Generator: Adobe Illustrator 16.0.0, SVG Export Plug-In . SVG Version: 6.00 Build 0)  -->
<!DOCTYPE svg PUBLIC "-//W3C//DTD SVG 1.0//EN" "http://www.w3.org/TR/2001/REC-SVG-20010904/DTD/svg10.dtd">
<svg version="1.0" id="图层_1" xmlns="http://www.w3.org/2000/svg" xmlns:xlink="http://www.w3.org/1999/xlink" x="0px" y="0px"
	 width="20px" height="20px" viewBox="0 0 20 20" enable-background="new 0 0 20 20" xml:space="preserve">
<g>
	<path fill="#1C374B" d="M0.959,12.816V6.636h2.135c2.194,0,3.292,1.004,3.292,3.013c0,0.955-0.307,1.722-0.921,2.3
		c-0.615,0.579-1.407,0.868-2.378,0.868H0.959z M2.276,7.713v4.026h0.718c0.625,0,1.116-0.186,1.472-0.559
		c0.356-0.372,0.535-0.876,0.535-1.512c0-0.614-0.186-1.094-0.559-1.438S3.585,7.713,2.99,7.713H2.276z"/>
	<path fill="#1C374B" d="M12.45,12.401c-0.604,0.35-1.346,0.523-2.227,0.523c-0.984,0-1.761-0.277-2.33-0.83
		c-0.57-0.553-0.854-1.311-0.854-2.271c0-0.974,0.313-1.766,0.94-2.376c0.626-0.61,1.452-0.916,2.477-0.916
		c0.659,0,1.234,0.093,1.727,0.279v1.249c-0.479-0.279-1.063-0.419-1.756-0.419c-0.595,0-1.078,0.195-1.448,0.583
		c-0.37,0.388-0.555,0.9-0.555,1.536c0,0.646,0.167,1.151,0.5,1.512c0.334,0.361,0.79,0.543,1.367,0.543
		c0.343,0,0.624-0.054,0.842-0.16v-1.269H9.885V9.33h2.565V12.401z"/>
	<path fill="#1C374B" d="M19.042,12.816h-1.437L17.143,11.4h-2.246l-0.455,1.416h-1.429l2.263-6.181h1.548L19.042,12.816z
		 M16.831,10.383L16.13,8.24c-0.046-0.136-0.078-0.315-0.096-0.539h-0.037c-0.016,0.181-0.051,0.355-0.107,0.523l-0.706,2.159
		H16.831z"/>
</g>
</svg>
