<?xml version="1.0" encoding="utf-8"?>
<!-- Generator: Adobe Illustrator 16.0.0, SVG Export Plug-In . SVG Version: 6.00 Build 0)  -->
<!DOCTYPE svg PUBLIC "-//W3C//DTD SVG 1.0//EN" "http://www.w3.org/TR/2001/REC-SVG-20010904/DTD/svg10.dtd">
<svg version="1.0" id="图层_1" xmlns="http://www.w3.org/2000/svg" xmlns:xlink="http://www.w3.org/1999/xlink" x="0px" y="0px"
	 width="20px" height="20px" viewBox="0 0 20 20" enable-background="new 0 0 20 20" xml:space="preserve">
<path fill="#1C374B" d="M16.477,9.034c-0.81-0.468-1.701-0.663-2.57-0.617c0.474-0.729,0.75-1.601,0.75-2.536
	c0-1.74-0.954-3.257-2.368-4.056c0.861,0.678,1.414,1.729,1.414,2.909c0,2.045-1.657,3.703-3.702,3.703S6.297,6.78,6.297,4.734
	c0-1.181,0.554-2.231,1.415-2.909C6.298,2.624,5.342,4.141,5.342,5.881c0,0.935,0.277,1.806,0.752,2.536
	c-0.87-0.046-1.762,0.149-2.573,0.617c-1.506,0.87-2.342,2.455-2.327,4.08c0.156-1.085,0.79-2.09,1.813-2.68
	c1.771-1.022,4.035-0.416,5.058,1.356c1.022,1.77,0.416,4.035-1.355,5.058c-1.023,0.59-2.209,0.636-3.227,0.229
	c1.399,0.824,3.189,0.895,4.697,0.024C8.99,16.632,9.605,15.959,10,15.18c0.395,0.779,1.01,1.452,1.821,1.921
	c1.506,0.87,3.296,0.8,4.695-0.024c-1.018,0.406-2.204,0.36-3.227-0.229c-1.771-1.022-2.378-3.288-1.355-5.058
	c1.023-1.771,3.286-2.378,5.059-1.356c1.022,0.59,1.655,1.595,1.813,2.68C18.82,11.488,17.985,9.903,16.477,9.034z M10,12.077
	c-0.775,0-1.405-0.631-1.405-1.406c0-0.774,0.63-1.405,1.405-1.405s1.405,0.63,1.405,1.405C11.405,11.446,10.775,12.077,10,12.077z"
	/>
</svg>
