<?xml version="1.0" encoding="utf-8"?>
<!-- Generator: Adobe Illustrator 16.0.0, SVG Export Plug-In . SVG Version: 6.00 Build 0)  -->
<!DOCTYPE svg PUBLIC "-//W3C//DTD SVG 1.1//EN" "http://www.w3.org/Graphics/SVG/1.1/DTD/svg11.dtd">
<svg version="1.1" id="图层_1" xmlns="http://www.w3.org/2000/svg" xmlns:xlink="http://www.w3.org/1999/xlink" x="0px" y="0px"
	 width="20px" height="20px" viewBox="0 0 20 20" enable-background="new 0 0 20 20" xml:space="preserve">
<rect x="5.919" y="8.717" transform="matrix(0.6652 0.7467 -0.7467 0.6652 12.5408 -0.142)" fill="#1A364B" width="1.019" height="10.391"/>
<rect x="1.472" y="6.55" transform="matrix(0.7424 0.6699 -0.6699 0.7424 6.4142 -2.5645)" fill="#1A364B" width="10.14" height="1.019"/>
<rect x="11.014" y="1.793" transform="matrix(0.9613 0.2754 -0.2754 0.9613 2.1552 -2.9329)" fill="#1A364B" width="1.018" height="8.833"/>
<rect x="13.731" y="5.042" transform="matrix(0.3082 0.9513 -0.9513 0.3082 18.5837 -7.1972)" fill="#1A364B" width="1.019" height="8.272"/>
<rect x="8.274" y="13.737" transform="matrix(0.5534 0.8329 -0.8329 0.5534 17.5924 -4.3203)" fill="#1A364B" width="9.102" height="1.018"/>
<circle fill="#1A364B" cx="10.307" cy="10.455" r="2.972"/>
<circle fill="#1A364B" cx="2.778" cy="3.662" r="1.602"/>
<circle fill="#1A364B" cx="12.74" cy="1.964" r="1.699"/>
<circle fill="#1A364B" cx="18.175" cy="7.902" r="1.148"/>
<circle fill="#1A364B" cx="15.345" cy="18.035" r="1.698"/>
<circle fill="#1A364B" cx="2.551" cy="17.372" r="1.698"/>
</svg>
