<?xml version="1.0" encoding="utf-8"?>
<!-- Generator: Adobe Illustrator 16.0.0, SVG Export Plug-In . SVG Version: 6.00 Build 0)  -->
<!DOCTYPE svg PUBLIC "-//W3C//DTD SVG 1.1//EN" "http://www.w3.org/Graphics/SVG/1.1/DTD/svg11.dtd">
<svg version="1.1" id="图层_1" xmlns="http://www.w3.org/2000/svg" xmlns:xlink="http://www.w3.org/1999/xlink" x="0px" y="0px"
	 width="25px" height="15px" viewBox="0 0 25 15" enable-background="new 0 0 25 15" xml:space="preserve">
<path fill="#231815" d="M0-0.058V15h25V-0.058H0z M12.734,12.506c-0.241,0.219-0.529,0.327-0.867,0.327
	c-0.342,0-0.632-0.112-0.867-0.332c-0.236-0.219-0.354-0.478-0.354-0.774c0-0.308,0.118-0.572,0.354-0.791
	c0.235-0.221,0.525-0.33,0.867-0.33c0.338,0,0.626,0.108,0.867,0.328c0.238,0.217,0.358,0.481,0.358,0.793
	C13.092,12.029,12.972,12.29,12.734,12.506z M15.039,6.173c-0.23,0.432-0.629,0.875-1.193,1.333
	c-0.476,0.378-0.779,0.676-0.909,0.891c-0.132,0.215-0.198,0.476-0.198,0.776v0.46H10.98V9.007c0-0.475,0.086-0.882,0.26-1.218
	c0.173-0.335,0.464-0.672,0.873-1.01c0.472-0.387,0.784-0.703,0.939-0.95c0.156-0.247,0.234-0.512,0.234-0.796
	c0-0.329-0.117-0.591-0.348-0.787c-0.23-0.195-0.563-0.293-0.993-0.293c-0.835,0-1.613,0.311-2.333,0.933V2.833
	c0.796-0.445,1.647-0.667,2.555-0.667c1.017,0,1.808,0.233,2.372,0.7c0.564,0.467,0.847,1.098,0.847,1.894
	C15.386,5.27,15.271,5.742,15.039,6.173z"/>
</svg>
