<?xml version="1.0" encoding="utf-8"?>
<!-- Generator: Adobe Illustrator 16.0.0, SVG Export Plug-In . SVG Version: 6.00 Build 0)  -->
<!DOCTYPE svg PUBLIC "-//W3C//DTD SVG 1.1//EN" "http://www.w3.org/Graphics/SVG/1.1/DTD/svg11.dtd">
<svg version="1.1" id="图层_1" xmlns="http://www.w3.org/2000/svg" xmlns:xlink="http://www.w3.org/1999/xlink" x="0px" y="0px"
	 width="25px" height="15px" viewBox="0 0 25 15" enable-background="new 0 0 25 15" xml:space="preserve">
<rect x="0" y="-0.058" fill="#C5C6C6" width="25" height="15.058"/>
<g>
	<path fill="#767676" d="M12.739,9.633H10.98V9.007c0-0.475,0.086-0.882,0.26-1.218c0.173-0.335,0.464-0.672,0.873-1.01
		c0.472-0.387,0.784-0.703,0.939-0.95c0.156-0.247,0.234-0.512,0.234-0.796c0-0.329-0.117-0.591-0.348-0.787
		c-0.23-0.195-0.563-0.293-0.993-0.293c-0.835,0-1.613,0.311-2.333,0.933V2.833c0.796-0.445,1.647-0.667,2.555-0.667
		c1.017,0,1.808,0.233,2.372,0.7s0.847,1.098,0.847,1.894c0,0.51-0.115,0.982-0.347,1.413c-0.231,0.432-0.629,0.875-1.193,1.333
		c-0.476,0.378-0.779,0.675-0.909,0.891c-0.132,0.215-0.198,0.475-0.198,0.776V9.633z M11.867,10.606
		c0.338,0,0.626,0.108,0.867,0.327c0.238,0.218,0.358,0.482,0.358,0.794c0,0.302-0.12,0.563-0.358,0.779
		c-0.241,0.218-0.529,0.327-0.867,0.327c-0.342,0-0.632-0.112-0.867-0.332c-0.236-0.219-0.354-0.477-0.354-0.774
		c0-0.308,0.118-0.572,0.354-0.792C11.235,10.715,11.525,10.606,11.867,10.606z"/>
</g>
</svg>
