<?xml version="1.0" encoding="utf-8"?>
<!-- Generator: Adobe Illustrator 16.0.0, SVG Export Plug-In . SVG Version: 6.00 Build 0)  -->
<!DOCTYPE svg PUBLIC "-//W3C//DTD SVG 1.1//EN" "http://www.w3.org/Graphics/SVG/1.1/DTD/svg11.dtd">
<svg version="1.1" id="图层_1" xmlns="http://www.w3.org/2000/svg" xmlns:xlink="http://www.w3.org/1999/xlink" x="0px" y="0px"
	 width="20px" height="20px" viewBox="0 0 20 20" enable-background="new 0 0 20 20" xml:space="preserve">
<path fill-rule="evenodd" clip-rule="evenodd" d="M16.087,15.218H3.913C3.409,15.218,3,14.803,3,14.291s0.409-0.927,0.913-0.927
	s0.913-0.416,0.913-0.927V6.254c0-2.39,1.908-4.327,4.261-4.327C9.087,1.415,9.496,1,10,1s0.913,0.415,0.913,0.927
	c2.353,0,4.261,1.938,4.261,4.327v6.182c0,0.512,0.409,0.927,0.913,0.927S17,13.779,17,14.291S16.591,15.218,16.087,15.218z M10,18
	c-1.009,0-1.826-0.83-1.826-1.854h3.652C11.826,17.17,11.008,18,10,18z"/>
</svg>
