<?xml version="1.0" encoding="UTF-8"?>
<svg width="20px" height="20px" viewBox="0 0 20 20" version="1.1" xmlns="http://www.w3.org/2000/svg" xmlns:xlink="http://www.w3.org/1999/xlink">
    <!-- Generator: Sketch 46.2 (44496) - http://www.bohemiancoding.com/sketch -->
    <title>pdf图标</title>
    <desc>Created with Sketch.</desc>
    <defs></defs>
    <g id="Page-1" stroke="none" stroke-width="1" fill="none" fill-rule="evenodd">
        <g id="威胁样本任务列表_查看报告" transform="translate(-200.000000, -199.000000)">
            <g id="Group" transform="translate(200.000000, 198.000000)">
                <g id="发现">
                    <path d="M15.7402,9.2152 L4.7712,9.2152 C4.3572,9.2152 4.0212,8.8792 4.0212,8.4652 C4.0212,8.0512 4.3572,7.7152 4.7712,7.7152 L15.7402,7.7152 C16.1542,7.7152 16.4902,8.0512 16.4902,8.4652 C16.4902,8.8792 16.1542,9.2152 15.7402,9.2152" id="Fill-1" fill="#405060"></path>
                    <path d="M15.7402,11.7288 L4.7712,11.7288 C4.3572,11.7288 4.0212,11.3928 4.0212,10.9788 C4.0212,10.5638 4.3572,10.2288 4.7712,10.2288 L15.7402,10.2288 C16.1542,10.2288 16.4902,10.5638 16.4902,10.9788 C16.4902,11.3928 16.1542,11.7288 15.7402,11.7288" id="Fill-3" fill="#405060"></path>
                    <path d="M15.7402,14.2415 L4.7712,14.2415 C4.3572,14.2415 4.0212,13.9055 4.0212,13.4915 C4.0212,13.0775 4.3572,12.7415 4.7712,12.7415 L15.7402,12.7415 C16.1542,12.7415 16.4902,13.0775 16.4902,13.4915 C16.4902,13.9055 16.1542,14.2415 15.7402,14.2415" id="Fill-5" fill="#405060"></path>
                    <g id="Group-9" transform="translate(2.000000, 0.956900)" fill="#405060">
                        <path d="M14.9609,0.0434 L3.0389,0.0434 C1.3749,0.0434 0.0219,1.3974 0.0219,3.0614 L0.0219,16.9814 C0.0219,18.6464 1.3749,20.0004 3.0389,20.0004 L14.9609,20.0004 C16.6249,20.0004 17.9789,18.6464 17.9789,16.9814 L17.9789,3.0614 C17.9789,1.3974 16.6249,0.0434 14.9609,0.0434 M14.9609,2.0434 C15.5229,2.0434 15.9789,2.4984 15.9789,3.0614 L15.9789,16.9814 C15.9789,17.5444 15.5229,18.0004 14.9609,18.0004 L3.0389,18.0004 C2.4779,18.0004 2.0219,17.5444 2.0219,16.9814 L2.0219,3.0614 C2.0219,2.4984 2.4779,2.0434 3.0389,2.0434 L14.9609,2.0434" id="Fill-7"></path>
                    </g>
                    <path d="M12,17 L1,17 C0.475419039,17 -4.05009359e-13,16.4528 -4.05009359e-13,16 L-4.05009359e-13,6 C-4.05009359e-13,5.546 0.475419039,5 1,5 L12,5 C12.524581,5 13,5.546 13,6 L13,16 C13,16.4528 12.524581,17 12,17" id="Fill-10" fill="#405060"></path>
                    <path d="M2.0082,9.67619849 L2.0082,10.8121671 L2.4032,10.8121671 C2.6872,10.8121671 2.8762,10.7908607 2.9722,10.7482478 C3.0682,10.7067564 3.1432,10.6405943 3.1962,10.5520045 C3.2512,10.4634146 3.2792,10.3591253 3.2792,10.2413793 C3.2792,10.0955985 3.2402,9.97673115 3.1642,9.88141295 C3.0882,9.78721615 2.9912,9.72778245 2.8742,9.70311186 C2.7882,9.686291 2.6152,9.67619849 2.3572,9.67619849 L2.0082,9.67619849 Z M1.2882,13 L1.2882,9 L2.4442,9 C2.8822,9 3.1672,9.02018503 3.3002,9.0594337 C3.5042,9.11998879 3.6762,9.25007009 3.8142,9.45192038 C3.9512,9.65264929 4.0212,9.9116905 4.0212,10.2301654 C4.0212,10.4757499 3.9812,10.6820858 3.9022,10.8502944 C3.8212,11.0162602 3.7212,11.1474629 3.5982,11.2439024 C3.4762,11.3392206 3.3522,11.4020185 3.2252,11.4334174 C3.0532,11.4726661 2.8042,11.4906084 2.4782,11.4906084 L2.0082,11.4906084 L2.0082,13 L1.2882,13 Z" id="Fill-12" fill="#FEFEFE"></path>
                    <path d="M5.721,9.67619849 L5.721,12.3249229 L6.258,12.3249229 C6.459,12.3249229 6.605,12.313709 6.694,12.2867956 C6.811,12.2542753 6.908,12.1993272 6.985,12.1208298 C7.062,12.0423325 7.124,11.914494 7.173,11.7350715 C7.222,11.555649 7.246,11.3111859 7.246,11.0028035 C7.246,10.6932997 7.222,10.4555649 7.173,10.2907205 C7.124,10.1247547 7.056,9.99579479 6.969,9.90271937 C6.881,9.80964396 6.77,9.74684609 6.636,9.71432576 C6.535,9.68965517 6.338,9.67619849 6.044,9.67619849 L5.721,9.67619849 Z M5,9 L6.317,9 C6.614,9 6.84,9.02579198 6.995,9.07625456 C7.204,9.14465938 7.384,9.26913373 7.533,9.44519204 C7.683,9.62125035 7.796,9.83767872 7.874,10.0922344 C7.951,10.3490328 7.991,10.6630221 7.991,11.0375666 C7.991,11.3672554 7.954,11.6509672 7.881,11.8898234 C7.792,12.1791421 7.664,12.4146341 7.499,12.5962994 C7.374,12.7319877 7.205,12.8385198 6.993,12.9147743 C6.834,12.9708438 6.621,13 6.356,13 L5,13 L5,9 Z" id="Fill-14" fill="#FEFEFE"></path>
                    <polygon id="Fill-16" fill="#FEFEFE" points="9 13 9 9 11.445 9 11.445 9.6752664 9.721 9.6752664 9.721 10.6231071 11.209 10.6231071 11.209 11.2994952 9.721 11.2994952 9.721 13"></polygon>
                </g>
            </g>
        </g>
    </g>
</svg>