<?xml version="1.0" encoding="utf-8"?>
<!-- Generator: Adobe Illustrator 22.0.1, SVG Export Plug-In . SVG Version: 6.00 Build 0)  -->
<svg version="1.1" id="图层_1" xmlns="http://www.w3.org/2000/svg" xmlns:xlink="http://www.w3.org/1999/xlink" x="0px" y="0px"
	 viewBox="0 0 20 20" style="enable-background:new 0 0 20 20;" xml:space="preserve">
<style type="text/css">
	.st0{fill:#405060;}
</style>
<title>pdf图标</title>
<desc>Created with Sketch.</desc>
<g>
	<path class="st0" d="M7.2,10c0-0.3,0-0.5-0.1-0.7C7.1,9.1,7.1,9,7,8.9C6.9,8.8,6.8,8.7,6.6,8.7c-0.1,0-0.3,0-0.6,0H5.7v2.6h0.5
		c0.2,0,0.3,0,0.4,0c0.1,0,0.2-0.1,0.3-0.2c0.1-0.1,0.1-0.2,0.2-0.4C7.2,10.6,7.2,10.3,7.2,10z"/>
	<path class="st0" d="M2.9,8.7c-0.1,0-0.3,0-0.5,0H2v1.1h0.4c0.3,0,0.5,0,0.6-0.1c0.1,0,0.2-0.1,0.2-0.2c0.1-0.1,0.1-0.2,0.1-0.3
		c0-0.1,0-0.3-0.1-0.4C3.1,8.8,3,8.7,2.9,8.7z"/>
	<path class="st0" d="M17,0H5C3.4,0,2,1.4,2,3v1H1C0.5,4,0,4.5,0,5v10c0,0.5,0.5,1,1,1h1v0.9c0,1.7,1.4,3,3,3H17c1.7,0,3-1.4,3-3V3
		C20,1.4,18.6,0,17,0z M3.9,9.9c-0.1,0.2-0.2,0.3-0.3,0.4c-0.1,0.1-0.2,0.2-0.4,0.2c-0.2,0-0.4,0.1-0.7,0.1H2V12H1.3V8h1.2
		c0.4,0,0.7,0,0.9,0.1c0.2,0.1,0.4,0.2,0.5,0.4C4,8.7,4,8.9,4,9.2C4,9.5,4,9.7,3.9,9.9z M18,16.9c0,0.6-0.5,1-1,1H5
		c-0.6,0-1-0.5-1-1V16h8c0.5,0,1-0.5,1-1v-1.8h2.7c0.4,0,0.8-0.3,0.8-0.8s-0.3-0.8-0.8-0.8H13v-1h2.7c0.4,0,0.8-0.3,0.8-0.8
		c0-0.4-0.3-0.8-0.8-0.8H13v-1h2.7c0.4,0,0.8-0.3,0.8-0.8s-0.3-0.8-0.8-0.8H13V5c0-0.5-0.5-1-1-1H4V3c0-0.6,0.5-1,1-1H17
		c0.6,0,1,0.5,1,1V16.9z M5,12V8h1.3C6.6,8,6.8,8,7,8.1c0.2,0.1,0.4,0.2,0.5,0.4c0.1,0.2,0.3,0.4,0.3,0.6C8,9.3,8,9.7,8,10
		c0,0.3,0,0.6-0.1,0.9c-0.1,0.3-0.2,0.5-0.4,0.7c-0.1,0.1-0.3,0.2-0.5,0.3C6.8,12,6.6,12,6.4,12H5z M11.2,9.6v0.7H9.7V12H9V8h2.4
		v0.7H9.7v0.9H11.2z"/>
</g>
</svg>
