<?xml version="1.0" encoding="utf-8"?>
<!-- Generator: Adobe Illustrator 16.0.0, SVG Export Plug-In . SVG Version: 6.00 Build 0)  -->
<!DOCTYPE svg PUBLIC "-//W3C//DTD SVG 1.1//EN" "http://www.w3.org/Graphics/SVG/1.1/DTD/svg11.dtd">
<svg version="1.1" id="图层_1" xmlns="http://www.w3.org/2000/svg" xmlns:xlink="http://www.w3.org/1999/xlink" x="0px" y="0px"
	 width="20px" height="20px" viewBox="0 0 20 20" enable-background="new 0 0 20 20" xml:space="preserve">
<path fill="#231815" d="M16.625,1.458H3.376c-1.104,0-2,0.896-2,2v13.25c0,1.104,0.896,2,2,2h13.249c1.104,0,2-0.896,2-2V3.458
	C18.625,2.354,17.729,1.458,16.625,1.458z M13.372,17.355l-2.218-3.33h1.387v-2.382L10,9.564l-2.541,2.08v2.382h1.387l-2.217,3.329
	l-2.223-3.329h1.389v-2.777c0-0.25,0.113-0.484,0.303-0.643l2.588-2.117L6.74,6.896C6.551,6.739,6.436,6.503,6.436,6.253V3.478
	c0-0.459,0.373-0.834,0.832-0.834c0.461,0,0.832,0.375,0.832,0.834v2.38L10,7.413l1.9-1.555v-2.38c0-0.459,0.371-0.834,0.836-0.834
	c0.456,0,0.831,0.375,0.831,0.834v2.775c0,0.25-0.116,0.486-0.309,0.644l-1.944,1.592l2.588,2.117
	c0.192,0.158,0.303,0.393,0.303,0.643v2.777h1.39L13.372,17.355z"/>
</svg>
