<?xml version="1.0" encoding="utf-8"?>
<!-- Generator: Adobe Illustrator 16.0.0, SVG Export Plug-In . SVG Version: 6.00 Build 0)  -->
<!DOCTYPE svg PUBLIC "-//W3C//DTD SVG 1.1//EN" "http://www.w3.org/Graphics/SVG/1.1/DTD/svg11.dtd">
<svg version="1.1" id="图层_1" xmlns="http://www.w3.org/2000/svg" xmlns:xlink="http://www.w3.org/1999/xlink" x="0px" y="0px"
	 width="20px" height="20px" viewBox="0 0 20 20" enable-background="new 0 0 20 20" xml:space="preserve">
<path fill-rule="evenodd" clip-rule="evenodd" d="M9.918,2.204c-4.282,0-7.753,3.471-7.753,7.752s3.471,7.752,7.753,7.752
	c4.281,0,7.752-3.471,7.752-7.752S14.199,2.204,9.918,2.204z M9.918,15.812c-3.234,0-5.855-2.621-5.855-5.855
	s2.621-5.855,5.855-5.855c3.233,0,5.854,2.621,5.854,5.855S13.151,15.812,9.918,15.812z"/>
<path fill-rule="evenodd" clip-rule="evenodd" d="M10.816,3.03c0,0.497-0.402,0.899-0.899,0.899l0,0
	c-0.497,0-0.899-0.402-0.899-0.899V1.378c0-0.497,0.402-0.899,0.899-0.899l0,0c0.497,0,0.899,0.402,0.899,0.899V3.03z"/>
<path fill-rule="evenodd" clip-rule="evenodd" d="M10.816,18.535c0,0.497-0.402,0.899-0.899,0.899l0,0
	c-0.497,0-0.899-0.402-0.899-0.899v-1.652c0-0.497,0.402-0.899,0.899-0.899l0,0c0.497,0,0.899,0.402,0.899,0.899V18.535z"/>
<path fill-rule="evenodd" clip-rule="evenodd" d="M16.824,11.418c-0.496,0-0.898-0.402-0.898-0.898l0,0
	c0-0.497,0.402-0.899,0.898-0.899l1.652,0c0.496,0,0.898,0.402,0.898,0.899l0,0c0,0.497-0.402,0.899-0.898,0.899L16.824,11.418z"/>
<path fill-rule="evenodd" clip-rule="evenodd" d="M1.319,11.418c-0.496,0-0.898-0.402-0.898-0.898l0,0
	c0-0.497,0.402-0.899,0.898-0.899l1.652,0c0.496,0,0.898,0.402,0.898,0.899l0,0c0,0.497-0.402,0.899-0.898,0.899L1.319,11.418z"/>
<path fill-rule="evenodd" clip-rule="evenodd" d="M10.369,6.832l3.111,4.785c0.17,0.26,0.091,0.609-0.416,0.609H6.938
	c-0.554,0-0.57-0.325-0.416-0.609l3.111-4.785C9.917,6.418,10.141,6.512,10.369,6.832z"/>
</svg>
