<?xml version="1.0" encoding="utf-8"?>
<!-- Generator: Adobe Illustrator 16.0.0, SVG Export Plug-In . SVG Version: 6.00 Build 0)  -->
<!DOCTYPE svg PUBLIC "-//W3C//DTD SVG 1.1//EN" "http://www.w3.org/Graphics/SVG/1.1/DTD/svg11.dtd">
<svg version="1.1" id="图层_1" xmlns="http://www.w3.org/2000/svg" xmlns:xlink="http://www.w3.org/1999/xlink" x="0px" y="0px"
	 width="20px" height="20px" viewBox="0 0 20 20" enable-background="new 0 0 20 20" xml:space="preserve">
<path fill="#231815" d="M9.999,0.313c-5.35,0-9.687,4.337-9.687,9.687c0,5.352,4.337,9.688,9.688,9.688s9.689-4.336,9.689-9.688
	C19.687,4.65,15.351,0.313,9.999,0.313z M9.481,10.528v1.41v3.074H8.04V12.93l-3.511,3.517l-1.022-1.018l3.485-3.49H5.101v-1.443
	h4.381V10.528z M9.481,8.063v1.411v0.032H5.101V8.063h1.888L3.506,4.574l1.021-1.02L8.04,7.071V4.988h1.442V8.063z M15.472,16.446
	L11.96,12.93v2.083h-1.442v-3.074v-1.41v-0.033h4.382v1.443h-1.891l3.484,3.488L15.472,16.446z M13.011,8.063h1.889v1.443h-4.382
	V9.473V8.063V4.988h1.442V7.07l3.512-3.516l1.021,1.02L13.011,8.063z"/>
</svg>
