<?xml version="1.0" encoding="utf-8"?>
<!-- Generator: Adobe Illustrator 22.0.1, SVG Export Plug-In . SVG Version: 6.00 Build 0)  -->
<svg version="1.1" id="图层_1" xmlns="http://www.w3.org/2000/svg" xmlns:xlink="http://www.w3.org/1999/xlink" x="0px" y="0px"
	 viewBox="0 0 20 20" width="20px" height="20px" style="enable-background:new 0 0 20 20;" xml:space="preserve">
<style type="text/css">
	.st0{fill:#040000;}
</style>
<path class="st0" d="M10,2.4c-4.2,0-7.6,3.4-7.6,7.6c0,4.2,3.4,7.6,7.6,7.6c4.2,0,7.6-3.4,7.6-7.6C17.6,5.8,14.2,2.4,10,2.4z
	 M10,15.7c-3.2,0-5.7-2.6-5.7-5.7c0-3.2,2.6-5.7,5.7-5.7c3.2,0,5.7,2.6,5.7,5.7C15.7,13.2,13.2,15.7,10,15.7z"/>
<path class="st0" d="M10.9,3.2c0,0.5-0.4,0.9-0.9,0.9l0,0c-0.5,0-0.9-0.4-0.9-0.9V1.6c0-0.5,0.4-0.9,0.9-0.9l0,0
	c0.5,0,0.9,0.4,0.9,0.9V3.2z"/>
<path class="st0" d="M10.9,18.4c0,0.5-0.4,0.9-0.9,0.9l0,0c-0.5,0-0.9-0.4-0.9-0.9v-1.6c0-0.5,0.4-0.9,0.9-0.9l0,0
	c0.5,0,0.9,0.4,0.9,0.9V18.4z"/>
<path class="st0" d="M16.8,11.4c-0.5,0-0.9-0.4-0.9-0.9l0,0c0-0.5,0.4-0.9,0.9-0.9h1.6c0.5,0,0.9,0.4,0.9,0.9l0,0
	c0,0.5-0.4,0.9-0.9,0.9L16.8,11.4z"/>
<path class="st0" d="M1.6,11.4c-0.5,0-0.9-0.4-0.9-0.9l0,0c0-0.5,0.4-0.9,0.9-0.9h1.6c0.5,0,0.9,0.4,0.9,0.9l0,0
	c0,0.5-0.4,0.9-0.9,0.9L1.6,11.4z"/>
<path class="st0" d="M14,10c0,0.5-0.4,0.9-0.9,0.9H6.9C6.4,10.9,6,10.5,6,10l0,0c0-0.5,0.4-0.9,0.9-0.9h6.3C13.6,9.2,14,9.5,14,10
	L14,10z"/>
<path class="st0" d="M10,6c0.5,0,0.9,0.4,0.9,0.9l0,6.3c0,0.5-0.4,0.9-0.9,0.9l0,0c-0.5,0-0.9-0.4-0.9-0.9V6.9C9.1,6.4,9.5,6,10,6
	L10,6z"/>
</svg>
