<?xml version="1.0" encoding="utf-8"?>
<!-- Generator: Adobe Illustrator 16.0.0, SVG Export Plug-In . SVG Version: 6.00 Build 0)  -->
<!DOCTYPE svg PUBLIC "-//W3C//DTD SVG 1.0//EN" "http://www.w3.org/TR/2001/REC-SVG-20010904/DTD/svg10.dtd">
<svg version="1.0" id="图层_1" xmlns="http://www.w3.org/2000/svg" xmlns:xlink="http://www.w3.org/1999/xlink" x="0px" y="0px"
	 width="48px" height="40px" viewBox="0 0 48 40" enable-background="new 0 0 48 40" xml:space="preserve">
<path fill-rule="evenodd" clip-rule="evenodd" fill="#1C374B" d="M46.398,13.663l-0.022,0.016L27.16,26.982l-0.002-0.003
	c-0.357,0.249-0.791,0.396-1.262,0.396c-0.455,0-0.878-0.138-1.23-0.373h-0.001l-0.008-0.006c-0.001,0-0.002-0.002-0.003-0.002
	l-9.929-6.619L4.44,26.425v9.092h40.695c1.225,0,2.219,0.994,2.219,2.219s-0.994,2.22-2.219,2.22H2.22
	c-1.227,0-2.22-0.995-2.22-2.22V2.22C0,0.994,0.994,0,2.22,0c1.225,0,2.22,0.994,2.22,2.22v19.054l9.232-5.43l0.004,0.007
	c0.331-0.194,0.71-0.314,1.122-0.314c0.455,0,0.879,0.138,1.231,0.373v0l0.008,0.004c0.001,0.002,0.002,0.002,0.003,0.003
	l9.833,6.555l17.998-12.459v0.001c0.36-0.25,0.794-0.396,1.264-0.396c1.225,0,2.219,0.993,2.219,2.219
	c0,0.756-0.379,1.423-0.958,1.824L46.398,13.663z"/>
</svg>
