<?xml version="1.0" encoding="utf-8"?>
<!-- Generator: Adobe Illustrator 16.0.0, SVG Export Plug-In . SVG Version: 6.00 Build 0)  -->
<!DOCTYPE svg PUBLIC "-//W3C//DTD SVG 1.0//EN" "http://www.w3.org/TR/2001/REC-SVG-20010904/DTD/svg10.dtd">
<svg version="1.0" id="图层_1" xmlns="http://www.w3.org/2000/svg" xmlns:xlink="http://www.w3.org/1999/xlink" x="0px" y="0px"
	 width="20px" height="20px" viewBox="0 0 20 20" enable-background="new 0 0 20 20" xml:space="preserve">
<path fill-rule="evenodd" clip-rule="evenodd" fill="#1C374B" d="M19.349,7.421l-0.01,0.006l-7.852,5.436h-0.001
	c-0.146,0.102-0.322,0.16-0.515,0.16c-0.186,0-0.359-0.055-0.503-0.15l0,0l-0.003-0.004c0,0,0,0-0.001,0l-4.057-2.705l-4.203,2.472
	v3.714h16.628c0.501,0,0.907,0.405,0.907,0.906c0,0.5-0.406,0.907-0.907,0.907H1.297c-0.501,0-0.907-0.407-0.907-0.907V2.745
	c0-0.501,0.406-0.907,0.907-0.907c0.5,0,0.907,0.406,0.907,0.907v7.785l3.772-2.219l0.001,0.003
	c0.135-0.079,0.291-0.128,0.459-0.128c0.186,0,0.359,0.056,0.503,0.152v0L6.943,8.34c0,0.001,0.001,0.001,0.001,0.002l4.018,2.677
	l7.354-5.091V5.93c0.146-0.102,0.324-0.162,0.516-0.162c0.501,0,0.907,0.406,0.907,0.907c0,0.309-0.155,0.582-0.392,0.745
	L19.349,7.421z"/>
</svg>
