<?xml version="1.0" encoding="utf-8"?>
<!-- Generator: Adobe Illustrator 16.0.0, SVG Export Plug-In . SVG Version: 6.00 Build 0)  -->
<!DOCTYPE svg PUBLIC "-//W3C//DTD SVG 1.0//EN" "http://www.w3.org/TR/2001/REC-SVG-20010904/DTD/svg10.dtd">
<svg version="1.0" id="图层_1" xmlns="http://www.w3.org/2000/svg" xmlns:xlink="http://www.w3.org/1999/xlink" x="0px" y="0px"
	 width="30px" height="30px" viewBox="0 0 30 30" enable-background="new 0 0 30 30" xml:space="preserve">
<path fill-rule="evenodd" clip-rule="evenodd" fill="#1C374B" d="M29.65,25.05c0,0.749-0.603,1.354-1.35,1.361v0.015H1.953v-0.015
	c-0.004,0-0.008,0.002-0.012,0.002c-0.753,0-1.363-0.61-1.363-1.363c0-0.273,0.083-0.528,0.223-0.743l-0.007-0.006L13.967,2.952
	l0.007,0.005c0.244-0.372,0.662-0.619,1.14-0.619c0.496,0,0.926,0.268,1.165,0.665l0.008-0.005l13.173,21.35l-0.008,0.005
	C29.574,24.557,29.65,24.794,29.65,25.05 M16.932,10.06c0-1.003-0.813-1.817-1.817-1.817c-1.003,0-1.817,0.814-1.817,1.817v6.814
	c0,1.003,0.813,1.816,1.817,1.816c1.004,0,1.817-0.813,1.817-1.816V10.06z M15.114,20.054c-1.003,0-1.817,0.813-1.817,1.816
	c0,1.004,0.813,1.817,1.817,1.817c1.004,0,1.817-0.813,1.817-1.817C16.932,20.867,16.118,20.054,15.114,20.054"/>
</svg>
