<?xml version="1.0" encoding="utf-8"?>
<!-- Generator: Adobe Illustrator 16.0.0, SVG Export Plug-In . SVG Version: 6.00 Build 0)  -->
<!DOCTYPE svg PUBLIC "-//W3C//DTD SVG 1.1//EN" "http://www.w3.org/Graphics/SVG/1.1/DTD/svg11.dtd">
<svg version="1.1" id="图层_1" xmlns="http://www.w3.org/2000/svg" xmlns:xlink="http://www.w3.org/1999/xlink" x="0px" y="0px"
	 width="20px" height="20px" viewBox="0 0 20 20" enable-background="new 0 0 20 20" xml:space="preserve">
<path fill-rule="evenodd" clip-rule="evenodd" fill="#040000" d="M17.09,14.939l-7.086-7.087l-7.179,7.18H2.822
	c-0.243,0.234-0.574,0.379-0.938,0.379c-0.748,0-1.353-0.605-1.353-1.353c0-0.365,0.145-0.695,0.379-0.939l0,0l8.116-8.116l0,0
	C9.272,4.749,9.617,4.589,10,4.589c0.001,0,0.002,0,0.003,0c0,0,0.002,0,0.002,0c0.383,0,0.729,0.159,0.974,0.414h0.001l8.116,8.116
	l-0.004,0.004c0.233,0.243,0.377,0.572,0.377,0.936c0,0.747-0.605,1.353-1.353,1.353C17.705,15.411,17.338,15.228,17.09,14.939"/>
</svg>
