<?xml version="1.0" encoding="utf-8"?>
<!-- Generator: Adobe Illustrator 16.0.0, SVG Export Plug-In . SVG Version: 6.00 Build 0)  -->
<!DOCTYPE svg PUBLIC "-//W3C//DTD SVG 1.1//EN" "http://www.w3.org/Graphics/SVG/1.1/DTD/svg11.dtd">
<svg version="1.1" id="图层_1" xmlns="http://www.w3.org/2000/svg" xmlns:xlink="http://www.w3.org/1999/xlink" x="0px" y="0px"
	 width="20px" height="20px" viewBox="0 0 20 20" enable-background="new 0 0 20 20" xml:space="preserve">
<path fill-rule="evenodd" clip-rule="evenodd" fill="#040000" d="M2.91,5.686l7.086,7.088l7.179-7.18h0.002
	c0.243-0.234,0.574-0.379,0.938-0.379c0.748,0,1.353,0.605,1.353,1.353c0,0.365-0.145,0.695-0.379,0.939l0,0l-8.116,8.116l0,0
	c-0.246,0.255-0.591,0.414-0.974,0.414c-0.001,0-0.002,0-0.003,0c0,0-0.002,0-0.002,0c-0.383,0-0.729-0.159-0.974-0.414H9.02
	L0.905,7.506l0.003-0.003C0.675,7.259,0.531,6.93,0.531,6.567c0-0.747,0.606-1.353,1.353-1.353C2.294,5.214,2.662,5.398,2.91,5.686"
	/>
</svg>
