<?xml version="1.0" encoding="utf-8"?>
<!-- Generator: Adobe Illustrator 16.0.0, SVG Export Plug-In . SVG Version: 6.00 Build 0)  -->
<!DOCTYPE svg PUBLIC "-//W3C//DTD SVG 1.0//EN" "http://www.w3.org/TR/2001/REC-SVG-20010904/DTD/svg10.dtd">
<svg version="1.0" id="图层_1" xmlns="http://www.w3.org/2000/svg" xmlns:xlink="http://www.w3.org/1999/xlink" x="0px" y="0px"
	 width="20px" height="20px" viewBox="0 0 20 20" enable-background="new 0 0 20 20" xml:space="preserve">
<path fill-rule="evenodd" clip-rule="evenodd" fill="#1C374B" d="M19.862,17.019c0,0.509-0.409,0.92-0.916,0.925v0.01H1.069v-0.01
	c-0.002,0-0.005,0.001-0.008,0.001c-0.511,0-0.925-0.414-0.925-0.926c0-0.185,0.056-0.357,0.151-0.503l-0.005-0.005L9.221,2.026
	L9.226,2.03c0.166-0.253,0.45-0.42,0.774-0.42c0.336,0,0.628,0.182,0.791,0.451l0.005-0.003l8.938,14.486l-0.005,0.003
	C19.81,16.685,19.862,16.846,19.862,17.019 M11.232,6.849c0-0.68-0.552-1.232-1.233-1.232S8.767,6.168,8.767,6.849v4.623
	c0,0.682,0.552,1.232,1.233,1.232s1.233-0.551,1.233-1.232V6.849z M10,13.629c-0.681,0-1.233,0.553-1.233,1.232
	c0,0.682,0.552,1.233,1.233,1.233s1.233-0.552,1.233-1.233C11.232,14.182,10.681,13.629,10,13.629"/>
</svg>
