<?xml version="1.0" encoding="utf-8"?>
<!-- Generator: Adobe Illustrator 16.0.0, SVG Export Plug-In . SVG Version: 6.00 Build 0)  -->
<!DOCTYPE svg PUBLIC "-//W3C//DTD SVG 1.1//EN" "http://www.w3.org/Graphics/SVG/1.1/DTD/svg11.dtd">
<svg version="1.1" id="图层_1" xmlns="http://www.w3.org/2000/svg" xmlns:xlink="http://www.w3.org/1999/xlink" x="0px" y="0px"
	 width="20px" height="20px" viewBox="0 0 20 20" enable-background="new 0 0 20 20" xml:space="preserve">
<path fill-rule="evenodd" clip-rule="evenodd" d="M13.301,0.018L18.225,5c0,0.918,0,1.055,0,1.25V17.5c0,1.381-1.102,2.5-2.462,2.5
	H4.686c-1.359,0-2.461-1.119-2.461-2.5v-15C2.225,1.12,3.326,0,4.686,0C4.686,0,13.223,0.018,13.301,0.018z M13.301,1.25
	c0,1.488,0,2.5,0,2.5c0,0.69,0.552,1.25,1.231,1.25h2.462L13.301,1.25z M13.916,15H6.532c-0.34,0-0.616-0.279-0.616-0.625
	s0.276-0.625,0.616-0.625h7.384c0.34,0,0.616,0.279,0.616,0.625S14.256,15,13.916,15z M13.916,11.25H6.532
	c-0.34,0-0.616-0.28-0.616-0.625S6.192,10,6.532,10h7.384c0.34,0,0.616,0.28,0.616,0.625S14.256,11.25,13.916,11.25z"/>
</svg>
