<?xml version="1.0" encoding="utf-8"?>
<!-- Generator: Adobe Illustrator 16.0.0, SVG Export Plug-In . SVG Version: 6.00 Build 0)  -->
<!DOCTYPE svg PUBLIC "-//W3C//DTD SVG 1.1//EN" "http://www.w3.org/Graphics/SVG/1.1/DTD/svg11.dtd">
<svg version="1.1" id="图层_1" xmlns="http://www.w3.org/2000/svg" xmlns:xlink="http://www.w3.org/1999/xlink" x="0px" y="0px"
	 width="20px" height="20px" viewBox="0 0 20 20" enable-background="new 0 0 20 20" xml:space="preserve">
<path d="M16.183,2.003h-2.246L8.297,2.012L3.817,2.003c-0.454,0-0.822,0.34-0.822,0.76v3.962v6.687v3.826
	c0,0.42,0.368,0.76,0.822,0.76h7.927c0.22,0,0.431-0.082,0.585-0.227l4.438-4.187c0.152-0.143,0.237-0.334,0.237-0.534V2.763
	C17.005,2.343,16.638,2.003,16.183,2.003z M4.636,5.062h10.715v0.763H4.636V5.062z M4.636,7.349h10.715v0.763H4.636V7.349z
	 M10.406,10.399h-5.77V9.637h5.77V10.399z M16.18,12.665h-4.946v4.564h-0.819v-4.886c0-0.252,0.221-0.456,0.493-0.456h5.271V12.665z
	"/>
</svg>
