<?xml version="1.0" encoding="utf-8"?>
<!-- Generator: Adobe Illustrator 16.0.0, SVG Export Plug-In . SVG Version: 6.00 Build 0)  -->
<!DOCTYPE svg PUBLIC "-//W3C//DTD SVG 1.1//EN" "http://www.w3.org/Graphics/SVG/1.1/DTD/svg11.dtd">
<svg version="1.1" id="图层_1" xmlns="http://www.w3.org/2000/svg" xmlns:xlink="http://www.w3.org/1999/xlink" x="0px" y="0px"
	 width="20px" height="20px" viewBox="0 0 20 20" enable-background="new 0 0 20 20" xml:space="preserve">
<path fill="#231815" d="M9.999,0.313c-5.35,0-9.688,4.338-9.688,9.688c0,5.352,4.338,9.688,9.688,9.688s9.688-4.336,9.688-9.688
	C19.687,4.65,15.351,0.313,9.999,0.313z M5.244,16.453l-2.288-2.288l7.44-6.722l1.595,1.442L5.244,16.453z M15.846,9.534
	c0,0-1.971-2.343-2.345-2.344l-0.853,0.956l-1.514-1.371l0.714-0.646c1.059-1.718-4.041-2.823-4.041-2.823
	c2.483-1.417,4.723-0.259,5.938,0.667l0.274-0.271c0.344-0.341,0.901-0.338,1.242,0.007s0.337,0.902-0.007,1.242l-0.219,0.216
	l2.588,2.586L15.846,9.534z"/>
</svg>
