<?xml version="1.0" encoding="utf-8"?>
<!-- Generator: Adobe Illustrator 16.0.0, SVG Export Plug-In . SVG Version: 6.00 Build 0)  -->
<!DOCTYPE svg PUBLIC "-//W3C//DTD SVG 1.0//EN" "http://www.w3.org/TR/2001/REC-SVG-20010904/DTD/svg10.dtd">
<svg version="1.0" id="图层_1" xmlns="http://www.w3.org/2000/svg" xmlns:xlink="http://www.w3.org/1999/xlink" x="0px" y="0px"
	 width="20px" height="20px" viewBox="0 0 20 20" enable-background="new 0 0 20 20" xml:space="preserve">
<path fill="#1C374B" d="M15.692,4.638h-5.446c-0.735,0-1.331,0.596-1.331,1.331v10.125c0,0.735,0.596,1.331,1.331,1.331h5.446
	c0.735,0,1.331-0.596,1.331-1.331V5.969C17.023,5.234,16.428,4.638,15.692,4.638z M11.215,16.246h-0.484v-4.99h0.484V16.246z
	 M12.546,16.246h-0.484v-4.99h0.484V16.246z M13.878,16.246h-0.484v-4.99h0.484V16.246z M15.208,16.246h-0.482v-4.99h0.482V16.246z
	 M14.966,10.688c-0.445,0-0.806-0.361-0.806-0.807s0.36-0.807,0.806-0.807c0.446,0,0.807,0.361,0.807,0.807
	S15.412,10.688,14.966,10.688z M15.772,8.066h-5.606V6.615h5.606V8.066z"/>
<path fill="#1C374B" d="M4.093,3.334C4.039,3.461,4.01,3.597,4.01,3.733L3.202,4.54l1.221,0.034l1.605,1.606
	c0.399,0.398,1.043,0.398,1.442,0c0.398-0.398,0.398-1.044,0-1.443L5.806,3.072l0.013-1.224L4.937,2.729
	C4.832,2.74,4.729,2.763,4.63,2.807L4.432,2.608L4.76,2.28L4.593,2.112L3.368,3.337l0.167,0.167L3.899,3.14L4.093,3.334z"/>
<path fill="#1C374B" d="M2.932,10.294c0.052,0.128,0.126,0.245,0.223,0.34v1.141l0.887-0.838h2.271c0.563,0,1.02-0.457,1.02-1.021
	c0-0.563-0.457-1.02-1.02-1.019H3.958L3.1,8.022v1.247C3.034,9.351,2.978,9.44,2.938,9.541H2.658V9.077H2.421l0,1.732h0.236v-0.516
	L2.932,10.294z"/>
<path fill="#1C374B" d="M4.047,17.262c0.127,0.055,0.263,0.084,0.398,0.084l0.807,0.808l0.034-1.221l1.606-1.604
	c0.398-0.398,0.398-1.045,0-1.442c-0.398-0.4-1.043-0.4-1.442,0l-1.665,1.663l-1.225-0.012l0.881,0.882
	c0.011,0.104,0.035,0.208,0.078,0.306l-0.198,0.198l-0.33-0.327l-0.167,0.166l1.226,1.225l0.167-0.167l-0.365-0.364L4.047,17.262z"
	/>
</svg>
