<?xml version="1.0" encoding="utf-8"?>
<!-- Generator: Adobe Illustrator 16.0.0, SVG Export Plug-In . SVG Version: 6.00 Build 0)  -->
<!DOCTYPE svg PUBLIC "-//W3C//DTD SVG 1.0//EN" "http://www.w3.org/TR/2001/REC-SVG-20010904/DTD/svg10.dtd">
<svg version="1.0" id="图层_1" xmlns="http://www.w3.org/2000/svg" xmlns:xlink="http://www.w3.org/1999/xlink" x="0px" y="0px"
	 width="20px" height="20px" viewBox="0 0 20 20" enable-background="new 0 0 20 20" xml:space="preserve">
<path fill-rule="evenodd" clip-rule="evenodd" fill="#1C374B" d="M19.063,0c-0.126,0-0.248,0.025-0.358,0.071l-0.002,0.001
	c-0.002,0.001-0.005,0.002-0.007,0.003L10,3.672L1.306,0.075C1.303,0.074,1.3,0.073,1.298,0.071L1.296,0.07
	C1.186,0.025,1.064,0,0.938,0C0.419,0,0,0.419,0,0.937v14.375c0,0.391,0.241,0.729,0.585,0.867l9.043,3.742
	C9.743,19.973,9.868,20,10,20s0.257-0.027,0.37-0.078l9.046-3.742C19.758,16.041,20,15.703,20,15.313V0.937
	C20,0.419,19.58,0,19.063,0z M9.063,17.658L1.95,14.686V2.34l7.112,2.975V17.658z M18.125,14.686l-7.188,2.973V5.314l7.188-2.975
	V14.686z"/>
<path fill-rule="evenodd" clip-rule="evenodd" fill="#1C374B" d="M12.425,6.646l3.438-1.563C15.98,5.031,16.112,5,16.25,5
	c0.518,0,0.938,0.42,0.938,0.938c0,0.379-0.225,0.707-0.551,0.854L13.2,8.354c-0.117,0.055-0.249,0.084-0.388,0.084
	c-0.519,0-0.938-0.42-0.938-0.938C11.875,7.121,12.101,6.795,12.425,6.646"/>
<path fill-rule="evenodd" clip-rule="evenodd" fill="#1C374B" d="M12.425,10.084L12.425,10.084l3.438-1.563
	c0.118-0.055,0.25-0.084,0.388-0.084c0.518,0,0.938,0.42,0.938,0.938c0,0.379-0.225,0.705-0.551,0.854L13.2,11.791
	c-0.117,0.053-0.249,0.084-0.388,0.084c-0.519,0-0.938-0.42-0.938-0.938C11.875,10.559,12.101,10.232,12.425,10.084"/>
<path fill-rule="evenodd" clip-rule="evenodd" fill="#1C374B" d="M12.425,13.521L12.425,13.521l3.438-1.563
	c0.118-0.053,0.25-0.084,0.388-0.084c0.518,0,0.938,0.418,0.938,0.938c0,0.379-0.225,0.707-0.551,0.854L13.2,15.229
	c-0.117,0.053-0.249,0.084-0.388,0.084c-0.519,0-0.938-0.42-0.938-0.938C11.875,13.996,12.101,13.668,12.425,13.521"/>
<path fill-rule="evenodd" clip-rule="evenodd" fill="#1C374B" d="M3.75,5c0.139,0,0.27,0.031,0.388,0.084l3.438,1.563
	c0.324,0.148,0.55,0.475,0.55,0.854c0,0.518-0.419,0.938-0.938,0.938c-0.139,0-0.27-0.029-0.388-0.084L3.362,6.791
	c-0.324-0.146-0.55-0.475-0.55-0.854C2.813,5.42,3.231,5,3.75,5"/>
<path fill-rule="evenodd" clip-rule="evenodd" fill="#1C374B" d="M3.75,8.438c0.139,0,0.27,0.029,0.388,0.084l3.438,1.563
	c0.324,0.148,0.55,0.475,0.55,0.854c0,0.518-0.419,0.938-0.938,0.938c-0.139,0-0.27-0.031-0.388-0.084l-3.438-1.563
	c-0.324-0.148-0.55-0.475-0.55-0.854C2.813,8.857,3.231,8.438,3.75,8.438"/>
<path fill-rule="evenodd" clip-rule="evenodd" fill="#1C374B" d="M3.75,11.875c0.139,0,0.27,0.031,0.388,0.084l3.438,1.563
	c0.324,0.146,0.55,0.475,0.55,0.854c0,0.518-0.419,0.938-0.938,0.938c-0.139,0-0.27-0.031-0.388-0.084l-3.438-1.563
	c-0.324-0.146-0.55-0.475-0.55-0.854C2.813,12.293,3.231,11.875,3.75,11.875"/>
</svg>
