<?xml version="1.0" encoding="utf-8"?>
<!-- Generator: Adobe Illustrator 16.0.0, SVG Export Plug-In . SVG Version: 6.00 Build 0)  -->
<!DOCTYPE svg PUBLIC "-//W3C//DTD SVG 1.1//EN" "http://www.w3.org/Graphics/SVG/1.1/DTD/svg11.dtd">
<svg version="1.1" id="图层_1" xmlns="http://www.w3.org/2000/svg" xmlns:xlink="http://www.w3.org/1999/xlink" x="0px" y="0px"
	 width="20px" height="20px" viewBox="0 0 20 20" enable-background="new 0 0 20 20" xml:space="preserve">
<path fill-rule="evenodd" clip-rule="evenodd" d="M17.839,14.375L11.02,3.542C10.815,3.218,10.433,3,9.996,3
	S9.176,3.218,8.972,3.542L2.153,14.375c-0.204,0.324-0.219,0.736,0,1.084C2.372,15.806,2.769,16,3.177,16h13.638
	c0.408,0,0.805-0.194,1.024-0.541C18.058,15.111,18.043,14.699,17.839,14.375z M10,15c-0.589,0-1.067-0.447-1.067-1S9.411,13,10,13
	c0.589,0,1.066,0.447,1.066,1S10.589,15,10,15z M11.066,11c0,0.553-0.478,1-1.066,1c-0.589,0-1.067-0.447-1.067-1V7
	c0-0.552,0.478-1,1.067-1c0.589,0,1.066,0.448,1.066,1V11z"/>
</svg>
