<?xml version="1.0" encoding="utf-8"?>
<!-- Generator: Adobe Illustrator 16.0.0, SVG Export Plug-In . SVG Version: 6.00 Build 0)  -->
<!DOCTYPE svg PUBLIC "-//W3C//DTD SVG 1.1//EN" "http://www.w3.org/Graphics/SVG/1.1/DTD/svg11.dtd">
<svg version="1.1" id="图层_1" xmlns="http://www.w3.org/2000/svg" xmlns:xlink="http://www.w3.org/1999/xlink" x="0px" y="0px"
	 width="20px" height="20px" viewBox="0 0 20 20" enable-background="new 0 0 20 20" xml:space="preserve">
<path fill="#323333" d="M16.852,7.326l-0.004-0.172c-0.041-1.119-0.49-2.225-1.342-3.08c-0.855-0.852-1.959-1.301-3.082-1.341
	l-0.168-0.003c-0.472,0-0.853-0.383-0.853-0.852c0-0.468,0.381-0.851,0.853-0.851l0.168,0.004c1.559,0.042,3.1,0.654,4.282,1.842
	c1.189,1.184,1.802,2.727,1.845,4.281l0.002,0.172c0,0.469-0.381,0.85-0.851,0.85S16.852,7.795,16.852,7.326L16.852,7.326z"/>
<path fill="#323333" d="M11.611,4.973c0-0.375,0.305-0.681,0.682-0.681l0.135,0.003c0.688,0.032,1.363,0.31,1.888,0.835
	c0.524,0.523,0.803,1.199,0.836,1.884l0.002,0.137c0,0.375-0.306,0.68-0.683,0.68c-0.373,0-0.68-0.305-0.68-0.68
	c0-0.047-0.008-0.137-0.008-0.137c-0.029-0.338-0.174-0.663-0.432-0.922c-0.258-0.26-0.586-0.401-0.924-0.434
	c0,0-0.088-0.005-0.135-0.005C11.916,5.655,11.611,5.349,11.611,4.973L11.611,4.973z"/>
<path fill="#323333" d="M5.104,4.345c-1.019,2.819-0.397,6.093,1.884,8.327c2.281,2.232,5.568,2.783,8.365,1.706L5.104,4.345z"/>
<path fill="#323333" d="M5.47,16.17c-1.523,0-2.76,1.234-2.76,2.76h5.52C8.23,17.406,6.994,16.17,5.47,16.17z"/>
<path fill="#323333" d="M10.317,10.465c-0.332,0.33-0.868,0.328-1.198-0.004l0,0c-0.33-0.332-0.328-0.869,0.004-1.199l2.003-1.992
	c0.332-0.33,0.869-0.329,1.199,0.003l0,0c0.33,0.333,0.328,0.869-0.004,1.199L10.317,10.465z"/>
<path fill="#323333" d="M6.326,14.33c-0.262,0.262-0.688,0.26-0.947-0.004l0,0c-0.262-0.263-0.26-0.687,0.002-0.947l1.586-1.574
	c0.263-0.262,0.688-0.26,0.948,0.002l0,0c0.261,0.264,0.259,0.688-0.003,0.949L6.326,14.33z"/>
<path fill="#323333" d="M6.043,16.686c0,0.318-0.26,0.575-0.577,0.574l0,0C5.148,17.259,4.891,17,4.892,16.682l0.007-1.92
	c0.001-0.316,0.26-0.574,0.577-0.574l0,0c0.318,0.002,0.575,0.262,0.574,0.578L6.043,16.686z"/>
<circle fill="#323333" cx="5.47" cy="14.168" r="1.289"/>
</svg>
