<?xml version="1.0" encoding="utf-8"?>
<!-- Generator: Adobe Illustrator 16.0.0, SVG Export Plug-In . SVG Version: 6.00 Build 0)  -->
<!DOCTYPE svg PUBLIC "-//W3C//DTD SVG 1.1//EN" "http://www.w3.org/Graphics/SVG/1.1/DTD/svg11.dtd">
<svg version="1.1" id="图层_1" xmlns="http://www.w3.org/2000/svg" xmlns:xlink="http://www.w3.org/1999/xlink" x="0px" y="0px"
	 width="20px" height="20px" viewBox="0 0 20 20" enable-background="new 0 0 20 20" xml:space="preserve">
<path fill-rule="evenodd" clip-rule="evenodd" d="M18.973,2.8c0,0,0-1.8-1.797-1.8S4.595,1,2.797,1S1,2.8,1,2.8v14.4
	c0,0,0,1.8,1.797,1.8s12.581,0,14.378,0s1.797-1.8,1.797-1.8v-5.737l-1.797,1.8V16.3c0,0,0,0.9-0.898,0.9
	c-0.899,0-11.683,0-12.582,0c-0.898,0-0.898-0.9-0.898-0.9V3.7c0,0,0-0.9,0.898-0.9c0.899,0,12.582,0,12.582,0s0.898,0,0.898,0.9
	c0,0.9,0,2.723,0,2.723l1.798,1.475L18.973,2.8z"/>
<path d="M13.393,15.275l5.302-5.096c0.37-0.359,0.379-0.713-0.044-1.035L13.418,4.73c-0.574-0.321-0.758-0.05-0.733,0.618
	l0.014,9.409C12.72,15.364,12.886,15.601,13.393,15.275z"/>
<path fill-rule="evenodd" clip-rule="evenodd" d="M14.48,8.2H5.493c0,0-0.898,0-0.898,0.9c0,0.9,0,1.8,0,1.8s0,0.9,0.898,0.9
	c0.899,0,8.987,0,8.987,0V8.2z"/>
</svg>
