<?xml version="1.0" standalone="no"?><!DOCTYPE svg PUBLIC "-//W3C//DTD SVG 1.1//EN" "http://www.w3.org/Graphics/SVG/1.1/DTD/svg11.dtd"><svg class="icon" width="200px" height="200.00px" viewBox="0 0 1024 1024" version="1.1" xmlns="http://www.w3.org/2000/svg"><path fill="#333333" d="M563.2 353.28c-30.72 0-51.2-25.6-51.2-51.2V5.12L896 358.4H563.2zM465.92 808.96c0-128 102.4-225.28 225.28-225.28 92.16 0 168.96 51.2 204.8 133.12V409.6H563.2C506.88 409.6 460.8 358.4 460.8 302.08V5.12H179.2c-30.72 0-51.2 25.6-51.2 51.2v911.36c0 30.72 25.6 51.2 51.2 51.2h424.96c-81.92-30.72-138.24-112.64-138.24-209.92zM691.2 819.2m-107.52 0a107.52 107.52 0 1 0 215.04 0 107.52 107.52 0 1 0-215.04 0Z" /></svg>