<?xml version="1.0" standalone="no"?><!DOCTYPE svg PUBLIC "-//W3C//DTD SVG 1.1//EN" "http://www.w3.org/Graphics/SVG/1.1/DTD/svg11.dtd"><svg class="icon" width="200px" height="175.04px" viewBox="0 0 1170 1024" version="1.1" xmlns="http://www.w3.org/2000/svg"><path fill="#333333" d="M658.284004 626.833491c0 41.909937-146.285779 41.909937-146.285779 0v-302.809541c0-41.838937 146.285779-41.838937 146.285779 0v302.809541zM511.998225 804.570222a73.142889 73.142889 0 1 0 146.285779 0 73.142889 73.142889 0 1 0-146.285779 0zM1087.484354 841.141167L650.750015 109.715274c-13.16598-21.869967-37.594943-36.571945-65.608901-36.571945-27.939958 0-52.515921 14.701978-65.535901 36.571945L82.870875 841.141167a70.947893 70.947893 0 0 0 0 73.142889c13.969979 23.405965 39.42394 36.571945 65.5359 36.571945h873.468678c26.18596 0 51.565922-13.16598 65.609901-36.571945a70.947893 70.947893 0 0 0 0-73.142889z m62.171906 110.957832a148.699775 148.699775 0 0 1-127.779807 71.899891H148.479775a148.479775 148.479775 0 0 1-127.560807-71.533892 144.309782 144.309782 0 0 1-0.292999-148.991774L457.361308 72.046331A148.699775 148.699775 0 0 1 585.141114 0.00144c52.80992 0 101.155847 27.574958 127.853807 72.044891l436.734339 731.426893a144.529781 144.529781 0 0 1 0 148.625775z" /></svg>