<?xml version="1.0" encoding="UTF-8"?>
<svg width="20px" height="16px" viewBox="0 0 20 16" version="1.1" xmlns="http://www.w3.org/2000/svg" xmlns:xlink="http://www.w3.org/1999/xlink">
    <!-- Generator: Sketch 48.2 (47327) - http://www.bohemiancoding.com/sketch -->
    <!-- <title>点击展开</title>
    <desc>Created with Sketch.</desc>
    <defs></defs>
    <g id="可视分析-3" stroke="none" stroke-width="1" fill="none" fill-rule="evenodd" transform="translate(-377.000000, -351.000000)">
        <g id="Group" transform="translate(90.000000, 265.000000)">
            <g id="可是分析内部" transform="translate(252.000000, 84.000000)">
                <g id="内网主机" transform="translate(9.000000, 2.000000)">
                    <g id="点击展开" transform="translate(26.000000, 0.000000)">
                        <rect id="Rectangle-6" fill="#2E3B4B" opacity="0.800000012" x="0" y="0" width="20" height="16" rx="5"></rect>
                        <path d="M9,7 L9,4 L11,4 L11,7 L14,7 L14,9 L11,9 L11,12 L9,12 L9,9 L6,9 L6,7 L9,7 Z" id="Combined-Shape" fill="#FFFFFF"></path>
                    </g>
                </g>
            </g>
        </g>
    </g> -->
    <!-- <g id="点击展开" transform="translate(26.000000, 0.000000)">
        <rect id="Rectangle-6" fill="#2E3B4B" opacity="0.800000012" x="0" y="0" width="20" height="16" rx="5"></rect>
        <path d="M9,7 L9,4 L11,4 L11,7 L14,7 L14,9 L11,9 L11,12 L9,12 L9,9 L6,9 L6,7 L9,7 Z" id="Combined-Shape" fill="#FFFFFF"></path>
    </g> -->
    <path fill="#FFFFFF" d="M9,7 L9,4 L11,4 L11,7 L14,7 L14,9 L11,9 L11,12 L9,12 L9,9 L6,9 L6,7 L9,7 Z" id="Combined-Shape"></path>
</svg>