<?xml version="1.0" standalone="no"?><!DOCTYPE svg PUBLIC "-//W3C//DTD SVG 1.1//EN" "http://www.w3.org/Graphics/SVG/1.1/DTD/svg11.dtd"><svg class="icon" width="200px" height="200.00px" viewBox="0 0 1024 1024" version="1.1" xmlns="http://www.w3.org/2000/svg"><path fill="#333333" d="M512 694.4V585.6H137.6v-432c0-3.2 3.2-6.4 6.4-6.4h739.2c3.2 0 6.4 3.2 6.4 6.4v169.6c41.6 25.6 76.8 60.8 99.2 102.4v-288c0-44.8-35.2-80-80-80H115.2c-44.8 0-80 35.2-80 80v512c0 44.8 35.2 80 80 80h313.6v185.6H176v57.6h489.6C572.8 915.2 512 812.8 512 694.4zM672 620.8c25.6 0 48-22.4 48-48h-99.2c3.2 25.6 25.6 48 51.2 48zM966.4 768c51.2-70.4 12.8-121.6 12.8-121.6H544C544 1072 982.4 992 966.4 976c-102.4-92.8-67.2-118.4 0-208zM761.6 320C643.2 320 544 416 544 537.6h435.2C979.2 419.2 880 320 761.6 320zM864 620.8c25.6 0 48-22.4 48-48h-99.2c0 25.6 22.4 48 51.2 48z" /></svg>