<?xml version="1.0" encoding="utf-8"?>
<!-- Generator: Adobe Illustrator 16.0.0, SVG Export Plug-In . SVG Version: 6.00 Build 0)  -->
<!DOCTYPE svg PUBLIC "-//W3C//DTD SVG 1.1//EN" "http://www.w3.org/Graphics/SVG/1.1/DTD/svg11.dtd">
<svg version="1.1" id="图层_1" xmlns="http://www.w3.org/2000/svg" xmlns:xlink="http://www.w3.org/1999/xlink" x="0px" y="0px"
	 width="20px" height="20px" viewBox="0 0 20 20" enable-background="new 0 0 20 20" xml:space="preserve">
<path fill="#040000" d="M15.609,4.924c0.825,0,1.498-0.672,1.498-1.499c0-0.826-0.674-1.496-1.498-1.496
	c-0.83,0-1.498,0.669-1.498,1.496S14.779,4.924,15.609,4.924"/>
<path fill="#040000" d="M2.124,11.713c0.082-0.018,0.162-0.025,0.241-0.021l3.463,0.01l5.12-5.935L9.609,5.758L7.286,8.444
	C7.148,8.613,6.938,8.718,6.705,8.718c-0.418,0-0.752-0.336-0.752-0.753c0-0.225,0.097-0.424,0.253-0.561l2.508-2.887
	c0.137-0.167,0.345-0.273,0.577-0.273l3.63-0.001c0,0,2.366,1.693,2.546,1.862v2.133h2.709c0.175,0.014,0.346,0.106,0.479,0.242
	c0.305,0.307,0.3,0.796-0.005,1.099c-0.133,0.132-0.299,0.206-0.472,0.222h-3.281c-0.993-0.006-0.967-0.83-0.967-0.83L13.94,7.67
	l-1.932,2.195l1.745,1.746c0,0,0.427,0.396,0.183,1.189l-1.139,5.072c-0.09,0.443-0.481,0.773-0.944,0.773
	c-0.535,0-0.969-0.434-0.969-0.965c0-0.088,0.009-0.168,0.031-0.246l0.937-4.164l-2.307-2.242l-1.987,2.213
	c0,0-0.322,0.398-1.174,0.367L2.36,13.615c-0.45,0.01-0.858-0.301-0.961-0.752C1.281,12.34,1.602,11.828,2.124,11.713z"/>
</svg>
