<?xml version="1.0" standalone="no"?><!DOCTYPE svg PUBLIC "-//W3C//DTD SVG 1.1//EN" "http://www.w3.org/Graphics/SVG/1.1/DTD/svg11.dtd"><svg t="1531981459911" class="icon" style="" viewBox="0 0 1024 1024" version="1.1" xmlns="http://www.w3.org/2000/svg" p-id="4287" xmlns:xlink="http://www.w3.org/1999/xlink" width="200" height="200"><defs><style type="text/css"></style></defs><path d="M502.4256 429.7728l0.2048-0.2048c-0.2048-0.9728-0.4096-1.8432-0.4608-2.4576a42.7008 42.7008 0 0 1 0.256 2.6624z m185.9584 203.1104v-0.1024h-0.1024s0.1024 0 0.1024 0.1024z m4.8128 0.6144c-1.1776-0.2048-3.7888 0.1024-4.8128-0.6144-0.5632 2.0992 0.3072 3.0208 4.8128 0.6144zM512 27.7504A484.1984 484.1984 0 0 0 27.7504 512 484.2496 484.2496 0 0 0 512 996.3008 484.2496 484.2496 0 0 0 996.3008 512c0-267.4688-216.832-484.2496-484.3008-484.2496z m309.2992 189.1328c-16.6912 0.512-28.3136 0.5632-41.6768 9.7792-5.4272 3.7376-9.0624 8.704-15.9232 10.6496-6.144 1.7408-12.8 0.2048-18.8928 2.2528-22.016 7.4752-18.4832 54.5792-47.5136 47.4624-13.6192-3.328-23.1936-19.4048-30.1056-29.952-5.9904-9.2672-16.9984-16.896-9.6256-28.4672-3.328 0.8704-7.0144-0.1024-10.2912 0.512 4.6592-10.1888 20.224-9.3184 22.784-14.5408 6.4512-13.056-17.7664-14.4384-24.576-16.2304 8.2432-8.8064 12.3904 2.9696 20.5824 0.9728 7.7824-1.9456-4.1472-12.288-8.8576-13.4144-1.6384-0.4096-29.2864 7.6288-13.3632-6.656l-59.1872-37.7344c-3.2768 13.9776 26.3168 21.9136 35.9424 26.8288-1.4336 5.7856-10.4448 14.1824-17.3568 11.7248-6.5024-2.304-3.84-13.056-13.6704-11.9808-7.0144 16.2304 14.7456 11.52 16.7936 21.4528 2.304 11.3664-8.2432 6.5536-12.2368 6.3488-1.024-0.0512-8.4992-7.8336-8.96-1.9456-0.4608 7.0144 12.032 4.3008 12.9536 11.3664-14.592 0.6144-22.1184-4.6592-33.8944-12.5952-13.8752-9.1648-20.992-8.3456-37.9904-8.3456 5.0688-2.0992 12.032-3.6352 16.384-7.0144 2.3552-1.8432 11.6736-10.8544 12.288-12.9024 2.6112-8.704-0.1536-8.0384-8.4992-13.7728-7.424-5.0688-16.384-14.1824-25.3952-15.9744-32.4096-6.4-9.8816 29.4912-34.6112 34.4576h1.2288-1.3824 0.1536c-5.6832-0.2048-16.384-1.6384-20.0704 1.4336-2.6112 2.0992-2.816 10.5984-5.7344 13.7216-5.1712 5.4784-12.9024 6.6048-19.0464 10.5984-6.0416 3.8912-19.3024 13.824-22.8352 20.5824-13.056 24.8832 29.3376 32.6144 45.4144 39.8848 7.2704 3.2768 28.5184 7.7824 32.4608 13.312 5.3248 7.3728-4.5568 14.2848 6.5024 19.5072 3.5328 1.6384 10.8032 1.9968 13.8752-1.4336 4.9664-5.5808-1.9968-6.8096-3.2256-13.2608-2.304-12.3904 1.4848-7.4752 7.7312-12.0832 12.7488-9.4208 9.8304-9.984 5.2736-24.9344-2.1504-6.9632-10.1376-26.4192-3.072-31.5392 9.216-6.7072 28.7744 3.6352 35.84 4.4544 8.192 1.024 12.8512 12.3904 17.3056 17.0496 2.9696 3.072 8.2944 9.6256 13.4656 8.9088 8.2944-1.1264 4.8128-8.3456 9.6256-11.6736 12.8-8.8576 16.1792 3.2256 21.2992 15.2576 4.8128 11.3152 9.3184 15.5136 17.92 22.784 3.9424 3.3792 21.3504 15.4624 19.712 22.9376-1.0752 5.0176-20.992 12.6464-26.3168 14.2848-19.4048 6.144-55.9104-10.0864-59.8016 20.736 7.5264-2.816 28.9792-20.3264 35.3792-12.032 2.9696 3.7376-2.304 9.2672-1.0752 12.9536 3.6864 11.2128 12.3392 7.3216 21.4016 5.4784-0.6144 0.3584-1.1776 0.7168-1.8944 1.024 12.3904-6.4 11.1104-5.0688 16.7936-15.36 1.8432-3.3792 4.608-11.5712 7.2192-13.9264 9.0112-8.2944 10.3936-2.56 16.0256 3.84 1.4336 1.6896 15.2576 21.504 10.2912 20.5312-16.0256-3.2256-31.3856-2.816-44.6976 5.9904-7.68 5.0688-14.9504 11.8784-24.1152 15.2576-2.2016 0.8192-18.432 2.304-16.4864-0.4096 2.816-4.0448 12.3904-6.7072 16.2304-11.1104-10.5472-4.3008-19.3536 5.2736-27.648 10.8544-8.8064 4.1984-10.9056 11.9296-18.3808 18.7392-3.2768 2.9696-9.472 3.4816-12.6976 7.3728-3.1232 3.7888-3.4816 9.728-6.4512 13.3632-2.048 2.5088-7.3728 1.024-9.5232 4.8128-2.816 4.9664 2.56 9.5744 1.3824 13.1072-2.1504 6.5024-14.4896 11.9808-19.2512 16.6912l1.8944-1.8944c-4.7616 5.0176-10.752 8.6528-14.4896 14.4384 1.6896 8.2432 7.0656 27.6992 5.5296 32.2048-4.9152 14.6944-14.5408-8.0384-18.4832-13.9264-13.3632-20.1728-40.1408-6.656-58.4192-4.9664-23.3984 2.0992-46.2848 32.4608-31.8976 57.1392 6.9632 11.776 18.5856 16.384 31.9488 13.6192 11.8784-2.4064 15.4624-19.0464 26.6752-19.3536 20.5824-0.5632 0.4608 20.1728-1.3312 27.7504-1.6384 7.1168 2.56 7.68 9.7792 9.5232 5.3248 1.2288 12.9024-2.304 17.5616 0.7168 2.9184 1.9456 2.816 12.4928 6.8096 9.216-7.8848 6.5536-6.0416 22.1184 2.048 27.7504 9.0112 6.2976 19.6096 0.512 29.0304 2.9184 17.7664 4.5056 9.3184-1.3824 24.9344-10.8032 10.5472-6.3488 12.2368 1.1776 19.456 1.1776 4.9152 0.0512 8.0384-7.0144 16.1792-4.9664 6.7072 1.6384 9.3696 6.8608 17.3056 8.0896 3.2768 0.4096 6.7072-1.28 9.7792-0.9216 14.7968 1.5872 26.0608 11.008 37.6832 19.6096 9.6256 7.0144 15.9232 5.5808 27.0848 8.8064 8.192 2.304 23.296 14.08 22.4768 24.5248-0.1024 1.8944-7.2704 11.2128-8.4992 15.4112 2.0992 1.4848 16.64-1.792 20.8896-2.0992-1.3824 1.5872-11.3152 8.6016-11.3152 4.9152 0 1.8944 7.0144 5.7856 8.704 7.0144 5.2224-16.7936 13.7216-5.9904 23.9104-1.792 8.704 3.4816 19.4048 3.6864 28.7232 5.888 7.8336 1.8944 25.1904 7.2192 30.976 13.6192 7.0144 7.7824 2.2016 20.3776-3.0208 28.1088-6.8096 10.0864-17.0496 13.9776-21.2992 25.8048-3.2768 9.4208-0.8192 18.8928-2.7136 29.3888-2.6112 14.08-4.7104 9.1136-13.824 17.8176-7.6288 7.2192-0.1024 5.9904-10.496 10.5984-10.496 4.608-19.712 3.2768-26.9824 14.6944 0.3072-0.7168 0.6144-1.3824 0.8192-2.2016-3.1232 4.3008-4.608 13.1072-6.0928 15.9232-3.584 7.424-8.6528 11.9808-14.4384 18.1248-2.2016 2.304-22.528 30.208-23.7568 27.904-1.4848-2.9184-17.5616 2.9184-18.2784-1.1776 0.6144 3.4816-0.2048 2.304 3.7888 4.3008-3.6864 22.8864-13.3632 26.3168-35.7888 26.5216 1.9456 11.008-8.0896 8.8064-12.8 14.6944-2.7136 3.4816-4.0448 13.2096-5.888 17.6128-1.1776 2.816-9.984 14.08-9.984 16.2816 0 2.0992 3.0208 5.12 5.7344 7.8848-15.872 3.2256-31.9488 5.376-48.384 6.7072 3.072-3.8912 3.84-7.3216-5.9392-7.68 2.6112-7.1168 8.7552-11.2128 11.3664-18.1248 1.2288-3.2256 0.2048-4.5056 1.2288-7.68 3.584-11.1104 2.048-6.912 0-15.616-4.7104-20.224 1.6896-25.7024 7.168-44.1856 5.6832-19.0976 5.1712-43.7248 8.7552-64.2048 1.6896-9.7792 4.5056-30.208 1.0752-39.4752-3.7888-10.3936-20.6848-18.5856-28.416-25.6-10.9568-9.984-16.7936-20.7872-24.8832-33.0752-4.1472-6.2976-8.8064-12.3904-12.032-19.2-6.912-14.592 0-5.888 1.1264-14.4896 1.1264-8.2944-0.9728-15.7184 2.304-24.4224 3.6352-9.6768 12.7488-15.7184 15.7696-25.3952 2.6624-8.6016 0.6144-19.5072-8.2432-22.4256-4.9664-1.5872-10.3936 2.0992-15.36 1.28-6.912-1.0752-14.7968-6.2976-20.224-10.3936-7.5776-5.8368-10.4448-15.2064-18.5344-20.736-6.7584-4.5568-11.5712-1.792-18.8416-3.9424-7.5264-2.2528-12.2368-11.5712-18.2784-14.4384-9.1648-4.4032-14.2848 1.8944-23.9616 0.6144-8.2432-1.0752-20.736-10.1376-28.416-13.6192-15.4624-7.2704-24.9856-15.0016-31.1808-30.7712-5.376-13.6192-13.1584-19.9168-22.3232-31.2832-9.3184-11.4176-12.1856-21.1968-26.5216-24.2688-1.6896-0.3584 3.4816 12.0832 4.0448 13.056 5.12 9.472 12.8 18.1248 18.9952 26.9312 9.0624 13.0048 5.2224 15.4624-4.0448 2.8672-10.5984-14.3872-22.8864-28.672-32.0512-43.8784-3.4304-5.7856-2.816-9.472-8.4992-14.9504-5.5296-5.2736-12.7488-7.8336-18.3296-12.8512-20.0192-18.0224-23.7056-42.0864-21.4016-67.7376 0.768-8.3968 3.7888-15.0528 2.4576-23.0912a32.5632 32.5632 0 0 0-9.984-17.2032l-5.8368-9.1136c-4.5056-7.5776-8.0896-15.0016-15.3088-21.1968a347.136 347.136 0 0 0-24.9856-18.8928 431.36 431.36 0 0 1 172.8512-129.28 25.088 25.088 0 0 0 4.1984 10.1376c5.632 8.2944 10.9568 7.6288 21.8624 9.9328-1.1776 12.6976-16.0256 12.8-26.0608 11.4176-11.9808-1.6384-24.576-5.632-34.9696 4.864 5.7344 3.4304 21.4528 16.896 19.3536 2.8672 11.5712-0.6144 22.6304-0.9216 33.8944 0.4608 4.5056 0.5632 19.5584 5.632 23.6544 3.2768 1.6896-0.9728 3.5328-9.4208 5.376-12.032-3.2256 0-6.656-1.5872-9.8304-1.28 7.424-9.5232 14.848-2.0992 24.32 2.304-10.4448 6.3488-4.2496 21.504 5.9392 9.216 8.3456-10.1376-2.048-17.5104-12.6976-23.3984 10.7008-13.4144 17.3056-14.6432 27.392 0.512 1.6384-9.3696 9.1648-5.5808 17.0496-4.9152v-2.3552c-3.4816 0.0512-7.168-1.8944-10.5984-1.536 8.0384-12.8 2.9184-15.7184 14.3872-19.9168 9.1136-3.2768 35.1744-0.2048 38.3488-8.8064-18.2272 3.584-40.2432 4.4544-56.6784 12.6976-7.1168 3.584-15.5136 14.848-22.5792 7.5264-7.2704-7.5264 5.1712-19.6096 11.5712-23.296h-1.536a427.8272 427.8272 0 0 1 147.6096-5.376c-6.6048 3.4816-1.6896 5.8368-6.5024 9.3696-9.216 6.7584-25.4976 12.3904-36.4544 16.64 13.8752 0 47.5648 13.056 54.0672-6.4512l-13.5168-2.0992a121.344 121.344 0 0 1 27.5456-13.3632 428.544 428.544 0 0 1 227.1744 125.44l-1.3312 0.0512z m78.3872 170.0352c0.8192-1.6896 2.6624-2.2528 3.3792-3.6864 1.6384-2.9696 1.28-4.9664 3.2768-7.4752 2.0992-2.7648 5.0176-3.3792 7.424-5.5296a8.6016 8.6016 0 0 0 1.8944-2.4576c7.168 19.968 12.8512 40.5504 16.9984 61.7472-0.1536 0.1536-0.2048 0.3584-0.4096 0.512a35.4816 35.4816 0 0 1-9.216 1.8944c-4.9152 0.2048-8.5504-3.072-12.0832-6.144a57.1392 57.1392 0 0 1-10.3424-11.3152c-2.7648-4.3008-1.0752-8.7552-0.8704-13.6704 0.2048-4.1984-1.792-10.1376-0.0512-13.8752z m5.5296 222.1056a130.304 130.304 0 0 1-24.0128-26.3168c-6.2976-9.984-2.4064-20.224-1.9968-31.744 0.4096-9.6256-4.3008-23.2448-0.2048-31.8976 1.8944-3.9424 6.1952-5.3248 7.936-8.4992 3.7376-6.912 2.9696-11.52 7.5264-17.408 4.9664-6.2976 11.6224-7.8848 17.1008-12.8512 5.7856-5.2224 5.5808-9.3184 9.3184-15.9744 2.7136-4.864 9.0112-13.0048 14.8992-17.2544a429.1072 429.1072 0 0 1-9.5232 175.36c-7.9872-2.1504-14.6432-7.8336-21.0432-13.4144z" p-id="4288"></path></svg>