<?xml version="1.0" encoding="utf-8"?>
<!-- Generator: Adobe Illustrator 16.0.0, SVG Export Plug-In . SVG Version: 6.00 Build 0)  -->
<!DOCTYPE svg PUBLIC "-//W3C//DTD SVG 1.1//EN" "http://www.w3.org/Graphics/SVG/1.1/DTD/svg11.dtd">
<svg version="1.1" id="图层_1" xmlns="http://www.w3.org/2000/svg" xmlns:xlink="http://www.w3.org/1999/xlink" x="0px" y="0px"
	 width="20px" height="20px" viewBox="0 0 20 20" enable-background="new 0 0 20 20" xml:space="preserve">
<path fill="#040000" d="M9.813,8.394c0.001-0.001,0.002-0.003,0.004-0.004C9.813,8.371,9.809,8.354,9.808,8.342
	C9.81,8.359,9.812,8.376,9.813,8.394z M13.445,12.361v-0.002h-0.002C13.443,12.359,13.445,12.359,13.445,12.361z M13.539,12.373
	c-0.023-0.004-0.074,0.002-0.094-0.012C13.434,12.402,13.451,12.42,13.539,12.373z M10,0.542c-5.224,0-9.458,4.234-9.458,9.458
	c0,5.225,4.234,9.459,9.458,9.459c5.224,0,9.459-4.234,9.459-9.459C19.459,4.776,15.224,0.542,10,0.542z M16.041,4.236
	c-0.326,0.01-0.553,0.011-0.814,0.191C15.121,4.5,15.05,4.597,14.916,4.635c-0.12,0.034-0.25,0.004-0.369,0.044
	c-0.43,0.146-0.361,1.066-0.928,0.927c-0.266-0.065-0.453-0.379-0.588-0.585c-0.117-0.181-0.332-0.33-0.188-0.556
	c-0.065,0.017-0.137-0.002-0.201,0.01c0.091-0.199,0.395-0.182,0.445-0.284c0.126-0.255-0.347-0.282-0.48-0.317
	c0.161-0.172,0.242,0.058,0.402,0.019c0.152-0.038-0.081-0.24-0.173-0.262c-0.032-0.008-0.572,0.149-0.261-0.13
	c-0.385-0.246-0.77-0.491-1.156-0.737c-0.064,0.273,0.514,0.428,0.702,0.524c-0.028,0.113-0.204,0.277-0.339,0.229
	c-0.127-0.045-0.075-0.255-0.267-0.234c-0.137,0.317,0.288,0.225,0.328,0.419c0.045,0.222-0.161,0.128-0.239,0.124
	c-0.02-0.001-0.166-0.153-0.175-0.038c-0.009,0.137,0.235,0.084,0.253,0.222c-0.285,0.012-0.432-0.091-0.662-0.246
	c-0.271-0.179-0.41-0.163-0.742-0.163c0.099-0.041,0.235-0.071,0.32-0.137c0.046-0.036,0.228-0.212,0.24-0.252
	c0.051-0.17-0.003-0.157-0.166-0.269c-0.145-0.099-0.32-0.277-0.496-0.312C9.543,2.506,9.983,3.207,9.5,3.304
	c0.008,0,0.017,0,0.024,0H9.497c0.001,0,0.002,0,0.003,0C9.389,3.3,9.18,3.272,9.108,3.332C9.057,3.373,9.053,3.539,8.996,3.6
	C8.895,3.707,8.744,3.729,8.624,3.807c-0.118,0.076-0.377,0.27-0.446,0.402C7.923,4.695,8.751,4.846,9.065,4.988
	c0.142,0.064,0.557,0.152,0.634,0.26C9.803,5.392,9.61,5.527,9.826,5.629c0.069,0.032,0.211,0.039,0.271-0.028
	c0.097-0.109-0.039-0.133-0.063-0.259c-0.045-0.242,0.029-0.146,0.151-0.236c0.249-0.184,0.192-0.195,0.103-0.487
	c-0.042-0.136-0.198-0.516-0.06-0.616c0.18-0.131,0.562,0.071,0.7,0.087c0.16,0.02,0.251,0.242,0.338,0.333
	c0.058,0.06,0.162,0.188,0.263,0.174c0.162-0.022,0.094-0.163,0.188-0.228c0.25-0.173,0.316,0.063,0.416,0.298
	c0.094,0.221,0.182,0.303,0.35,0.445c0.077,0.066,0.417,0.302,0.385,0.448c-0.021,0.098-0.41,0.247-0.514,0.279
	c-0.379,0.12-1.092-0.197-1.168,0.405c0.147-0.055,0.566-0.397,0.691-0.235c0.058,0.073-0.045,0.181-0.021,0.253
	c0.072,0.219,0.241,0.143,0.418,0.107c-0.012,0.007-0.023,0.014-0.037,0.02c0.242-0.125,0.217-0.099,0.328-0.3
	c0.036-0.066,0.09-0.226,0.141-0.272c0.176-0.162,0.203-0.05,0.313,0.075c0.028,0.033,0.298,0.42,0.201,0.401
	c-0.313-0.063-0.613-0.055-0.873,0.117c-0.15,0.099-0.292,0.232-0.471,0.298c-0.043,0.016-0.36,0.045-0.322-0.008
	c0.055-0.079,0.242-0.131,0.317-0.217c-0.206-0.084-0.378,0.103-0.54,0.212c-0.172,0.082-0.213,0.233-0.359,0.366
	c-0.064,0.058-0.185,0.068-0.248,0.144c-0.061,0.074-0.068,0.19-0.126,0.261c-0.04,0.049-0.144,0.02-0.186,0.094
	c-0.055,0.097,0.05,0.187,0.027,0.256c-0.042,0.127-0.283,0.234-0.376,0.326c0.012-0.012,0.024-0.024,0.037-0.037
	c-0.093,0.098-0.21,0.169-0.283,0.282C9.85,8.548,9.955,8.928,9.925,9.016C9.829,9.303,9.641,8.859,9.564,8.744
	C9.303,8.35,8.78,8.614,8.423,8.647C7.966,8.688,7.519,9.281,7.8,9.763c0.136,0.23,0.363,0.32,0.624,0.266
	c0.232-0.047,0.302-0.372,0.521-0.378c0.402-0.011,0.009,0.394-0.026,0.542c-0.032,0.139,0.05,0.15,0.191,0.186
	c0.104,0.024,0.252-0.045,0.343,0.014c0.057,0.038,0.055,0.244,0.133,0.18c-0.154,0.128-0.118,0.432,0.04,0.542
	c0.176,0.123,0.383,0.01,0.567,0.057c0.347,0.088,0.182-0.027,0.487-0.211c0.206-0.124,0.239,0.023,0.38,0.023
	c0.096,0.001,0.157-0.137,0.316-0.097c0.131,0.032,0.183,0.134,0.338,0.158c0.064,0.008,0.131-0.025,0.191-0.018
	c0.289,0.031,0.509,0.215,0.736,0.383c0.188,0.137,0.311,0.109,0.529,0.172c0.16,0.045,0.455,0.275,0.439,0.479
	c-0.002,0.037-0.142,0.219-0.166,0.301c0.041,0.029,0.325-0.035,0.408-0.041c-0.027,0.031-0.221,0.168-0.221,0.096
	c0,0.037,0.137,0.113,0.17,0.137c0.102-0.328,0.268-0.117,0.467-0.035c0.17,0.068,0.379,0.072,0.561,0.115
	c0.153,0.037,0.492,0.141,0.605,0.266c0.137,0.152,0.043,0.398-0.059,0.549c-0.133,0.197-0.333,0.273-0.416,0.504
	c-0.064,0.184-0.016,0.369-0.053,0.574c-0.051,0.275-0.092,0.178-0.27,0.348c-0.149,0.141-0.002,0.117-0.205,0.207
	c-0.205,0.09-0.385,0.064-0.527,0.287c0.006-0.014,0.012-0.027,0.016-0.043c-0.061,0.084-0.09,0.256-0.119,0.311
	c-0.07,0.145-0.169,0.234-0.282,0.354c-0.043,0.045-0.44,0.59-0.464,0.545c-0.029-0.057-0.343,0.057-0.357-0.023
	c0.012,0.068-0.004,0.045,0.074,0.084c-0.072,0.447-0.261,0.514-0.699,0.518c0.038,0.215-0.158,0.172-0.25,0.287
	c-0.053,0.068-0.079,0.258-0.115,0.344c-0.023,0.055-0.195,0.275-0.195,0.318c0,0.041,0.059,0.1,0.112,0.154
	c-0.31,0.063-0.624,0.105-0.945,0.131c0.06-0.076,0.075-0.143-0.116-0.15c0.051-0.139,0.171-0.219,0.222-0.354
	c0.024-0.063,0.004-0.088,0.024-0.15c0.07-0.217,0.04-0.135,0-0.305c-0.092-0.395,0.033-0.502,0.14-0.863
	c0.111-0.373,0.101-0.854,0.171-1.254c0.033-0.191,0.088-0.59,0.021-0.771c-0.074-0.203-0.404-0.363-0.555-0.5
	c-0.214-0.195-0.328-0.406-0.486-0.646c-0.081-0.123-0.172-0.242-0.235-0.375c-0.135-0.285,0-0.115,0.022-0.283
	c0.022-0.162-0.019-0.307,0.045-0.477c0.071-0.189,0.249-0.307,0.308-0.496c0.052-0.168,0.012-0.381-0.161-0.438
	c-0.097-0.031-0.203,0.041-0.3,0.025c-0.135-0.021-0.289-0.123-0.395-0.203c-0.148-0.114-0.204-0.297-0.362-0.405
	c-0.132-0.089-0.226-0.035-0.368-0.077c-0.147-0.044-0.239-0.226-0.357-0.282c-0.179-0.086-0.279,0.037-0.468,0.012
	c-0.161-0.021-0.405-0.198-0.555-0.266C6.972,9.949,6.786,9.798,6.665,9.49C6.56,9.224,6.408,9.101,6.229,8.879
	C6.047,8.656,5.991,8.465,5.711,8.405C5.678,8.398,5.779,8.641,5.79,8.66c0.1,0.185,0.25,0.354,0.371,0.526
	C6.338,9.44,6.263,9.488,6.082,9.242c-0.207-0.281-0.447-0.56-0.626-0.857C5.389,8.272,5.401,8.2,5.29,8.093
	C5.182,7.99,5.041,7.94,4.932,7.842C4.541,7.49,4.469,7.02,4.514,6.519c0.015-0.164,0.074-0.294,0.048-0.451
	C4.54,5.937,4.463,5.829,4.367,5.732C4.335,5.683,4.258,5.562,4.253,5.554C4.165,5.406,4.095,5.261,3.954,5.14
	c-0.081-0.07-0.29-0.233-0.488-0.369C4.353,3.666,5.512,2.79,6.842,2.246c0.01,0.067,0.039,0.134,0.082,0.198
	c0.11,0.162,0.214,0.149,0.427,0.194c-0.023,0.248-0.313,0.25-0.509,0.223c-0.234-0.032-0.48-0.11-0.683,0.095
	c0.112,0.067,0.419,0.33,0.378,0.056C6.763,3,6.979,2.994,7.199,3.021c0.088,0.011,0.382,0.11,0.462,0.064
	C7.694,3.066,7.73,2.901,7.766,2.85c-0.063,0-0.13-0.031-0.192-0.025c0.145-0.186,0.29-0.041,0.475,0.045
	c-0.204,0.124-0.083,0.42,0.116,0.18c0.163-0.198-0.04-0.342-0.248-0.457c0.209-0.262,0.338-0.286,0.535,0.01
	C8.484,2.42,8.631,2.494,8.785,2.507V2.461c-0.068,0.001-0.14-0.037-0.207-0.03c0.157-0.25,0.057-0.307,0.281-0.389
	c0.178-0.064,0.687-0.004,0.749-0.172C9.252,1.94,8.822,1.957,8.501,2.118c-0.139,0.07-0.303,0.29-0.441,0.147
	C7.918,2.118,8.161,1.882,8.286,1.81h-0.03C8.819,1.69,9.402,1.626,10,1.626c0.386,0,0.767,0.028,1.139,0.079
	c-0.129,0.068-0.033,0.114-0.127,0.183c-0.18,0.132-0.498,0.242-0.712,0.325c0.271,0,0.929,0.255,1.056-0.126
	c-0.088-0.014-0.176-0.027-0.264-0.041c0.164-0.108,0.347-0.196,0.538-0.261c1.729,0.343,3.267,1.219,4.437,2.45
	C16.058,4.236,16.049,4.236,16.041,4.236z M17.572,7.557c0.016-0.033,0.052-0.044,0.066-0.072c0.032-0.058,0.025-0.097,0.064-0.146
	c0.041-0.054,0.098-0.066,0.145-0.108c0.018-0.017,0.029-0.032,0.037-0.048c0.14,0.39,0.251,0.792,0.332,1.206
	c-0.003,0.003-0.004,0.007-0.008,0.01c-0.02,0.016-0.152,0.036-0.18,0.037c-0.096,0.004-0.167-0.06-0.236-0.12
	c-0.07-0.061-0.152-0.142-0.202-0.221c-0.054-0.084-0.021-0.171-0.017-0.267C17.577,7.746,17.538,7.63,17.572,7.557z M17.68,11.895
	c-0.162-0.141-0.354-0.33-0.469-0.514c-0.123-0.195-0.047-0.395-0.039-0.62c0.008-0.188-0.084-0.454-0.004-0.623
	c0.037-0.077,0.121-0.104,0.155-0.166c0.073-0.135,0.058-0.225,0.147-0.34c0.097-0.123,0.227-0.154,0.334-0.251
	c0.113-0.102,0.109-0.182,0.182-0.312c0.053-0.095,0.176-0.254,0.291-0.337C18.341,9.146,18.373,9.57,18.373,10
	c0,0.746-0.099,1.469-0.282,2.157C17.935,12.115,17.805,12.004,17.68,11.895z"/>
</svg>
