<?xml version="1.0" encoding="utf-8"?>
<!-- Generator: Adobe Illustrator 16.0.0, SVG Export Plug-In . SVG Version: 6.00 Build 0)  -->
<!DOCTYPE svg PUBLIC "-//W3C//DTD SVG 1.1//EN" "http://www.w3.org/Graphics/SVG/1.1/DTD/svg11.dtd">
<svg version="1.1" id="图层_1" xmlns="http://www.w3.org/2000/svg" xmlns:xlink="http://www.w3.org/1999/xlink" x="0px" y="0px"
	 width="20px" height="20px" viewBox="0 0 20 20" enable-background="new 0 0 20 20" xml:space="preserve">
<path fill="#231815" d="M10,0.313C4.65,0.313,0.313,4.65,0.313,10c0,5.351,4.337,9.688,9.688,9.688c5.351,0,9.688-4.337,9.688-9.688
	C19.688,4.65,15.351,0.313,10,0.313z M8.253,12.306l-0.604,0.599c0.011,0.057,0.034,0.109,0.034,0.169
	c0,0.37-0.217,0.682-0.525,0.84l-0.002,0.685C8.077,14.793,8.77,15.61,8.77,16.59H4.692c0-0.979,0.692-1.796,1.613-1.992
	l0.003-0.683c-0.311-0.156-0.53-0.47-0.53-0.842c0-0.525,0.427-0.952,0.953-0.952c0.12,0,0.232,0.027,0.338,0.068l0.522-0.519
	c-1.458-1.635-1.841-3.89-1.13-5.854l3.336,3.266l1.112-1.106c0.246-0.244,0.642-0.243,0.886,0.002
	c0.244,0.246,0.242,0.642-0.002,0.886L10.691,9.96l3.339,3.269C12.121,13.964,9.909,13.658,8.253,12.306z M11.267,6.281
	c0-0.277,0.226-0.503,0.504-0.503l0.1,0.002c0.509,0.023,1.007,0.229,1.394,0.617c0.388,0.386,0.594,0.885,0.618,1.391l0.001,0.101
	c0,0.277-0.227,0.502-0.504,0.502c-0.275,0-0.502-0.225-0.502-0.502c0-0.035-0.006-0.101-0.006-0.101
	c-0.021-0.25-0.129-0.49-0.318-0.681c-0.19-0.192-0.433-0.296-0.683-0.321c0,0-0.064-0.003-0.1-0.003
	C11.492,6.785,11.267,6.559,11.267,6.281z M15.766,8.647c-0.347,0-0.628-0.281-0.628-0.628l-0.003-0.127
	c-0.03-0.826-0.362-1.643-0.99-2.275c-0.634-0.629-1.448-0.961-2.278-0.99l-0.123-0.002c-0.349,0-0.63-0.283-0.63-0.629
	c0-0.346,0.281-0.629,0.63-0.629l0.123,0.003c1.151,0.031,2.291,0.483,3.164,1.36c0.879,0.875,1.33,2.015,1.362,3.162l0.002,0.127
	C16.395,8.366,16.112,8.647,15.766,8.647z"/>
</svg>
