<?xml version="1.0" encoding="utf-8"?>
<!-- Generator: Adobe Illustrator 16.0.0, SVG Export Plug-In . SVG Version: 6.00 Build 0)  -->
<!DOCTYPE svg PUBLIC "-//W3C//DTD SVG 1.0//EN" "http://www.w3.org/TR/2001/REC-SVG-20010904/DTD/svg10.dtd">
<svg version="1.0" id="图层_1" xmlns="http://www.w3.org/2000/svg" xmlns:xlink="http://www.w3.org/1999/xlink" x="0px" y="0px"
	 width="20px" height="20px" viewBox="0 0 20 20" enable-background="new 0 0 20 20" xml:space="preserve">
<path fill="#1C374B" d="M16.781,7.064l-0.004-0.172c-0.041-1.119-0.49-2.225-1.342-3.08c-0.855-0.852-1.959-1.301-3.082-1.341
	l-0.168-0.003c-0.471,0-0.852-0.383-0.852-0.852c0-0.468,0.381-0.851,0.852-0.851l0.168,0.004c1.559,0.042,3.1,0.654,4.283,1.842
	c1.189,1.184,1.801,2.727,1.844,4.281l0.002,0.172c0,0.469-0.381,0.85-0.85,0.85C17.162,7.914,16.781,7.533,16.781,7.064
	L16.781,7.064z"/>
<path fill="#1C374B" d="M11.541,4.711c0-0.375,0.305-0.681,0.682-0.681l0.135,0.003c0.688,0.032,1.363,0.31,1.887,0.835
	c0.525,0.523,0.803,1.199,0.836,1.884l0.002,0.137c0,0.375-0.305,0.68-0.682,0.68c-0.373,0-0.68-0.305-0.68-0.68
	c0-0.047-0.008-0.137-0.008-0.137c-0.029-0.338-0.174-0.663-0.432-0.922c-0.258-0.26-0.586-0.401-0.924-0.434
	c0,0-0.088-0.005-0.135-0.005C11.846,5.393,11.541,5.087,11.541,4.711L11.541,4.711z"/>
<path fill="#1C374B" d="M5.034,4.083c-1.019,2.819-0.397,6.093,1.884,8.327c2.281,2.232,5.568,2.784,8.365,1.706L5.034,4.083z"/>
<path fill="#1C374B" d="M5.4,15.908c-1.523,0-2.76,1.235-2.76,2.76h5.52C8.16,17.144,6.924,15.908,5.4,15.908z"/>
<path fill="#1C374B" d="M10.247,10.203c-0.332,0.33-0.868,0.328-1.198-0.004l0,0C8.719,9.867,8.721,9.33,9.053,9l2.004-1.992
	c0.332-0.33,0.869-0.329,1.199,0.003l0,0c0.33,0.333,0.328,0.869-0.004,1.199L10.247,10.203z"/>
<path fill="#1C374B" d="M6.256,14.068c-0.262,0.262-0.688,0.26-0.947-0.003l0,0c-0.262-0.263-0.26-0.687,0.002-0.948l1.586-1.574
	c0.263-0.262,0.688-0.26,0.948,0.002l0,0c0.261,0.264,0.259,0.688-0.003,0.949L6.256,14.068z"/>
<path fill="#1C374B" d="M5.973,16.424c0,0.318-0.26,0.575-0.577,0.574l0,0c-0.318-0.001-0.575-0.26-0.574-0.578l0.007-1.92
	c0.001-0.317,0.26-0.574,0.577-0.574l0,0c0.318,0.002,0.575,0.261,0.574,0.578L5.973,16.424z"/>
<circle fill="#1C374B" cx="5.4" cy="13.907" r="1.289"/>
</svg>
