<?xml version="1.0" standalone="no"?><!DOCTYPE svg PUBLIC "-//W3C//DTD SVG 1.1//EN" "http://www.w3.org/Graphics/SVG/1.1/DTD/svg11.dtd"><svg t="1531981418664" class="icon" style="" viewBox="0 0 1024 1024" version="1.1" xmlns="http://www.w3.org/2000/svg" p-id="4177" xmlns:xlink="http://www.w3.org/1999/xlink" width="200" height="200"><defs><style type="text/css"></style></defs><path d="M502.6816 56.0128a295.424 295.424 0 0 0-295.4752 295.4752H798.208a295.424 295.424 0 0 0-295.5264-295.4752zM383.2832 465.92c36.864 0 66.7136-29.9008 66.7136-66.7136H316.5696c0 36.8128 29.9008 66.7136 66.7136 66.7136zM640.6656 465.92c36.864 0 66.7648-29.9008 66.7648-66.7136H573.952A66.7136 66.7136 0 0 0 640.6656 465.92zM207.2064 497.664H798.208s51.8144 68.864-17.7152 165.1712c-90.5728 125.5424-137.984 158.9248 1.792 282.7776 23.5008 20.8384-575.0784 133.4784-575.0784-447.9488z" p-id="4178"></path></svg>