<?xml version="1.0" encoding="utf-8"?>
<!-- Generator: Adobe Illustrator 22.0.1, SVG Export Plug-In . SVG Version: 6.00 Build 0)  -->
<svg version="1.1" id="图层_1" xmlns="http://www.w3.org/2000/svg" xmlns:xlink="http://www.w3.org/1999/xlink" x="0px" y="0px"
	 viewBox="0 0 250 250" style="enable-background:new 0 0 250 250;" xml:space="preserve">
<style type="text/css">
	.st0{opacity:5.000000e-02;fill:#2B75C8;enable-background:new    ;}
	.st1{opacity:0.2;fill:#2B75C8;enable-background:new    ;}
	.st2{fill:none;stroke:#2B75C8;stroke-width:5;stroke-miterlimit:10;}
	.st3{fill:#2B75C8;}
	.st4{fill:url(#SVGID_1_);}
	.st5{fill:url(#SVGID_2_);}
</style>
<title>资源 1</title>
<g id="图层_2_1_">
	<g id="图层_1-2">
		<circle class="st0" cx="125" cy="125" r="125"/>
		<rect x="63" y="11" class="st1" width="124" height="97"/>
		<rect x="65" y="16" class="st1" width="53" height="87"/>
		<path class="st2" d="M63.2,11.5h123.5c1.3,0,2.4,1.1,2.4,2.4v27c0,1.3-1.1,2.4-2.4,2.4H63.2c-1.3,0-2.4-1.1-2.4-2.4v-27
			C60.8,12.6,61.9,11.5,63.2,11.5z"/>
		<path class="st3" d="M155.5,24.9h14.7c1.1,0,2,0.9,2,2V28c0,1.1-0.9,2-2,2h-14.7c-1.1,0-2-0.9-2-2v-1.1
			C153.5,25.8,154.4,24.9,155.5,24.9z"/>
		<path class="st2" d="M63.2,43.8h123.5c1.3,0,2.4,1.1,2.4,2.4v27c0,1.3-1.1,2.4-2.4,2.4H63.2c-1.3,0-2.4-1.1-2.4-2.4v-27
			C60.8,44.9,61.9,43.8,63.2,43.8z"/>
		<path class="st3" d="M155.5,57.2h14.7c1.1,0,2,0.9,2,2v1.1c0,1.1-0.9,2-2,2h-14.7c-1.1,0-2-0.9-2-2v-1.1
			C153.5,58.1,154.4,57.2,155.5,57.2z"/>
		<path class="st2" d="M63.2,76.1h123.5c1.3,0,2.4,1.1,2.4,2.4v27c0,1.3-1.1,2.4-2.4,2.4H63.2c-1.3,0-2.4-1.1-2.4-2.4v-27
			C60.8,77.2,61.9,76.1,63.2,76.1z"/>
		<path class="st3" d="M155.5,89.5h14.7c1.1,0,2,0.9,2,2v1.1c0,1.1-0.9,2-2,2h-14.7c-1.1,0-2-0.9-2-2v-1.1
			C153.5,90.4,154.4,89.5,155.5,89.5z"/>
		<path class="st3" d="M68.1,20.3h14.7v3.9h-4.9V36H73V24.2h-4.9V20.3z"/>
		<g>
			<path class="st3" d="M85.2,20.2H91c1.3,0,2.3,0.1,3,0.3c0.9,0.3,1.7,0.8,2.4,1.5c0.7,0.7,1.2,1.6,1.5,2.6c0.3,1,0.5,2.3,0.5,3.7
				c0,1.3-0.2,2.4-0.5,3.4c-0.4,1.2-1,2.1-1.7,2.8c-0.6,0.5-1.3,1-2.2,1.3c-0.7,0.2-1.7,0.3-2.8,0.3h-6V20.2z M89.5,24.6v7.1h1.6
				c0.6,0,1,0,1.3-0.1c0.4-0.1,0.6-0.2,0.9-0.4s0.4-0.6,0.6-1s0.2-1.1,0.2-2s-0.1-1.5-0.2-1.9c-0.1-0.4-0.4-0.8-0.6-1
				s-0.6-0.4-1-0.5c-0.3-0.1-0.9-0.1-1.8-0.1H89.5z"/>
		</g>
		<path class="st3" d="M101.2,20.3h8c1.4-0.1,2.8,0.3,3.9,1.2c0.9,0.9,1.4,2.2,1.3,3.5c0.1,1.4-0.4,2.7-1.4,3.7
			c-1.2,1-2.7,1.4-4.3,1.3h-2.7V36h-4.8V20.3z M106.1,27h1.2c0.7,0.1,1.4-0.1,2-0.5c0.4-0.3,0.6-0.8,0.6-1.2c0-0.5-0.2-0.9-0.5-1.2
			c-0.5-0.4-1.2-0.6-1.8-0.5h-1.4V27z"/>
		<path class="st3" d="M163.1,200.1H86.9c-2.6,0-4.4,2.4-4.1,5.4l6.1,36.6c0.2,2.2,2.1,3.8,4.2,3.9h63.8c2.2-0.1,4-1.7,4.2-3.9
			l6.1-36.6C167.5,202.5,165.7,200.1,163.1,200.1z M154.9,186.9h-36.7l-6-7.9H95.3c-2.5,0-4.6,2.1-4.6,4.6l0,0v6.7h68.7
			C158.8,188.3,157,186.9,154.9,186.9z M163.5,197.9l0.2-2H86.3l0.2,2H163.5z M161.9,194.2l0.3-2.1H87.8l0.3,2.1H161.9z"/>
		
			<linearGradient id="SVGID_1_" gradientUnits="userSpaceOnUse" x1="125" y1="134.5655" x2="125" y2="63.2455" gradientTransform="matrix(1 0 0 -1 0 247.9055)">
			<stop  offset="0" style="stop-color:#2B75C8"/>
			<stop  offset="1" style="stop-color:#2B75C8;stop-opacity:0"/>
		</linearGradient>
		<polygon class="st4" points="125,113.3 101,144.2 115.4,144.2 117.7,184.7 125,184.7 132.3,184.7 134.6,144.2 149,144.2 		"/>
		
			<linearGradient id="SVGID_2_" gradientUnits="userSpaceOnUse" x1="125" y1="165.9055" x2="125" y2="145.9055" gradientTransform="matrix(1 0 0 -1 0 247.9055)">
			<stop  offset="0" style="stop-color:#2B75C8"/>
			<stop  offset="1" style="stop-color:#2B75C8;stop-opacity:0"/>
		</linearGradient>
		<polygon class="st5" points="125,82 107.1,93.7 117.9,93.7 119.3,102 125,102 130.7,102 132.1,93.7 142.9,93.7 		"/>
	</g>
</g>
</svg>
