<svg xmlns="http://www.w3.org/2000/svg" viewBox="0 0 250 251"><defs><style>.cls-1,.cls-2,.cls-4,.cls-6{fill:#2b75c8;}.cls-1{opacity:0.05;}.cls-2{opacity:0.2;}.cls-10,.cls-3,.cls-8{fill:none;}.cls-10,.cls-11,.cls-3,.cls-8{stroke:#2b75c8;stroke-miterlimit:10;}.cls-3{stroke-width:5px;}.cls-4{opacity:0.4;}.cls-5{font-size:12.27px;font-family:PingFang-SC-Heavy, PingFang SC;}.cls-11,.cls-5,.cls-9{fill:#fff;}.cls-7{opacity:0.6;}.cls-10{opacity:0.5;}</style></defs><title>资源 2</title><g id="图层_2" data-name="图层 2"><g id="图层_1-2" data-name="图层 1"><circle class="cls-1" cx="125" cy="125" r="125"/><rect class="cls-2" x="49" y="12" width="153" height="97" rx="5.96" ry="5.96"/><rect class="cls-3" x="48.5" y="11" width="153" height="97" rx="5.96" ry="5.96"/><rect class="cls-4" x="72.23" y="177" width="105.55" height="54"/><rect class="cls-4" x="75.91" y="180.68" width="98.18" height="46.64"/><text class="cls-5" transform="translate(86.55 198.27)">iu//</text><text class="cls-5" transform="translate(86.55 215.45)"><tspan xml:space="preserve">ahs.4      ./&gt;</tspan></text><path class="cls-6" d="M109,177c2,4,2,6,1,10s2,19,6,25c2,3,1,4,1,4s2-4,4-3-1,2-1,2,5,0,6-2v2a4.37,4.37,0,0,0,4-3,7.74,7.74,0,0,1,1,3s0,1,2-2,6-13,7-21,3-18-10-18C122,174,113,181,109,177Z"/><path class="cls-6" d="M109.67,196.93s-1.21-1.87-2.09-.77-.1,8.06,3.87,7.61A32.15,32.15,0,0,1,109.67,196.93Z"/><path class="cls-6" d="M140.25,197.43s1.21-1.88,2.1-.78.14,8.06-3.84,7.64A32,32,0,0,0,140.25,197.43Z"/><path class="cls-6" d="M130,216a15,15,0,0,1-6,1,12.6,12.6,0,0,1-6-1s1,9,0,11-15,6-20,9c-5,10-6,15-6,15h68s-4-13-6-15-23-7-24-9C128.77,224.54,130,216,130,216Z"/><g class="cls-7"><line class="cls-8" x1="85" y1="11.5" x2="85" y2="108"/><line class="cls-8" x1="125" y1="11.5" x2="125" y2="108"/><line class="cls-8" x1="165" y1="11.5" x2="165" y2="108"/></g><rect class="cls-6" x="112" y="45" width="25" height="25"/><rect class="cls-9" x="122" y="55" width="5" height="5"/><rect class="cls-6" x="77.01" y="74.01" width="16.97" height="16.97" transform="translate(-33.29 84.62) rotate(-45)"/><rect class="cls-9" x="83.8" y="80.8" width="3.39" height="3.39" transform="translate(-33.29 84.62) rotate(-45)"/><circle class="cls-6" cx="84.5" cy="35.5" r="9.5"/><circle class="cls-9" cx="84.5" cy="35.5" r="2.5"/><circle class="cls-6" cx="165.5" cy="82.5" r="9.5"/><circle class="cls-9" cx="165.5" cy="82.5" r="2.5"/><circle class="cls-6" cx="116" cy="83" r="4"/><circle class="cls-9" cx="116" cy="83" r="1.05"/><circle class="cls-6" cx="106" cy="165" r="4"/><circle class="cls-9" cx="106" cy="165" r="1.05"/><circle class="cls-6" cx="147" cy="99" r="4"/><circle class="cls-9" cx="147" cy="99" r="1.05"/><path class="cls-6" d="M164.78,25.2A6.79,6.79,0,0,0,158,32h13.58A6.79,6.79,0,0,0,164.78,25.2Z"/><path class="cls-6" d="M162,34.62a1.53,1.53,0,0,0,1.53-1.53h-3.06A1.53,1.53,0,0,0,162,34.62Z"/><path class="cls-6" d="M168,34.62a1.54,1.54,0,0,0,1.54-1.53h-3.07A1.54,1.54,0,0,0,168,34.62Z"/><path class="cls-6" d="M158,35.35h13.58s1.19,1.58-.4,3.79c-2.08,2.89-3.17,3.66,0,6.5C171.75,46.12,158,48.71,158,35.35Z"/><polyline class="cls-8" points="105.67 161.5 105.67 83 113 83"/><polyline class="cls-10" points="112.5 59.5 68.67 59.5 68.67 196 72.23 196"/><line class="cls-8" x1="147" y1="103" x2="147" y2="200"/><circle class="cls-11" cx="69" cy="60" r="1.5"/></g></g></svg>