<?xml version="1.0" encoding="utf-8"?>
<!-- Generator: Adobe Illustrator 16.0.0, SVG Export Plug-In . SVG Version: 6.00 Build 0)  -->
<!DOCTYPE svg PUBLIC "-//W3C//DTD SVG 1.0//EN" "http://www.w3.org/TR/2001/REC-SVG-20010904/DTD/svg10.dtd">
<svg version="1.0" id="图层_1" xmlns="http://www.w3.org/2000/svg" xmlns:xlink="http://www.w3.org/1999/xlink" x="0px" y="0px"
	 width="30px" height="30px" viewBox="0 0 20 20" enable-background="new 0 0 20 20" xml:space="preserve">
<path fill="#1C374B" d="M9.818,1.094c-3.187,0-5.771,2.583-5.771,5.771H15.59C15.59,3.677,13.006,1.094,9.818,1.094z"/>
<path fill="#1C374B" d="M7.486,9.1c0.72,0,1.303-0.584,1.303-1.303H6.183C6.183,8.516,6.767,9.1,7.486,9.1z"/>
<path fill="#1C374B" d="M12.513,9.1c0.72,0,1.304-0.584,1.304-1.303h-2.607C11.209,8.516,11.793,9.1,12.513,9.1z"/>
<path fill="#1C374B" d="M4.047,9.72H15.59c0,0,1.012,1.345-0.346,3.226c-1.769,2.452-2.695,3.104,0.035,5.523
	C15.738,18.876,4.047,21.076,4.047,9.72z"/>
</svg>
