<?xml version="1.0" encoding="utf-8"?>
<!-- Generator: Adobe Illustrator 16.0.0, SVG Export Plug-In . SVG Version: 6.00 Build 0)  -->
<!DOCTYPE svg PUBLIC "-//W3C//DTD SVG 1.1//EN" "http://www.w3.org/Graphics/SVG/1.1/DTD/svg11.dtd">
<svg version="1.1" id="图层_1" xmlns="http://www.w3.org/2000/svg" xmlns:xlink="http://www.w3.org/1999/xlink" x="0px" y="0px"
	 width="20px" height="20px" viewBox="0 0 20 20" enable-background="new 0 0 20 20" xml:space="preserve">
<path d="M17.007,9.877l-14,0.002c-0.632,0-0.669-0.092-0.82-0.265C1.888,9.273,1.905,8.847,2.665,8.258l6.662-5.838
	c0.197-0.141,0.396-0.417,0.648-0.417h0.105c0.252,0,0.451,0.218,0.648,0.359l6.599,5.893c0.636,0.398,0.874,1.057,0.478,1.447
	C17.61,9.893,17.596,9.877,17.007,9.877z"/>
<path d="M15.489,7.291c-1.66-1.296-2.348-1.907-4.187-3.331c-0.139-0.107-1.284-0.976-1.284-0.976S9.001,3.823,8.789,3.993
	C6.895,5.503,6.295,5.949,4.631,7.256C4.184,7.608,4.206,7.623,4.206,7.623v7.905c0,1.013,0.536,1.469,1.389,1.469h1.418
	l0.838-0.005v-4.989c0-0.551,0.333-0.717,0.754-0.717h2.888c0.375,0,0.703,0.15,0.703,0.746v4.954l0.631,0.011h1.627
	c0.898,0,1.389-0.511,1.389-1.386V7.585C15.843,7.585,15.857,7.578,15.489,7.291z"/>
</svg>
