<?xml version="1.0" encoding="utf-8"?>
<!-- Generator: Adobe Illustrator 22.0.0, SVG Export Plug-In . SVG Version: 6.00 Build 0)  -->
<svg version="1.1" id="图层_1" xmlns="http://www.w3.org/2000/svg" xmlns:xlink="http://www.w3.org/1999/xlink" x="0px" y="0px"
	 viewBox="0 0 20 20" style="enable-background:new 0 0 20 20;" xml:space="preserve">
<style type="text/css">
	.st0{fill-rule:evenodd;clip-rule:evenodd;fill:#040000;}
</style>
<g>
	<path class="st0" d="M13.8,8.2h-3v2h3c0.3,0,0.5-0.1,0.6-0.2c0.1-0.2,0.2-0.4,0.2-0.8c0-0.3-0.1-0.6-0.2-0.7
		C14.2,8.3,14,8.2,13.8,8.2z"/>
	<path class="st0" d="M17.1,2.2H3.2C2.7,2.2,2.3,2.6,2.3,3V17c0,0.5,0.4,0.9,0.9,0.9h13.9c0.5,0,0.9-0.4,0.9-0.9V3
		C18,2.6,17.6,2.2,17.1,2.2z M7.6,13.4H6.1V6.7h1.6V13.4z M15.8,10.9c-0.1,0.3-0.2,0.5-0.4,0.6c-0.2,0.1-0.3,0.2-0.5,0.3
		c-0.2,0-0.4,0.1-0.8,0.1h-3.3v1.7H9.2V6.7h4.9c0.5,0,0.8,0.1,1,0.2s0.4,0.3,0.5,0.5s0.2,0.4,0.2,0.6c0,0.2,0.1,0.5,0.1,0.8
		c0,0.3,0,0.7,0,1C15.9,10.2,15.9,10.6,15.8,10.9z"/>
</g>
</svg>
