<?xml version="1.0" standalone="no"?><!DOCTYPE svg PUBLIC "-//W3C//DTD SVG 1.1//EN" "http://www.w3.org/Graphics/SVG/1.1/DTD/svg11.dtd"><svg t="1527501959177" class="icon" style="" viewBox="0 0 1024 1024" version="1.1" xmlns="http://www.w3.org/2000/svg" p-id="3194" xmlns:xlink="http://www.w3.org/1999/xlink" width="32" height="32"><defs><style type="text/css"></style></defs><path d="M351.044326 114.003255a170.681265 170.681265 0 0 1 321.911348 0H910.123576a56.874797 56.874797 0 0 1 56.874797 56.874796v796.247152a56.874797 56.874797 0 0 1-56.874797 56.874797H113.876424a56.874797 56.874797 0 0 1-56.874797-56.874797V170.878051a56.874797 56.874797 0 0 1 56.874797-56.874796h237.167902zM512 227.752848a56.874797 56.874797 0 1 0 0-113.749593 56.874797 56.874797 0 0 0 0 113.749593zM227.626017 398.377238v113.749593h568.747966V398.377238H227.626017z m0 284.373983v113.749593h568.747966v-113.749593H227.626017z" p-id="3195"></path></svg>