<?xml version="1.0" encoding="utf-8"?>
<!-- Generator: Adobe Illustrator 16.0.0, SVG Export Plug-In . SVG Version: 6.00 Build 0)  -->
<!DOCTYPE svg PUBLIC "-//W3C//DTD SVG 1.0//EN" "http://www.w3.org/TR/2001/REC-SVG-20010904/DTD/svg10.dtd">
<svg version="1.0" id="图层_1" xmlns="http://www.w3.org/2000/svg" xmlns:xlink="http://www.w3.org/1999/xlink" x="0px" y="0px"
	 width="20px" height="20px" viewBox="0 0 20 20" enable-background="new 0 0 20 20" xml:space="preserve">
<path fill-rule="evenodd" clip-rule="evenodd" fill="#1C374B" d="M17.659,18.896h-0.921V1.096h0.921c0.509,0,0.921,0.413,0.921,0.92
	v15.962C18.58,18.486,18.168,18.896,17.659,18.896"/>
<path fill-rule="evenodd" clip-rule="evenodd" fill="#1C374B" d="M3.263,17.978v-0.921h1.535c1.018,0,1.842-0.824,1.842-1.842
	c0-1.015-0.825-1.841-1.842-1.841H3.263v-1.535h1.535c1.018,0,1.842-0.824,1.842-1.842S5.815,8.155,4.798,8.155H3.263V6.62h1.535
	c1.018,0,1.842-0.824,1.842-1.842c0-1.016-0.825-1.84-1.842-1.84H3.263V2.016c0-0.507,0.413-0.92,0.921-0.92h11.954v17.801H4.185
	C3.676,18.896,3.263,18.486,3.263,17.978"/>
<path fill-rule="evenodd" clip-rule="evenodd" fill="#1C374B" d="M5.718,4.778c0,0.51-0.412,0.922-0.92,0.922H2.341
	c-0.509,0-0.92-0.412-0.92-0.922c0-0.508,0.412-0.92,0.92-0.92h2.457C5.307,3.857,5.718,4.27,5.718,4.778"/>
<path fill-rule="evenodd" clip-rule="evenodd" fill="#1C374B" d="M2.341,9.077h2.457c0.509,0,0.92,0.412,0.92,0.92
	c0,0.508-0.412,0.92-0.92,0.92H2.341c-0.509,0-0.92-0.412-0.92-0.92C1.421,9.489,1.833,9.077,2.341,9.077"/>
<path fill-rule="evenodd" clip-rule="evenodd" fill="#1C374B" d="M2.341,14.293h2.457c0.509,0,0.92,0.413,0.92,0.922
	s-0.412,0.922-0.92,0.922H2.341c-0.509,0-0.92-0.413-0.92-0.922S1.833,14.293,2.341,14.293"/>
<path fill="#FFFFFF" d="M13.758,15.137l1.579-2.365H14.35l0,0V10.8c0-0.178-0.079-0.345-0.215-0.457l-4.121-3.372v-1.69
	c0-0.326-0.264-0.592-0.591-0.592c-0.326,0-0.591,0.266-0.591,0.592v1.971c0,0.177,0.081,0.345,0.217,0.457l4.119,3.371v1.691l0,0
	h-0.984L13.758,15.137z"/>
<path fill="#FFFFFF" d="M10.544,12.771H9.559l0,0V11.08l4.119-3.371c0.137-0.112,0.218-0.28,0.218-0.457V5.281
	c0-0.326-0.265-0.592-0.59-0.592c-0.329,0-0.593,0.266-0.593,0.592v1.69l-4.121,3.372c-0.135,0.112-0.215,0.279-0.215,0.457v1.971
	l0,0H7.391l1.578,2.365L10.544,12.771z"/>
</svg>
