<?xml version="1.0" encoding="utf-8"?>
<!-- Generator: Adobe Illustrator 16.0.0, SVG Export Plug-In . SVG Version: 6.00 Build 0)  -->
<!DOCTYPE svg PUBLIC "-//W3C//DTD SVG 1.1//EN" "http://www.w3.org/Graphics/SVG/1.1/DTD/svg11.dtd">
<svg version="1.1" id="图层_1" xmlns="http://www.w3.org/2000/svg" xmlns:xlink="http://www.w3.org/1999/xlink" x="0px" y="0px"
	 width="180px" height="30px" viewBox="0 0 180 30" enable-background="new 0 0 180 30" xml:space="preserve">
<g>
	<path d="M2.335,6.445h12.547v3.271h-4.616v14.158H6.868V9.716H2.335V6.445z M16.228,6.008h3.242v6.279
		c0.638-0.545,1.28-0.954,1.926-1.226c0.646-0.272,1.3-0.41,1.962-0.41c1.292,0,2.381,0.443,3.266,1.328
		c0.758,0.767,1.137,1.892,1.137,3.377v8.518h-3.218v-5.65c0-1.494-0.071-2.505-0.215-3.034c-0.144-0.528-0.389-0.923-0.735-1.185
		c-0.348-0.26-0.776-0.39-1.286-0.39c-0.662,0-1.231,0.217-1.705,0.651s-0.804,1.026-0.988,1.777
		c-0.095,0.386-0.143,1.271-0.143,2.653v5.177h-3.242V6.008z M36.013,10.651c0.237-0.011,0.866-0.054,1.329,0.167l-0.179,2.618
		c-0.463-0.038-1.359-0.009-1.784,0.047c-0.498,0.065-0.927,0.308-1.274,0.924c-0.347,0.616-0.52,1.824-0.52,3.625l0.011,0.628
		v5.213h-3.242v-12.89h2.8v1.125C33.154,12.109,33.729,10.901,36.013,10.651z M51.724,15.153l-9.435,4.545
		c0.541,0.759,1.227,1.238,2.058,1.439c0.83,0.202,1.705,0.082,2.623-0.361c1.098-0.528,1.968-1.477,2.383-2.617l2.74,0.885
		c-0.228,0.91-0.428,1.347-1.085,2.177s-1.576,1.644-2.76,2.214c-1.836,0.885-3.614,0.917-5.332,0.327
		c-1.718-0.59-3.001-1.749-3.849-3.475c-0.869-1.768-1.014-3.514-0.438-5.237c0.577-1.722,1.734-3.002,3.469-3.839
		c1.843-0.888,3.629-1.026,5.358-0.414c1.729,0.612,3.064,1.877,4.006,3.795L51.724,15.153z M47.661,14.277
		c-0.511-0.553-1.152-0.894-1.922-1.023c-0.77-0.13-1.532-0.013-2.287,0.35c-0.819,0.395-1.425,0.968-1.82,1.72
		c-0.248,0.472-0.361,1.145-0.339,2.021L47.661,14.277z M63.644,22.512c-0.638,0.6-1.277,1.033-1.918,1.297
		c-0.642,0.265-1.337,0.397-2.086,0.397c-1.68,0-3.135-0.645-4.361-1.938c-1.227-1.291-1.84-2.896-1.84-4.816
		c0-1.99,0.594-3.621,1.781-4.893c1.187-1.272,2.629-1.909,4.326-1.909c0.78,0,1.513,0.147,2.198,0.439
		c0.685,0.292,1.318,0.731,1.9,1.315v-1.422h3.266v12.89 M60.21,13.638c-1.01,0-1.848,0.354-2.516,1.061
		c-0.668,0.707-1.001,1.613-1.001,2.719c0,1.114,0.339,2.03,1.019,2.748c0.68,0.719,1.516,1.079,2.51,1.079
		c1.026,0,1.875-0.354,2.552-1.06c0.675-0.708,1.013-1.633,1.013-2.779c0-1.122-0.338-2.03-1.013-2.725
		C62.098,13.985,61.244,13.638,60.21,13.638z M70.606,7.829l3.267-1.596v4.751h1.938v2.784h-1.938v10.106h-3.267V13.768h-1.674
		v-2.784h1.674V7.829z M99.444,10.651c1.227,0,2.382,0.305,3.463,0.913c1.081,0.608,1.924,1.434,2.53,2.477
		c0.606,1.042,0.909,2.167,0.909,3.376c0,1.216-0.306,2.354-0.915,3.412c-0.61,1.059-1.442,1.886-2.495,2.482
		c-1.052,0.596-2.213,0.895-3.481,0.895c-1.866,0-3.46-0.658-4.779-1.973c-1.321-1.315-1.98-2.913-1.98-4.792
		c0-2.015,0.745-3.693,2.236-5.035C96.241,11.237,97.744,10.651,99.444,10.651z M99.497,13.697c-1.015,0-1.86,0.35-2.535,1.049
		s-1.013,1.593-1.013,2.684c0,1.122,0.334,2.03,1.001,2.725c0.667,0.695,1.512,1.042,2.535,1.042c1.022,0,1.873-0.352,2.552-1.054
		c0.679-0.703,1.018-1.608,1.018-2.713s-0.333-2.003-1-2.695C101.388,14.043,100.536,13.697,99.497,13.697z M114.523,10.651
		c1.229,0,2.383,0.305,3.464,0.913c1.08,0.608,1.924,1.434,2.529,2.477c0.607,1.042,0.91,2.167,0.91,3.376
		c0,1.216-0.305,2.354-0.915,3.412c-0.61,1.059-1.442,1.886-2.496,2.482c-1.052,0.596-2.213,0.895-3.481,0.895
		c-1.866,0-3.459-0.658-4.779-1.973c-1.32-1.315-1.979-2.913-1.979-4.792c0-2.015,0.745-3.693,2.237-5.035
		C111.321,11.237,112.824,10.651,114.523,10.651z M114.577,13.697c-1.014,0-1.859,0.35-2.534,1.049s-1.013,1.593-1.013,2.684
		c0,1.122,0.333,2.03,1,2.725c0.667,0.695,1.512,1.042,2.535,1.042c1.022,0,1.873-0.352,2.552-1.054
		c0.68-0.703,1.019-1.608,1.019-2.713s-0.333-2.003-1-2.695C116.468,14.043,115.616,13.697,114.577,13.697z M122.708,6.008h3.267
		v10.291l4.809-5.314l2.965,1.365l-4.471,4.813l6.278,6.712h-4.055l-5.527-5.941v5.941h-3.267V6.008z M79.065,23.759V5.794h3.008
		c1.745,0,3.021,0.106,3.828,0.318c1.146,0.285,2.058,0.814,2.735,1.587s1.016,1.686,1.016,2.736c0,0.684-0.154,1.304-0.462,1.862
		c-0.308,0.558-0.809,1.081-1.502,1.57c1.162,0.513,2.011,1.154,2.549,1.923c0.537,0.77,0.807,1.68,0.807,2.729
		c0,1.01-0.278,1.93-0.834,2.76c-0.555,0.83-1.271,1.452-2.147,1.863c-0.877,0.411-2.088,0.617-3.633,0.617H79.065z M82.158,8.872
		v3.969h1.346c0.888,0,1.547-0.175,1.978-0.525c0.431-0.35,0.646-0.826,0.646-1.429c0-0.562-0.205-1.19-0.614-1.52
		c-0.41-0.329-1.031-0.495-1.867-0.495H82.158z M82.158,15.894v4.604h1.462c1.513,0,2.532-0.178,3.059-0.538
		c0.525-0.358,0.789-0.879,0.789-1.563c0-0.774-0.309-1.384-0.926-1.832c-0.617-0.448-1.643-0.672-3.078-0.672H82.158z"/>
</g>
<g>
	<path d="M168.25,7.893c-0.156-0.124-0.335-0.208-0.538-0.255c-0.202-0.045-0.418-0.069-0.648-0.069h-2.549v3.253h2.522
		c0.193,0,0.39-0.028,0.593-0.083c0.202-0.055,0.388-0.145,0.558-0.269c0.17-0.124,0.308-0.29,0.414-0.497
		c0.105-0.207,0.158-0.466,0.158-0.779c0-0.321-0.046-0.588-0.138-0.799C168.529,8.185,168.405,8.017,168.25,7.893z"/>
	<path d="M175.833,4.167H144.5c-1.104,0-2,0.896-2,2V16c0,1.104,0.896,2,2,2h31.333c1.104,0,2-0.896,2-2V6.167
		C177.833,5.063,176.938,4.167,175.833,4.167z M157.817,7.652h-3.128v8.352h-1.723V7.652h-3.115V6.164h7.966V7.652z M160.684,16.004
		h-1.723v-9.84h1.723V16.004z M170.351,10.195c-0.087,0.354-0.25,0.682-0.489,0.985c-0.239,0.304-0.579,0.554-1.02,0.751
		c-0.441,0.198-1.011,0.296-1.709,0.296h-2.618v3.776h-1.723v-9.84h4.341c0.698,0,1.268,0.101,1.709,0.303
		c0.441,0.202,0.781,0.455,1.02,0.758c0.239,0.304,0.402,0.634,0.489,0.993c0.087,0.358,0.131,0.688,0.131,0.992
		C170.482,9.513,170.438,9.841,170.351,10.195z"/>
</g>
</svg>
