<?xml version="1.0" encoding="utf-8"?>
<!-- Generator: Adobe Illustrator 22.0.0, SVG Export Plug-In . SVG Version: 6.00 Build 0)  -->
<svg version="1.1" id="图层_1" xmlns="http://www.w3.org/2000/svg" xmlns:xlink="http://www.w3.org/1999/xlink" x="0px" y="0px"
	 viewBox="0 0 20 20" style="enable-background:new 0 0 20 20;" xml:space="preserve">
<style type="text/css">
	.st0{fill:#1B1B1B;}
</style>
<g id="形状_1">
	<g>
		<path class="st0" d="M14.6,10c0-2.2,1.8-3.2,1.8-3.2c-1-1.5-2.6-1.7-3.1-1.7C12,5,10.8,5.9,10.1,5.9c-0.7,0-1.7-0.8-2.8-0.7
			C5.9,5.2,4.5,6,3.8,7.3c-1.5,2.6-0.4,6.5,1.1,8.6c0.7,1,1.6,2.2,2.7,2.1c1.1,0,1.5-0.7,2.8-0.7c1.3,0,1.7,0.7,2.8,0.7
			c1.2,0,1.9-1.1,2.6-2.1c0.8-1.2,1.2-2.4,1.2-2.4C16.9,13.5,14.7,12.6,14.6,10z M12.5,3.7C13.1,3,13.5,2,13.4,1
			c-0.9,0-1.9,0.6-2.5,1.3c-0.5,0.6-1,1.7-0.9,2.6C10.9,5,11.9,4.4,12.5,3.7z"/>
	</g>
</g>
</svg>
