<?xml version="1.0" standalone="no"?><!DOCTYPE svg PUBLIC "-//W3C//DTD SVG 1.1//EN" "http://www.w3.org/Graphics/SVG/1.1/DTD/svg11.dtd"><svg t="1526035348013" class="icon" style="" viewBox="0 0 1024 1024" version="1.1" xmlns="http://www.w3.org/2000/svg" p-id="3949" xmlns:xlink="http://www.w3.org/1999/xlink" width="32" height="32"><defs><style type="text/css"></style></defs><path d="M652.704 418.336c1.472-11.264 2.56-22.72 2.56-34.336s-1.088-23.04-2.56-34.336l76.512-58.24a17.248 17.248 0 0 0 4.352-22.528l-72.352-121.952a18.144 18.144 0 0 0-22.08-7.584l-90.08 35.392a276.448 276.448 0 0 0-61.12-34.688l-13.568-93.28A18.464 18.464 0 0 0 456.256 32H311.552a18.112 18.112 0 0 0-17.92 14.784l-13.568 93.28c-22.08 8.96-42.496 20.576-61.12 34.688L128.864 139.36a18.336 18.336 0 0 0-22.08 7.584L34.432 268.896a17.312 17.312 0 0 0 4.352 22.528l76.32 58.24c-1.44 11.264-2.56 22.72-2.56 34.336s1.12 23.04 2.56 34.336l-76.32 58.24a17.248 17.248 0 0 0-4.352 22.528l72.352 121.952c4.512 7.584 13.92 10.752 22.08 7.584l90.08-35.392a276.448 276.448 0 0 0 61.12 34.688l13.568 93.28a18.112 18.112 0 0 0 17.92 14.784h144.704a18.112 18.112 0 0 0 17.92-14.784l13.568-93.28a269.504 269.504 0 0 0 61.12-34.688l90.112 35.392c8.128 2.976 17.536 0 22.08-7.584l72.32-121.952a17.312 17.312 0 0 0-4.32-22.528l-76.352-58.24z m-268.8 88.864C313.92 507.2 257.28 452.096 257.28 384s56.64-123.2 126.624-123.2c70.016 0 126.624 55.104 126.624 123.2s-56.64 123.2-126.624 123.2zM946.56 818.72c0.8-6.144 1.408-12.384 1.408-18.72 0-6.336-0.608-12.576-1.408-18.72l41.76-31.776a9.408 9.408 0 0 0 2.368-12.288l-39.488-66.528a9.92 9.92 0 0 0-12.032-4.128l-49.12 19.296a150.784 150.784 0 0 0-33.376-18.912l-7.36-50.88a10.08 10.08 0 0 0-9.92-8.064h-78.912a9.888 9.888 0 0 0-9.76 8.064l-7.392 50.88a147.008 147.008 0 0 0-33.376 18.912l-49.12-19.296a10.016 10.016 0 0 0-12.032 4.128l-39.488 66.528a9.44 9.44 0 0 0 2.368 12.288l41.664 31.776a146.688 146.688 0 0 0-1.408 18.72c0 6.336 0.608 12.576 1.408 18.72l-41.664 31.776a9.408 9.408 0 0 0-2.368 12.288l39.488 66.528a9.92 9.92 0 0 0 12.032 4.128l49.12-19.296c10.176 7.584 21.312 14.016 33.376 18.912l7.36 50.88a9.888 9.888 0 0 0 9.792 8.064h78.944c4.928 0 8.96-3.552 9.76-8.064l7.392-50.88a147.008 147.008 0 0 0 33.344-18.912l49.152 19.296c4.448 1.632 9.6 0 12.032-4.128l39.488-66.528a9.44 9.44 0 0 0-2.368-12.288l-41.664-31.776zM799.936 867.2c-38.176 0-69.056-30.048-69.056-67.2s30.88-67.2 69.056-67.2c38.208 0 69.088 30.048 69.088 67.2s-30.88 67.2-69.088 67.2z" p-id="3950"></path></svg>