<?xml version="1.0" standalone="no"?><!DOCTYPE svg PUBLIC "-//W3C//DTD SVG 1.1//EN" "http://www.w3.org/Graphics/SVG/1.1/DTD/svg11.dtd"><svg t="1531470584028" class="icon" style="" viewBox="0 0 1024 1024" version="1.1" xmlns="http://www.w3.org/2000/svg" p-id="22053" xmlns:xlink="http://www.w3.org/1999/xlink" width="200" height="200"><defs><style type="text/css"></style></defs><path d="M758.320265 253.416867L535.027349 30.123952H65.607398c-16.635373 0-30.123952 13.488578-30.123952 30.123952v903.534265c0 16.635373 13.488578 30.123952 30.123952 30.123951h662.588915c16.635373 0 30.123952-13.488578 30.123952-30.123951V253.431518zM65.622048 0h481.876048l240.94535 240.945349v722.822169c0 33.269976-26.962506 60.232482-60.232482 60.232482H65.622048c-33.269976 0-60.232482-26.962506-60.232482-60.232482V60.233253c0-33.269976 26.962506-60.232482 60.232482-60.232482z" p-id="22054"></path><path d="M547.498096 240.945349h210.822169l30.123952 30.123952H517.389566v-271.05465l30.123952 30.123951zM421.118916 345.905349l210.615518 361.77735c2.56694 4.343518 4.08906 9.560675 4.08906 15.153349 0 16.635373-13.488578 30.123952-30.123952 30.123952H184.490096c-16.632289-0.003855-30.102361-13.490892-30.102361-30.123952a30.041446 30.041446 0 0 1 4.163084-15.291373l-0.074024 0.137253 210.615518-361.77735c5.316627-9.010892 14.975229-14.959036 26.027952-14.959036s20.696675 5.948145 25.939277 14.807133l0.074024 0.137253zM396.909181 692.712867c0.404819 0.015422 0.892916 0.023904 1.368674 0.023904 16.635373 0 30.123952-13.488578 30.123952-30.123952s-13.488578-30.123952-30.123952-30.123952c-0.459566 0-0.916819 0.007711-1.38718 0.023904l0.064771-0.001542c-16.058602 0.719422-28.801542 13.911133-28.801542 30.08694 0 16.144193 12.716723 29.32588 28.673542 30.083084l0.067084 0.002313z m30.123952-120.480385V481.876048c0-18.883084-13.457735-30.123952-30.123952-30.123952-16.628434 0-30.123952 11.240867-30.123952 30.123952v90.356434c0 18.920867 13.495518 30.123952 30.123952 30.123952s30.123952-11.203084 30.123952-30.123952z" p-id="22055"></path></svg>