<?xml version="1.0" encoding="utf-8"?>
<!-- Generator: Adobe Illustrator 22.0.1, SVG Export Plug-In . SVG Version: 6.00 Build 0)  -->
<svg version="1.1" id="图层_1" xmlns="http://www.w3.org/2000/svg" xmlns:xlink="http://www.w3.org/1999/xlink" x="0px" y="0px"
	 viewBox="0 0 32 32" style="enable-background:new 0 0 32 32;" xml:space="preserve">
<style type="text/css">
	.st0{fill:none;}
</style>
<title>恶意服务器</title>
<desc>Created with Sketch.</desc>
<circle id="Oval" class="st0" cx="7" cy="14" r="2"/>
<circle id="Oval_1_" class="st0" cx="7" cy="5" r="2"/>
<circle id="Oval_2_" class="st0" cx="7" cy="14" r="2"/>
<circle id="Oval_3_" class="st0" cx="7" cy="5" r="2"/>
<g>
	<path d="M21.6,19.5c0.8,0,1.5-0.7,1.5-1.5H20C20.1,18.8,20.7,19.5,21.6,19.5z"/>
	<path d="M27.6,19.5c0.8,0,1.5-0.7,1.5-1.5H26C26.1,18.8,26.8,19.5,27.6,19.5z"/>
	<path d="M23.9,10c-3.8,0-6.9,3.1-6.9,7h13.8C30.8,13.2,27.8,10,23.9,10z"/>
	<path d="M30.4,20H17c0,13.5,13.6,11,13.1,10.5c-3.3-3-2.2-3.8-0.1-6.6C31.6,21.6,30.4,20,30.4,20z"/>
	<path d="M30,1H2v8h28V1z M7,7C5.9,7,5,6.1,5,5s0.9-2,2-2s2,0.9,2,2S8.1,7,7,7z"/>
	<path d="M16,17c0-3,1.7-5.6,4.1-7H2v8h14V17z M7,16c-1.1,0-2-0.9-2-2c0-1.1,0.9-2,2-2s2,0.9,2,2C9,15.1,8.1,16,7,16z"/>
	<path d="M16,22v-3H2v12h19.7C18.3,29.4,16,26,16,22z"/>
</g>
</svg>
