<?xml version="1.0" standalone="no"?><!DOCTYPE svg PUBLIC "-//W3C//DTD SVG 1.1//EN" "http://www.w3.org/Graphics/SVG/1.1/DTD/svg11.dtd"><svg t="1517216271489" class="icon" style="" viewBox="0 0 1024 1024" version="1.1" xmlns="http://www.w3.org/2000/svg" p-id="1438" xmlns:xlink="http://www.w3.org/1999/xlink" width="200" height="200"><defs><style type="text/css"></style></defs><path d="M999.09850453 783.85303703L575.38059378 110.71384842C562.64233718 90.58118922 538.90568343 77.03514075 511.75144865 77.03514075s-50.95302637 13.54604848-63.62914513 33.67870767L24.40439277 783.85303703a62.44852622 62.44852622 0 0 0 0 67.35741535c13.60818631 21.56182945 38.27690762 33.61656983 63.62914513 33.61656984h847.43582151c25.35223751 0 50.02095882-12.05474038 63.62914512-33.61656984 13.60818631-21.62396729 12.67611875-47.22475615 0-67.35741535zM512 822.68918518c-36.59918602 0-66.30107212-27.77561315-66.30107212-62.13783703s29.7018861-62.13783703 66.30107212-62.13783704 66.23893428 27.77561315 66.23893428 62.13783704-29.63974827 62.13783703-66.23893428 62.13783703z m66.23893428-248.55134815c0 34.36222388-29.7018861 62.13783703-66.23893428 62.13783705-36.59918602 0-66.30107212-27.77561315-66.30107212-62.13783705V325.58648889c0-34.30008605 29.7018861-62.13783703 66.30107212-62.13783704s66.23893428 27.83775099 66.23893428 62.13783704v248.55134814z" p-id="1439"></path></svg>