<?xml version="1.0" encoding="utf-8"?>
<!-- Generator: Adobe Illustrator 16.0.0, SVG Export Plug-In . SVG Version: 6.00 Build 0)  -->
<!DOCTYPE svg PUBLIC "-//W3C//DTD SVG 1.0//EN" "http://www.w3.org/TR/2001/REC-SVG-20010904/DTD/svg10.dtd">
<svg version="1.0" id="图层_1" xmlns="http://www.w3.org/2000/svg" xmlns:xlink="http://www.w3.org/1999/xlink" x="0px" y="0px"
	 width="20px" height="20px" viewBox="0 0 20 20" enable-background="new 0 0 20 20" xml:space="preserve">
<g>
	<path fill="#1C374B" d="M-0.063,15.044h1.385c0,0,0.432,1.303,1.528,1.303c1.096,0,13.096,0,13.096,0v-1.777H9.896
		c0,0-0.383-0.26,0-0.575h7.633V11.97h-6.582c0,0-0.646-0.308-0.019-0.794h8.091V9.154H9.896c0,0-0.279-0.243,0-0.522h7.347V6.751
		H7.667c0,0-0.487-0.348,0-0.696h1.95c0,0,2.056-0.072,2.056-2.403H5.267c0,0-0.42-0.035-0.873,0.453L2.078,6.421
		c0,0-0.275,0.331-0.888,0.331c-0.8,0-1.253,0-1.253,0V15.044z"/>
</g>
<circle fill="#1C374B" cx="17.328" cy="7.685" r="0.933"/>
<circle fill="#1C374B" cx="18.981" cy="10.159" r="1.003"/>
<circle fill="#1C374B" cx="17.479" cy="12.97" r="1.004"/>
<circle fill="#1C374B" cx="15.794" cy="15.458" r="0.89"/>
</svg>
