<?xml version="1.0" encoding="utf-8"?>
<!-- Generator: Adobe Illustrator 22.0.1, SVG Export Plug-In . SVG Version: 6.00 Build 0)  -->
<svg version="1.1" id="图层_1" xmlns="http://www.w3.org/2000/svg" xmlns:xlink="http://www.w3.org/1999/xlink" x="0px" y="0px"
	 viewBox="0 0 36 36" style="enable-background:new 0 0 36 36;" xml:space="preserve">
<path d="M10,4v2c0,1.1,0.9,2,2,2h12c1.1,0,2-0.9,2-2V4h2c1.1,0,2,0.9,2,2v26c0,1.1-0.9,2-2,2H8c-1.1,0-2-0.9-2-2V6c0-1.1,0.9-2,2-2
	H10z M8,12v2h20v-2H8z M8,18v2h20v-2H8z M8,24v2h14v-2H8z M14,2h8c1.1,0,2,0.9,2,2s-0.9,2-2,2h-8c-1.1,0-2-0.9-2-2S12.9,2,14,2z"/>
</svg>
>
</svg>
