<?xml version="1.0" standalone="no"?><!DOCTYPE svg PUBLIC "-//W3C//DTD SVG 1.1//EN" "http://www.w3.org/Graphics/SVG/1.1/DTD/svg11.dtd"><svg t="1531470115654" class="icon" style="" viewBox="0 0 1024 1024" version="1.1" xmlns="http://www.w3.org/2000/svg" p-id="8545" xmlns:xlink="http://www.w3.org/1999/xlink" width="200" height="200"><defs><style type="text/css"></style></defs><path d="M799.1808 252.1088a76.8 76.8 0 0 0 76.6976-76.7488 76.8 76.8 0 0 0-76.6976-76.5952 76.6464 76.6464 0 1 0 0 153.344M108.7488 599.7056a46.336 46.336 0 0 1 12.3392-1.0752l177.3056 0.512 262.144-303.872-68.5568-0.4608-118.9376 137.5232a38.2464 38.2464 0 0 1-29.7472 14.0288 38.4 38.4 0 0 1-25.5488-67.2768l128.4096-147.8144a38.144 38.144 0 0 1 29.5424-13.9776l185.856-0.0512s121.1392 86.6816 130.3552 95.3344v109.2096h138.7008a39.68 39.68 0 0 1 24.5248 12.3904c15.616 15.7184 15.36 40.7552-0.256 56.2688a39.2192 39.2192 0 0 1-24.1664 11.3664h-167.9872c-50.8416-0.3072-49.5104-42.496-49.5104-42.496l0.512-66.6112-98.9184 112.384 89.344 89.3952s21.8624 20.2752 9.3696 60.8768l-58.3168 259.6864a49.408 49.408 0 0 1-97.9456-9.8304c0-4.5056 0.4608-8.6016 1.5872-12.5952l47.9744-213.1968-118.1184-114.7904-101.7344 113.3056s-16.4864 20.3776-60.1088 18.7904l-206.0288 0.3584a49.5616 49.5616 0 0 1-49.2032-38.5024 48.8448 48.8448 0 0 1 37.12-58.88z" p-id="8546"></path></svg>