<?xml version="1.0" standalone="no"?><!DOCTYPE svg PUBLIC "-//W3C//DTD SVG 1.1//EN" "http://www.w3.org/Graphics/SVG/1.1/DTD/svg11.dtd"><svg t="1524453765400" class="icon" style="" viewBox="0 0 1024 1024" version="1.1" xmlns="http://www.w3.org/2000/svg" p-id="2685" xmlns:xlink="http://www.w3.org/1999/xlink" width="200" height="200"><defs><style type="text/css"></style></defs><path d="M796.444444 402.944a343.608889 343.608889 0 0 0-113.777777 0V398.222222H113.777778v56.888889h437.020444a343.04 343.04 0 0 0-106.951111 113.777778H113.777778v56.888889h303.843555A340.764444 340.764444 0 0 0 398.222222 739.555556c0 87.438222 32.881778 167.139556 86.926222 227.555555H56.888889a56.888889 56.888889 0 0 1-56.888889-56.888889V56.888889a56.888889 56.888889 0 0 1 56.888889-56.888889h512l227.555555 302.250667v100.693333zM113.777778 227.555556v56.888888h455.111111V227.555556H113.777778z m625.777778 796.444444a284.444444 284.444444 0 1 1 0-568.888889 284.444444 284.444444 0 0 1 0 568.888889z m-56.888889-512v227.555556h113.777777V512h-113.777777z m0 284.444444v113.777778h113.777777v-113.777778h-113.777777z" p-id="2686"></path></svg>