<?xml version="1.0" encoding="utf-8"?>
<!-- Generator: Adobe Illustrator 22.0.0, SVG Export Plug-In . SVG Version: 6.00 Build 0)  -->
<svg version="1.1" id="图层_1" xmlns="http://www.w3.org/2000/svg" xmlns:xlink="http://www.w3.org/1999/xlink" x="0px" y="0px"
	 viewBox="0 0 20 20" style="enable-background:new 0 0 20 20;" xml:space="preserve">
<style type="text/css">
	.st0{fill:#040000;}
</style>
<path class="st0" d="M-607.8-157.5l5.2-3.4c0.3-0.2,0.7-0.1,0.7,0.4v6.6c0,0.6-0.4,0.6-0.7,0.4l-5.2-3.4
	C-608.2-157-608.1-157.2-607.8-157.5z"/>
<g>
	<path class="st0" d="M2.2,6.2l5.2,3.4C7.7,9.7,8,9.7,8,9.1V6.9h9c0.6,0,1.1-0.5,1.1-1.1S17.6,4.7,17,4.7H8V2.5C8,1.9,7.6,1.9,7.4,2
		L2.2,5.4C1.9,5.6,1.8,5.9,2.2,6.2z"/>
	<path class="st0" d="M17.8,13.5l-5.2-3.4C12.3,10,12,10,12,10.6v2.2H3c-0.6,0-1.1,0.5-1.1,1.1S2.4,15,3,15h9v2.2
		c0,0.5,0.4,0.6,0.7,0.4l5.2-3.4C18.1,14,18.2,13.8,17.8,13.5z"/>
</g>
</svg>
