<?xml version="1.0" standalone="no"?><!DOCTYPE svg PUBLIC "-//W3C//DTD SVG 1.1//EN" "http://www.w3.org/Graphics/SVG/1.1/DTD/svg11.dtd"><svg t="1527501928400" class="icon" style="" viewBox="0 0 1024 1024" version="1.1" xmlns="http://www.w3.org/2000/svg" p-id="2481" xmlns:xlink="http://www.w3.org/1999/xlink" width="32" height="32"><defs><style type="text/css"></style></defs><path d="M411.875556 723.968a340.081778 340.081778 0 0 1 253.269333-329.159111c2.048-6.542222 4.096-13.653333 5.632-20.195556a46.307556 46.307556 0 0 0 16.668444-9.557333c4.551111-4.096 9.102222-10.126222 12.629334-17.237333 4.039111-7.054222 6.599111-17.180444 8.590222-29.809778a72.476444 72.476444 0 0 0-0.512-23.779556 85.617778 85.617778 0 0 0-5.575111-16.156444 27.989333 27.989333 0 0 0-9.557334-10.638222 422.115556 422.115556 0 0 0-4.551111-71.281778 381.155556 381.155556 0 0 0-15.701333-64.170667 202.752 202.752 0 0 0-33.336889-62.691555 150.698667 150.698667 0 0 0-25.827555-24.291556 210.033778 210.033778 0 0 0-36.408889-21.731555 282.396444 282.396444 0 0 0-43.975111-16.213334 177.493333 177.493333 0 0 0-49.493334-6.030222c-13.653333 0-27.875556 1.024-42.496 3.527111A189.724444 189.724444 0 0 0 398.222222 17.180444a227.555556 227.555556 0 0 0-42.439111 24.291556 176.924444 176.924444 0 0 0-37.944889 39.424c-11.605333 17.180444-20.707556 36.408889-27.306666 57.628444a361.130667 361.130667 0 0 0-12.629334 60.700445c-3.015111 22.755556-3.982222 44.942222-3.527111 67.697778a77.141333 77.141333 0 0 0-15.701333 39.480889c-0.967111 8.078222 0 17.180444 3.072 27.306666 3.015111 10.069333 6.542222 17.635556 10.581333 23.210667 4.096 5.575111 8.135111 9.671111 11.662222 12.686222a32.426667 32.426667 0 0 0 12.629334 6.030222c3.015111 9.614222 6.087111 18.716444 9.102222 27.306667 3.015111 7.566222 6.087111 15.189333 9.614222 22.755556a50.688 50.688 0 0 0 12.629333 17.180444c10.126222 8.078222 19.228444 16.213333 27.306667 23.779556 8.078222 7.566222 12.629333 18.716444 13.653333 32.881777 0.512 9.102222 1.024 17.180444 1.024 24.746667s-1.536 15.189333-4.039111 22.243556a57.742222 57.742222 0 0 1-14.222222 21.219555 132.721778 132.721778 0 0 1-28.785778 22.243556 184.775111 184.775111 0 0 1-53.589333 23.324444c-20.195556 5.518222-109.681778 35.84-128.910222 42.439111a158.151111 158.151111 0 0 0-50.062222 26.737778c-14.165333 11.150222-23.267556 27.875556-26.794667 49.607111C57.457778 769.991111 56.888889 786.659556 56.888889 796.444444c0 9.784889 0 166.798222 2.616889 227.555556 87.722667-0.568889 328.704 0 451.982222 0-7.054222-11.605333-68.266667-154.396444-73.784889-167.025778a361.813333 361.813333 0 0 1-25.827555-133.006222z" p-id="2482"></path><path d="M1018.595556 692.622222c-2.048-11.605333-13.653333-23.722667-25.258667-26.737778l-9.102222-2.048a88.746667 88.746667 0 0 1-60.643556-105.187555l2.503111-8.078222a36.864 36.864 0 0 0-10.126222-35.384889s-8.078222-7.054222-31.857778-20.707556a263.111111 263.111111 0 0 0-33.393778-17.237333 37.376 37.376 0 0 0-35.84 8.647111l-6.087111 6.542222a86.471111 86.471111 0 0 1-60.700444 24.291556 86.471111 86.471111 0 0 1-60.643556-24.291556l-6.087111-6.542222c-8.078222-9.102222-24.234667-12.686222-35.84-8.647111 0 0-10.183111 3.584-33.905778 17.237333-23.324444 13.653333-31.857778 20.707556-31.857777 20.707556-9.102222 7.566222-13.653333 23.267556-10.126223 35.384889l2.56 8.590222c5.006222 21.219556 2.503111 44.487111-9.671111 64.739555a87.04 87.04 0 0 1-51.541333 40.391112l-8.533333 2.048a35.84 35.84 0 0 0-25.315556 26.794666s-2.048 10.638222-2.048 37.944889c0 27.306667 2.048 37.888 2.048 37.888 1.991111 12.174222 13.653333 23.779556 25.258667 26.794667l8.078222 2.048a88.576 88.576 0 0 1 61.212444 105.130666l-2.56 8.135112a36.864 36.864 0 0 0 10.126223 35.384888s8.078222 7.054222 31.857777 20.707556c23.267556 13.653333 33.336889 17.180444 33.336889 17.180444 11.662222 4.039111 27.306667 0 35.896889-8.533333l6.087111-6.599111a88.291556 88.291556 0 0 1 60.643556-24.291556c23.324444 0 44.999111 9.102222 60.700444 24.291556l6.087111 6.542222c8.078222 9.102222 24.234667 12.629333 35.84 8.590222 0 0 10.126222-3.527111 33.905778-17.180444 23.267556-13.653333 31.857778-20.707556 31.857778-20.707556 9.102222-7.623111 13.653333-23.779556 10.126222-35.384888l-2.56-8.590223a86.357333 86.357333 0 0 1 9.671111-64.739555c11.548444-20.195556 30.776889-34.360889 51.541334-40.391111l8.078222-2.048a35.84 35.84 0 0 0 25.258667-26.794667s2.048-10.638222 2.048-37.944889c0.512-27.306667-1.024-37.944889-1.024-37.944889z m-270.506667 146.659556a108.828444 108.828444 0 0 1-108.657778-108.714667c0-59.676444 48.526222-108.202667 108.657778-108.202667 59.676444 0 108.714667 48.526222 108.714667 108.657778 0 59.164444-48.526222 108.259556-108.657778 108.259556z" p-id="2483"></path></svg>