<?xml version="1.0" encoding="utf-8"?>
<!-- Generator: Adobe Illustrator 16.0.0, SVG Export Plug-In . SVG Version: 6.00 Build 0)  -->
<!DOCTYPE svg PUBLIC "-//W3C//DTD SVG 1.1//EN" "http://www.w3.org/Graphics/SVG/1.1/DTD/svg11.dtd">
<svg version="1.1" id="图层_1" xmlns="http://www.w3.org/2000/svg" xmlns:xlink="http://www.w3.org/1999/xlink" x="0px" y="0px"
	 width="20px" height="20px" viewBox="0 0 20 20" enable-background="new 0 0 240 35" xml:space="preserve">
<g>
	<path fill="#387ABF" d="M4,2.608h21.877v5.702h-8.049v24.687h-5.924V8.311H4V2.608z M28.223,1.844h5.653v10.949
		c1.112-0.951,2.232-1.663,3.358-2.138c1.127-0.476,2.267-0.713,3.421-0.713c2.253,0,4.151,0.771,5.695,2.314
		c1.321,1.336,1.982,3.298,1.982,5.888v14.853h-5.611v-9.854c0-2.604-0.125-4.366-0.375-5.29c-0.25-0.921-0.678-1.611-1.284-2.065
		c-0.604-0.454-1.352-0.682-2.242-0.682c-1.155,0-2.146,0.379-2.973,1.136c-0.827,0.758-1.401,1.79-1.721,3.1
		c-0.167,0.675-0.25,2.217-0.25,4.627v9.027h-5.653V1.844z M62.723,9.942c0.412-0.021,1.509-0.096,2.316,0.289l-0.313,4.566
		c-0.807-0.066-2.368-0.016-3.109,0.083c-0.869,0.114-1.617,0.536-2.222,1.611c-0.605,1.074-0.908,3.181-0.908,6.321l0.021,1.095
		v9.09h-5.653V10.521h4.881v1.962C57.737,12.483,58.741,10.376,62.723,9.942z M90.115,17.79l-16.451,7.926
		c0.943,1.322,2.139,2.159,3.588,2.51c1.448,0.353,2.973,0.142,4.573-0.629c1.914-0.923,3.43-2.575,4.156-4.563l4.777,1.544
		c-0.397,1.587-0.748,2.35-1.893,3.797s-2.749,2.866-4.813,3.861c-3.201,1.542-6.3,1.599-9.296,0.569
		c-2.996-1.029-5.233-3.049-6.711-6.059c-1.515-3.084-1.77-6.129-0.763-9.133c1.006-3.003,3.022-5.235,6.049-6.694
		c3.214-1.548,6.329-1.789,9.342-0.721c3.014,1.067,5.343,3.273,6.985,6.617L90.115,17.79z M83.032,16.263
		c-0.892-0.964-2.009-1.559-3.353-1.785c-1.342-0.226-2.671-0.023-3.987,0.611c-1.427,0.687-2.485,1.687-3.173,2.999
		c-0.434,0.821-0.631,1.996-0.592,3.524L83.032,16.263z M110.9,30.622c-1.112,1.046-2.227,1.801-3.344,2.262
		c-1.119,0.461-2.33,0.692-3.636,0.692c-2.931,0-5.466-1.125-7.604-3.379c-2.14-2.251-3.209-5.05-3.209-8.396
		c0-3.471,1.035-6.315,3.105-8.532c2.069-2.218,4.583-3.327,7.542-3.327c1.361,0,2.639,0.255,3.833,0.764
		c1.195,0.51,2.299,1.275,3.313,2.293v-2.479h5.695v22.476 M104.913,15.149c-1.761,0-3.223,0.616-4.387,1.848
		c-1.165,1.233-1.747,2.814-1.747,4.742c0,1.941,0.592,3.54,1.777,4.792c1.186,1.253,2.644,1.88,4.377,1.88
		c1.788,0,3.271-0.616,4.45-1.85c1.177-1.231,1.768-2.846,1.768-4.844c0-1.955-0.59-3.539-1.768-4.751
		C108.205,15.755,106.715,15.149,104.913,15.149z M123.041,5.02l5.695-2.783v8.284h3.378v4.855h-3.378v17.621h-5.695V15.376h-2.921
		v-4.855h2.921V5.02z M173.32,9.942c2.143,0,4.155,0.53,6.04,1.591s3.354,2.5,4.412,4.318c1.057,1.818,1.586,3.781,1.586,5.888
		c0,2.121-0.533,4.104-1.597,5.949s-2.514,3.288-4.349,4.327c-1.836,1.04-3.86,1.561-6.07,1.561c-3.255,0-6.033-1.147-8.335-3.44
		s-3.451-5.078-3.451-8.355c0-3.513,1.3-6.438,3.899-8.78C167.738,10.962,170.358,9.942,173.32,9.942z M173.415,15.252
		c-1.769,0-3.243,0.609-4.42,1.828c-1.178,1.219-1.767,2.78-1.767,4.68c0,1.956,0.583,3.539,1.747,4.751
		c1.161,1.212,2.636,1.818,4.419,1.818c1.782,0,3.266-0.612,4.451-1.839c1.183-1.226,1.775-2.803,1.775-4.73s-0.582-3.494-1.745-4.7
		C176.713,15.855,175.226,15.252,173.415,15.252z M199.615,9.942c2.142,0,4.154,0.53,6.04,1.591c1.884,1.061,3.355,2.5,4.411,4.318
		c1.057,1.818,1.586,3.781,1.586,5.888c0,2.121-0.533,4.104-1.597,5.949s-2.513,3.288-4.349,4.327
		c-1.837,1.04-3.859,1.561-6.07,1.561c-3.255,0-6.032-1.147-8.335-3.44c-2.3-2.293-3.452-5.078-3.452-8.355
		c0-3.513,1.301-6.438,3.901-8.78C194.032,10.962,196.652,9.942,199.615,9.942z M199.709,15.252c-1.77,0-3.241,0.609-4.419,1.828
		c-1.178,1.219-1.766,2.78-1.766,4.68c0,1.956,0.581,3.539,1.744,4.751s2.636,1.818,4.42,1.818s3.266-0.612,4.451-1.839
		c1.184-1.226,1.775-2.803,1.775-4.73s-0.581-3.494-1.745-4.7C203.007,15.855,201.521,15.252,199.709,15.252z M213.887,1.844h5.695
		v17.943l8.386-9.266l5.17,2.379l-7.796,8.393l10.946,11.704h-7.069l-9.637-10.358v10.358h-5.695V1.844z M137.79,32.796V1.472h5.244
		c3.043,0,5.269,0.185,6.676,0.554c1.999,0.498,3.588,1.419,4.77,2.768c1.182,1.349,1.771,2.939,1.771,4.77
		c0,1.192-0.269,2.275-0.805,3.248c-0.537,0.973-1.41,1.885-2.62,2.736c2.026,0.895,3.508,2.012,4.445,3.353
		c0.938,1.342,1.407,2.929,1.407,4.76c0,1.76-0.484,3.364-1.454,4.813c-0.969,1.448-2.217,2.53-3.746,3.248
		c-1.527,0.717-3.641,1.075-6.334,1.075H137.79z M143.184,6.838v6.921h2.346c1.547,0,2.696-0.305,3.448-0.916
		c0.751-0.61,1.128-1.44,1.128-2.492c0-0.979-0.358-2.075-1.071-2.65c-0.714-0.575-1.799-0.863-3.255-0.863H143.184z
		 M143.184,19.083v8.027h2.547c2.639,0,4.416-0.313,5.334-0.938c0.917-0.625,1.376-1.533,1.376-2.726
		c0-1.349-0.539-2.413-1.615-3.194c-1.077-0.779-2.865-1.17-5.366-1.17H143.184z"/>
</g>
</svg>
