<?xml version="1.0" encoding="utf-8"?>
<!-- Generator: Adobe Illustrator 16.0.0, SVG Export Plug-In . SVG Version: 6.00 Build 0)  -->
<!DOCTYPE svg PUBLIC "-//W3C//DTD SVG 1.0//EN" "http://www.w3.org/TR/2001/REC-SVG-20010904/DTD/svg10.dtd">
<svg version="1.0" id="图层_1" xmlns="http://www.w3.org/2000/svg" xmlns:xlink="http://www.w3.org/1999/xlink" x="0px" y="0px"
	 width="20px" height="20px" viewBox="0 0 20 20" enable-background="new 0 0 20 20" xml:space="preserve">
<g>
	<rect x="7.25" y="3.154" fill-rule="evenodd" clip-rule="evenodd" fill="#1C374B" width="2.023" height="6.292"/>
	<rect x="3.127" y="7.467" fill-rule="evenodd" clip-rule="evenodd" fill="#1C374B" width="6.146" height="2.024"/>
	
		<rect x="3.493" y="0.659" transform="matrix(0.7076 -0.7066 0.7066 0.7076 -2.0465 4.5756)" fill-rule="evenodd" clip-rule="evenodd" fill="#1C374B" width="2.025" height="8.203"/>
</g>
<g>
	<rect x="10.727" y="3.154" fill-rule="evenodd" clip-rule="evenodd" fill="#1C374B" width="2.023" height="6.292"/>
	<rect x="10.727" y="7.467" fill-rule="evenodd" clip-rule="evenodd" fill="#1C374B" width="6.146" height="2.024"/>
	
		<rect x="14.482" y="0.659" transform="matrix(-0.7076 -0.7066 0.7066 -0.7076 23.0946 19.0779)" fill-rule="evenodd" clip-rule="evenodd" fill="#1C374B" width="2.025" height="8.203"/>
</g>
<g>
	<rect x="10.727" y="10.926" fill-rule="evenodd" clip-rule="evenodd" fill="#1C374B" width="2.023" height="6.292"/>
	<rect x="10.727" y="10.88" fill-rule="evenodd" clip-rule="evenodd" fill="#1C374B" width="6.146" height="2.024"/>
	
		<rect x="14.482" y="11.51" transform="matrix(-0.7076 0.7066 -0.7066 -0.7076 37.4898 15.7089)" fill-rule="evenodd" clip-rule="evenodd" fill="#1C374B" width="2.025" height="8.203"/>
</g>
<g>
	<rect x="7.25" y="10.926" fill-rule="evenodd" clip-rule="evenodd" fill="#1C374B" width="2.023" height="6.292"/>
	<rect x="3.127" y="10.88" fill-rule="evenodd" clip-rule="evenodd" fill="#1C374B" width="6.146" height="2.024"/>
	
		<rect x="3.493" y="11.51" transform="matrix(0.7076 0.7066 -0.7066 0.7076 12.3488 1.3813)" fill-rule="evenodd" clip-rule="evenodd" fill="#1C374B" width="2.025" height="8.203"/>
</g>
</svg>
