<?xml version="1.0" encoding="utf-8"?>
<!-- Generator: Adobe Illustrator 16.0.0, SVG Export Plug-In . SVG Version: 6.00 Build 0)  -->
<!DOCTYPE svg PUBLIC "-//W3C//DTD SVG 1.1//EN" "http://www.w3.org/Graphics/SVG/1.1/DTD/svg11.dtd">
<svg version="1.1" id="图层_1" xmlns="http://www.w3.org/2000/svg" xmlns:xlink="http://www.w3.org/1999/xlink" x="0px" y="0px"
	 width="20px" height="20px" viewBox="0 0 20 20" enable-background="new 0 0 20 20" xml:space="preserve">
<g>
	<circle fill="none" stroke="#000000" stroke-linecap="round" stroke-linejoin="round" cx="10.008" cy="9.992" r="8.778"/>
	<path fill="none" stroke="#000000" stroke-linecap="round" stroke-linejoin="round" d="M14.923,9.992
		c0,4.848-3.025,8.778-4.916,8.778c-1.891,0-4.916-3.93-4.916-8.778c0-4.847,3.025-8.777,4.916-8.777
		C11.898,1.215,14.923,5.145,14.923,9.992z"/>
	<path fill="none" stroke="#000000" stroke-linecap="round" stroke-linejoin="round" d="M16.328,4.023
		c-0.527,0.527-3.16,1.404-6.32,1.404c-3.16,0-5.969-0.877-6.32-1.404"/>
	<path fill="none" stroke="#000000" stroke-linecap="round" stroke-linejoin="round" d="M16.328,15.961
		c-0.527-0.527-3.16-1.404-6.32-1.404c-3.16,0-5.969,0.877-6.32,1.404"/>
	<line fill="none" stroke="#000000" stroke-linecap="round" stroke-linejoin="round" x1="1.23" y1="9.992" x2="18.785" y2="9.992"/>
	
		<line fill="none" stroke="#000000" stroke-linecap="round" stroke-linejoin="round" x1="10.008" y1="1.215" x2="10.008" y2="18.77"/>
</g>
</svg>
