<?xml version="1.0" encoding="utf-8"?>
<!-- Generator: Adobe Illustrator 16.0.0, SVG Export Plug-In . SVG Version: 6.00 Build 0)  -->
<!DOCTYPE svg PUBLIC "-//W3C//DTD SVG 1.1//EN" "http://www.w3.org/Graphics/SVG/1.1/DTD/svg11.dtd">
<svg version="1.1" id="图层_1" xmlns="http://www.w3.org/2000/svg" xmlns:xlink="http://www.w3.org/1999/xlink" x="0px" y="0px"
	 width="20px" height="20px" viewBox="0 0 20 20" enable-background="new 0 0 20 20" xml:space="preserve">
<path fill-rule="evenodd" clip-rule="evenodd" d="M4.045,15.632c0.788-0.294,1.573-0.713,2.474-0.975
	c0.441-0.128,0.599-0.109,0.871-0.422c0.051-0.059,0.116-0.205,0.209-0.26c0.153-0.091,0.206-0.316,0.279-0.455
	c0.009-0.132,0.264-0.036,0.313-0.13c0.021-0.272-0.335-0.4-0.418-0.65c-0.116-0.35,0.018-0.731-0.104-1.137
	C6.88,11.535,6.968,10.487,6.902,9.85c0.03-0.091,0.149-0.129,0.174-0.26c0.049-0.255-0.062-0.538-0.105-0.844
	C6.84,7.809,7.117,6.895,7.39,6.699c0.43-0.596,1.517-0.86,2.544-1.007c0.081,0,0.163,0,0.244,0c0.293,0.052,0.77,0.104,1.045,0.228
	c0.201,0.09,0.337,0.299,0.558,0.39c0.149,0.061,0.394,0.05,0.522,0.13c0.183,0.112,0.41,0.698,0.453,1.169
	c0.026,0.276-0.04,0.583-0.069,0.91c-0.025,0.275-0.095,0.632-0.035,0.91c0.029,0.132,0.142,0.153,0.209,0.325
	c0.111,0.283,0.134,1.214-0.174,1.592c-0.155,0.19-0.43,0.223-0.523,0.39c-0.146,0.264-0.086,0.711-0.18,1.017
	c-0.103,0.334-0.436,0.36-0.377,0.639c0.072,0.042,0.352,0.067,0.453,0.13c-0.041-0.026,0.251,0.458,0.235,0.442l0.009,0.012
	c0.076,0.129,0.15,0.357,0.314,0.455c0.152,0.091,0.386,0.089,0.627,0.163c0.524,0.159,1.125,0.43,1.672,0.65
	c0.367,0.147,0.75,0.295,1.115,0.422c0.133,0.046,0.275,0.09,0.416,0.135c1.301-1.499,2.094-3.451,2.094-5.591
	c0-4.718-3.824-8.542-8.542-8.542c-4.717,0-8.542,3.824-8.542,8.542c0,2.136,0.789,4.083,2.085,5.581
	C3.708,15.741,3.879,15.694,4.045,15.632z"/>
</svg>
