<?xml version="1.0" encoding="utf-8"?>
<!-- Generator: Adobe Illustrator 16.0.0, SVG Export Plug-In . SVG Version: 6.00 Build 0)  -->
<!DOCTYPE svg PUBLIC "-//W3C//DTD SVG 1.0//EN" "http://www.w3.org/TR/2001/REC-SVG-20010904/DTD/svg10.dtd">
<svg version="1.0" id="图层_1" xmlns="http://www.w3.org/2000/svg" xmlns:xlink="http://www.w3.org/1999/xlink" x="0px" y="0px"
	 width="20px" height="20px" viewBox="0 0 20 20" enable-background="new 0 0 20 20" xml:space="preserve">
<path fill-rule="evenodd" clip-rule="evenodd" fill="#1C374B" d="M8.559,6.928c-0.567,0-1.026-0.461-1.026-1.03V3.84V0.066
	l7.531,6.862h-4.45H8.559z"/>
<path fill-rule="evenodd" clip-rule="evenodd" fill="#1C374B" d="M6.609,15.84c0-2.455,1.99-4.445,4.445-4.445
	c1.776,0,3.297,1.049,4.01,2.555V7.957h-4.45H8.559c-1.134,0-2.054-0.921-2.054-2.058V3.84V0.078H3.424H1.026
	C0.459,0.078,0,0.538,0,1.105v17.803c0,0.566,0.459,1.026,1.026,1.026H8.9H9.32C7.727,19.258,6.609,17.681,6.609,15.84z"/>
<polygon fill-rule="evenodd" clip-rule="evenodd" fill="#1C374B" points="19.959,13.286 12.975,19.935 11.025,17.891 18.01,11.243 
	"/>
<rect x="7.741" y="14.87" transform="matrix(-0.6899 -0.724 0.724 -0.6899 7.5487 35.7964)" fill-rule="evenodd" clip-rule="evenodd" fill="#1C374B" width="7.403" height="2.822"/>
</svg>
