<?xml version="1.0" encoding="utf-8"?>
<!-- Generator: Adobe Illustrator 22.0.0, SVG Export Plug-In . SVG Version: 6.00 Build 0)  -->
<svg version="1.1" id="图层_1" xmlns="http://www.w3.org/2000/svg" xmlns:xlink="http://www.w3.org/1999/xlink" x="0px" y="0px" width="20px" height="20px"
	 viewBox="0 0 20 20" style="enable-background:new 0 0 20 20;" xml:space="preserve">
<path d="M16.9,1.2H3.1C1.9,1.2,1,2.1,1,3.2v13.8c0,1.2,0.9,2.1,2.1,2.1h13.8c1.2,0,2.1-0.9,2.1-2.1V3.2C19,2.1,18.1,1.2,16.9,1.2z
	 M17.4,8.1l-4.6,4.1c-0.1,0.1-0.2,0.1-0.4,0.1h0c0,0-0.1,0-0.1,0c0,0-0.1,0-0.1,0c-0.2-0.1-0.3-0.3-0.3-0.5l0-1.9
	c-3.8,0.2-6.5,1.9-6.5,3.8c0,1.2,0.9,2.3,2.6,3.1c0.2,0.1,0.2,0.3,0.2,0.5c-0.1,0.1-0.2,0.2-0.3,0.2c0,0-0.1,0-0.1,0
	c-3.3-1.2-5.3-3.3-5.3-5.5c0-3.2,4-5.9,9.5-6.5c0,0,0,0,0,0l0-0.9V3.6c0-0.1,0-0.1,0-0.1c0,0,0,0,0,0c0,0,0-0.1,0-0.1c0,0,0,0,0,0
	c0,0,0.1-0.1,0.1-0.1c0,0,0,0,0,0c0,0,0.1-0.1,0.1-0.1c0.2-0.1,0.4-0.1,0.6,0l4.6,4.1c0.2,0.1,0.3,0.3,0.3,0.5
	C17.7,7.8,17.6,8,17.4,8.1z"/>
</svg>
