<?xml version="1.0" encoding="utf-8"?>
<!-- Generator: Adobe Illustrator 16.0.0, SVG Export Plug-In . SVG Version: 6.00 Build 0)  -->
<!DOCTYPE svg PUBLIC "-//W3C//DTD SVG 1.1//EN" "http://www.w3.org/Graphics/SVG/1.1/DTD/svg11.dtd">
<svg version="1.1" id="图层_1" xmlns="http://www.w3.org/2000/svg" xmlns:xlink="http://www.w3.org/1999/xlink" x="0px" y="0px"
	 width="20px" height="20px" viewBox="0 0 20 20" enable-background="new 0 0 20 20" xml:space="preserve">
<path fill-rule="evenodd" clip-rule="evenodd" d="M10.008,4c-3.959,0-7.969,6.104-7.969,6.104S5.908,16,9.883,16
	c4.163,0,8.218-5.917,8.218-5.917S13.905,4,10.008,4z M9.991,12.983C8.339,12.983,7,11.644,7,9.991C7,8.339,8.339,7,9.991,7
	c1.652,0,2.992,1.339,2.992,2.991C12.983,11.644,11.644,12.983,9.991,12.983z"/>
<path fill-rule="evenodd" clip-rule="evenodd" d="M10,9c0.552,0,1,0.448,1,1s-0.448,1-1,1s-1-0.448-1-1S9.448,9,10,9z"/>
</svg>
