<?xml version="1.0" encoding="utf-8"?>
<!-- Generator: Adobe Illustrator 16.0.0, SVG Export Plug-In . SVG Version: 6.00 Build 0)  -->
<!DOCTYPE svg PUBLIC "-//W3C//DTD SVG 1.1//EN" "http://www.w3.org/Graphics/SVG/1.1/DTD/svg11.dtd">
<svg version="1.1" id="图层_1" xmlns="http://www.w3.org/2000/svg" xmlns:xlink="http://www.w3.org/1999/xlink" x="0px" y="0px"
	 width="20px" height="20px" viewBox="0 0 20 20" enable-background="new 0 0 20 20" xml:space="preserve">
<g>
	<polygon fill="#231815" points="6.404,11.512 6.24,11.858 14.194,11.858 14.054,11.512 	"/>
	<polygon fill="#231815" points="8.354,12.864 7.933,13.968 12.498,13.968 12.073,12.864 	"/>
	<path fill="#231815" d="M6.87,10.386h6.497c0.335,0,0.606-0.269,0.606-0.603V5.489c0-0.335-0.27-0.607-0.606-0.607H6.87
		c-0.337,0-0.605,0.271-0.605,0.607v4.294C6.265,10.117,6.533,10.386,6.87,10.386z M7.859,5.483h1.351v0.665
		C9.146,6.155,9.1,6.173,9.075,6.203c-0.027,0.03-0.04,0.08-0.04,0.149c0,0.027,0,0.055,0.003,0.084
		C9.04,6.464,9.042,6.492,9.047,6.521L9.36,8.416l0.492-2.932h0.718L11.109,8.4l0.241-1.839c0.002-0.023,0.005-0.059,0.013-0.105
		c0.006-0.047,0.01-0.078,0.01-0.093c0-0.06-0.013-0.106-0.038-0.137c-0.027-0.031-0.072-0.058-0.135-0.076V5.483h1.178v0.665
		c-0.067,0.028-0.118,0.069-0.151,0.119c-0.035,0.05-0.063,0.149-0.085,0.293l-0.477,3.001h-1.106l-0.416-2.234L9.786,9.563H8.667
		L8.104,6.519C8.081,6.408,8.053,6.324,8.014,6.268c-0.037-0.058-0.09-0.098-0.155-0.118V5.483z"/>
	<path fill="#231815" d="M9.999,0.313c-5.35,0-9.687,4.337-9.687,9.687c0,5.352,4.337,9.688,9.688,9.688
		c5.351,0,9.688-4.336,9.688-9.688C19.687,4.65,15.351,0.313,9.999,0.313z M15.624,15.618H4.615c-1.259,0-1.75-0.134-1.458-0.765
		l1.731-3.641V4.608C4.889,4,5.382,3.506,5.99,3.506h8.256c0.609,0,1.101,0.493,1.101,1.102v6.605l1.518,3.618
		C17.155,15.402,16.327,15.618,15.624,15.618z"/>
</g>
</svg>
