<?xml version="1.0" standalone="no"?><!DOCTYPE svg PUBLIC "-//W3C//DTD SVG 1.1//EN" "http://www.w3.org/Graphics/SVG/1.1/DTD/svg11.dtd"><svg t="1526035343679" class="icon" style="" viewBox="0 0 1024 1024" version="1.1" xmlns="http://www.w3.org/2000/svg" p-id="3830" xmlns:xlink="http://www.w3.org/1999/xlink" width="32" height="32"><defs><style type="text/css"></style></defs><path d="M640 64c-102.4 0-192 44.8-256 112 25.6-6.4 51.2-12.8 76.8-16 19.2-12.8 38.4-22.4 60.8-32 0 3.2 0 6.4 3.2 6.4 3.2 6.4 6.4 6.4 16 6.4 0 9.6-12.8 9.6-19.2 9.6-9.6 0-19.2-3.2-25.6 3.2 6.4 3.2 16 12.8 16 3.2h25.6c3.2 0 12.8 3.2 16 3.2 0 0 3.2-6.4 3.2-9.6h-6.4c6.4-6.4 9.6 0 19.2 3.2-6.4 3.2-3.2 16 3.2 6.4 6.4-6.4 0-12.8-9.6-16 6.4-9.6 12.8-9.6 19.2 0 0-6.4 6.4-3.2 12.8-3.2v-6.4h-6.4c6.4-9.6 3.2-12.8 9.6-16 6.4-3.2 25.6 0 28.8-6.4-12.8 3.2-28.8 3.2-41.6 9.6-6.4 3.2-12.8 9.6-16 6.4-6.4-6.4 3.2-12.8 9.6-16 22.4-3.2 41.6-6.4 64-6.4 12.8 0 28.8 0 41.6 3.2-6.4 3.2 0 3.2-3.2 6.4-6.4 6.4-19.2 9.6-25.6 12.8 9.6 0 35.2 9.6 38.4-3.2h-9.6l19.2-9.6c64 12.8 121.6 44.8 166.4 89.6-12.8 0-19.2 0-28.8 6.4-3.2 3.2-6.4 6.4-12.8 6.4-3.2 0-9.6 0-12.8 3.2-16 6.4-12.8 38.4-35.2 35.2-9.6-3.2-16-12.8-22.4-22.4-3.2-6.4-12.8-12.8-6.4-19.2h-6.4c3.2-6.4 16-6.4 16-9.6 3.2-9.6-12.8-9.6-19.2-12.8 6.4-6.4 9.6 3.2 16 0 6.4 0-3.2-9.6-6.4-9.6 0 0-22.4 6.4-9.6-6.4-12.8-9.6-28.8-19.2-41.6-28.8-3.2 9.6 19.2 16 25.6 19.2 0 3.2-6.4 9.6-12.8 9.6-3.2-3.2-3.2-9.6-9.6-9.6-6.4 12.8 9.6 9.6 12.8 16 3.2 9.6-6.4 3.2-9.6 3.2 0 0-6.4-6.4-6.4 0s9.6 3.2 9.6 9.6c-9.6 0-16-3.2-25.6-9.6-9.6-6.4-16-6.4-28.8-6.4 3.2 0 9.6-3.2 12.8-6.4 3.2 0 9.6-6.4 9.6-9.6 3.2-6.4 0-6.4-6.4-9.6-6.4-3.2-12.8-9.6-19.2-12.8-22.4-3.2-6.4 22.4-25.6 25.6h-16s-3.2 3.2-3.2 6.4c16 3.2 32 9.6 48 16 6.4 0 19.2 3.2 22.4 3.2 6.4 0 9.6 9.6 12.8 12.8 3.2 3.2 6.4 3.2 9.6 6.4 6.4 0 3.2-6.4 6.4-9.6 9.6-6.4 12.8 3.2 16 9.6 3.2 9.6 6.4 12.8 12.8 16 3.2 3.2 12.8 9.6 12.8 12.8 89.6 80 147.2 195.2 147.2 320 0 38.4-6.4 76.8-16 112 70.4-64 112-156.8 112-256 0-195.2-156.8-352-352-352z m281.6 262.4c0-3.2 3.2-3.2 0 0 3.2-6.4 3.2-6.4 6.4-9.6 0-3.2 3.2-3.2 6.4-3.2v-3.2c6.4 16 9.6 28.8 12.8 44.8h-6.4c-3.2 0-6.4-3.2-9.6-3.2-3.2 0-6.4-3.2-9.6-6.4-3.2-3.2 0-6.4 0-9.6v-9.6z m3.2 160c-6.4-6.4-12.8-12.8-16-19.2-3.2-6.4-3.2-16 0-22.4 0-6.4-3.2-16 0-22.4 0-3.2 3.2-3.2 6.4-6.4 3.2-6.4 3.2-9.6 6.4-12.8 3.2-3.2 9.6-6.4 12.8-9.6 3.2-3.2 3.2-6.4 6.4-12.8 3.2-3.2 6.4-9.6 9.6-12.8 3.2 16 3.2 32 3.2 48 0 28.8-3.2 54.4-9.6 80-9.6 0-12.8-6.4-19.2-9.6z" p-id="3831"></path><path d="M441.6 544c0-3.2 0-3.2 0 0 0-3.2 0-3.2 0 0z m150.4 160h-3.2s0 3.2 3.2 0zM448 224C236.8 224 64 396.8 64 608s172.8 384 384 384 384-172.8 384-384S659.2 224 448 224z m246.4 150.4c-12.8 0-22.4 0-32 6.4-3.2 3.2-6.4 6.4-12.8 9.6-6.4 0-9.6 0-16 3.2-16 6.4-16 44.8-38.4 38.4-9.6-3.2-19.2-16-22.4-22.4-3.2-6.4-12.8-12.8-6.4-22.4h-9.6c3.2-9.6 16-6.4 19.2-12.8 6.4-9.6-12.8-12.8-19.2-12.8 6.4-6.4 9.6 3.2 16 0 6.4 0-3.2-9.6-6.4-9.6 0 0-22.4 6.4-9.6-6.4l-48-28.8c-3.2 9.6 22.4 16 28.8 22.4 0 3.2-9.6 12.8-12.8 9.6-6.4-3.2-3.2-9.6-9.6-9.6-6.4 12.8 12.8 9.6 12.8 16 3.2 9.6-6.4 6.4-9.6 6.4 0 0-6.4-6.4-6.4 0s9.6 3.2 9.6 9.6c-12.8 0-16-3.2-25.6-9.6-9.6-6.4-16-6.4-28.8-6.4 3.2-3.2 9.6-3.2 12.8-6.4 3.2 0 9.6-9.6 9.6-9.6 3.2-6.4 0-6.4-6.4-9.6-6.4-3.2-12.8-12.8-19.2-12.8-25.6-6.4-6.4 22.4-28.8 28.8h-16c-3.2 3.2-3.2 9.6-3.2 9.6-12.8-3.2-19.2-3.2-22.4 0-3.2 3.2-16 9.6-19.2 16-9.6 19.2 22.4 25.6 35.2 32 6.4 3.2 22.4 6.4 25.6 12.8 3.2 6.4-3.2 12.8 6.4 16h9.6c3.2-3.2 0-6.4-3.2-9.6-3.2-9.6 0-6.4 6.4-9.6 9.6-6.4 6.4-6.4 3.2-19.2-3.2-6.4-9.6-22.4-3.2-25.6 6.4-6.4 22.4 3.2 28.8 3.2 6.4 0 9.6 9.6 12.8 12.8 3.2 3.2 6.4 6.4 9.6 6.4 6.4 0 3.2-6.4 6.4-9.6 9.6-6.4 12.8 3.2 16 12.8 3.2 9.6 6.4 12.8 12.8 19.2 3.2 3.2 16 12.8 16 19.2 0 3.2-16 9.6-22.4 12.8-16 6.4-44.8-6.4-48 16 6.4-3.2 22.4-16 28.8-9.6 3.2 3.2-3.2 6.4 0 9.6 3.2 9.6 9.6 6.4 16 3.2 9.6-6.4 9.6-3.2 12.8-12.8 0-3.2 3.2-9.6 6.4-9.6 6.4-6.4 9.6-3.2 12.8 3.2 0 0 12.8 16 9.6 16-12.8-3.2-25.6-3.2-35.2 3.2-6.4 3.2-12.8 9.6-19.2 12.8-3.2 0-16 3.2-12.8 0 3.2-3.2 9.6-6.4 12.8-9.6-9.6-3.2-16 3.2-22.4 9.6-6.4 3.2-9.6 9.6-16 16-3.2 3.2-6.4 3.2-9.6 6.4-3.2 3.2-3.2 6.4-6.4 9.6-3.2 3.2-6.4 0-6.4 3.2-3.2 3.2 3.2 6.4 0 9.6-3.2 6.4-12.8 9.6-16 12.8 6.4 0 3.2 3.2 0 9.6 0 6.4 6.4 22.4 3.2 25.6-3.2 12.8-12.8-6.4-16-9.6-9.6-16-32-6.4-44.8-3.2-19.2 3.2-35.2 25.6-25.6 44.8 6.4 6.4 16 9.6 25.6 6.4 9.6-3.2 12.8-16 22.4-16 16 0 0 16 0 22.4 0 6.4 3.2 6.4 6.4 6.4s9.6-3.2 12.8 0c3.2 0 3.2 9.6 6.4 6.4-6.4 6.4-3.2 16 3.2 22.4 6.4 6.4 16 0 22.4 3.2 12.8 3.2 6.4 0 19.2-9.6 9.6-6.4 9.6 0 16 0 3.2 0 6.4-6.4 12.8-3.2 6.4 0 6.4 6.4 12.8 6.4h6.4c12.8 0 19.2 9.6 28.8 16 6.4 6.4 12.8 3.2 22.4 6.4 6.4 3.2 19.2 9.6 19.2 19.2 0 0-6.4 9.6-6.4 12.8 3.2 0 12.8 0 16-3.2 0 0-9.6 6.4-9.6 3.2 0 0 6.4 3.2 6.4 6.4 3.2-12.8 9.6-3.2 19.2 0 6.4 3.2 16 3.2 22.4 3.2 6.4 0 19.2 6.4 25.6 9.6 6.4 6.4 3.2 16-3.2 22.4-6.4 6.4-12.8 9.6-16 19.2-3.2 6.4 0 16-3.2 22.4-3.2 9.6-3.2 6.4-9.6 12.8-6.4 6.4 0 3.2-9.6 9.6-9.6 3.2-16 3.2-22.4 12.8v-3.2c-3.2 3.2-3.2 9.6-6.4 12.8-3.2 6.4-6.4 9.6-12.8 12.8-3.2 3.2-19.2 22.4-19.2 22.4 0-3.2-12.8 3.2-16 0 0 3.2 0 3.2 3.2 3.2-3.2 19.2-9.6 22.4-28.8 22.4 0 9.6-6.4 6.4-9.6 12.8-3.2 3.2-3.2 9.6-3.2 12.8 0 3.2-6.4 9.6-6.4 12.8 0 3.2 3.2 3.2 3.2 6.4-12.8 3.2-25.6 3.2-38.4 6.4 3.2-3.2 3.2-6.4-3.2-6.4 3.2-6.4 6.4-9.6 9.6-12.8v-6.4c3.2-9.6 3.2-6.4 0-12.8-3.2-16 0-19.2 6.4-35.2 3.2-16 3.2-35.2 6.4-51.2 0-6.4 3.2-22.4 0-32-3.2-9.6-16-16-22.4-19.2-9.6-6.4-12.8-16-19.2-25.6-3.2-6.4-6.4-9.6-9.6-16-6.4-12.8 0-3.2 0-12.8 0-6.4 0-12.8 3.2-19.2 3.2-6.4 9.6-12.8 12.8-19.2 3.2-6.4 0-16-6.4-19.2-3.2 0-9.6 3.2-12.8 0-6.4 0-12.8-6.4-16-9.6-3.2 6.4-3.2-3.2-9.6-6.4-6.4-3.2-9.6 0-16-3.2s-9.6-9.6-16-12.8c-6.4-3.2-12.8 0-19.2 0-6.4 0-16-9.6-22.4-9.6-12.8-6.4-19.2-12.8-25.6-25.6-3.2-9.6-9.6-16-19.2-25.6-3.2-6.4-6.4-12.8-16-16l3.2 9.6c3.2 6.4 9.6 12.8 12.8 22.4 9.6 9.6 6.4 9.6-3.2 0-9.6-12.8-19.2-22.4-25.6-35.2-3.2-3.2 0-6.4-6.4-9.6-3.2-6.4-9.6-6.4-12.8-9.6-16-16-19.2-35.2-19.2-54.4 0-6.4 3.2-12.8 3.2-19.2 0-6.4-3.2-9.6-6.4-12.8 0-3.2-3.2-6.4-3.2-6.4-6.4-6.4-9.6-12.8-16-19.2-3.2-3.2-9.6-9.6-19.2-12.8C217.6 352 265.6 316.8 320 294.4c0 3.2 0 6.4 3.2 9.6 3.2 6.4 9.6 6.4 16 6.4 0 9.6-12.8 9.6-19.2 6.4-9.6 0-19.2-3.2-28.8 3.2 3.2 3.2 16 12.8 16 3.2h25.6c3.2 0 16 3.2 19.2 3.2 0 0 3.2-6.4 3.2-9.6h-6.4c6.4-6.4 12.8-3.2 19.2 3.2-6.4 3.2-3.2 16 6.4 6.4 6.4-9.6-3.2-12.8-9.6-19.2 9.6-9.6 12.8-12.8 22.4 0 0-6.4 6.4-3.2 12.8-3.2v-3.2h-9.6c6.4-9.6 3.2-12.8 12.8-16 6.4-3.2 28.8 0 32-6.4-16 3.2-32 3.2-44.8 9.6-9.6 3.2-16 12.8-22.4 6.4-3.2-6.4 6.4-16 9.6-19.2 22.4-6.4 48-6.4 70.4-6.4 16 0 32 0 44.8 3.2-6.4 3.2 0 3.2-6.4 6.4-6.4 6.4-19.2 9.6-28.8 12.8 9.6 0 38.4 9.6 41.6-6.4-3.2 0-6.4 0-9.6-3.2 6.4-3.2 12.8-6.4 22.4-9.6 73.6 16 134.4 51.2 182.4 102.4z m60.8 134.4s3.2-3.2 0 0c3.2-6.4 3.2-6.4 6.4-9.6 3.2-3.2 3.2-3.2 6.4-3.2v-3.2c6.4 16 9.6 32 12.8 48h-6.4c-3.2 0-6.4-3.2-9.6-6.4l-9.6-9.6c-3.2-3.2 0-6.4 0-9.6v-6.4z m3.2 176c-6.4-6.4-12.8-12.8-19.2-22.4-6.4-6.4-3.2-16 0-25.6 0-6.4-3.2-19.2 0-25.6 0-3.2 6.4-3.2 6.4-6.4 3.2-6.4 3.2-9.6 6.4-12.8 3.2-6.4 9.6-6.4 12.8-9.6 3.2-3.2 3.2-6.4 6.4-12.8 3.2-3.2 6.4-9.6 12.8-12.8 3.2 16 3.2 35.2 3.2 51.2 0 28.8-3.2 60.8-12.8 86.4-3.2 0-9.6-6.4-16-9.6z" p-id="3832"></path></svg>