<?xml version="1.0" encoding="utf-8"?>
<!-- Generator: Adobe Illustrator 22.0.0, SVG Export Plug-In . SVG Version: 6.00 Build 0)  -->
<svg version="1.1" id="图层_1" xmlns="http://www.w3.org/2000/svg" xmlns:xlink="http://www.w3.org/1999/xlink" x="0px" y="0px"
	 viewBox="0 0 20 20" style="enable-background:new 0 0 20 20;" xml:space="preserve">
<style type="text/css">
	.st0{fill:#040000;}
</style>
<path class="st0" d="M11,6.9c-0.6,0-1-0.5-1-1V3.8V0.1l7.5,6.9h-4.4H11z"/>
<path class="st0" d="M9.1,15.8c0-2.5,2-4.4,4.4-4.4c1.8,0,3.3,1,4,2.6V8h-4.5H11C9.9,8,9,7,9,5.9V3.8V0.1H5.9H3.5c-0.6,0-1,0.5-1,1
	v17.8c0,0.6,0.5,1,1,1h7.9h0.4C10.2,19.3,9.1,17.7,9.1,15.8z"/>
<circle class="st0" cx="13.5" cy="16" r="2.1"/>
</svg>
