<?xml version="1.0" standalone="no"?><!DOCTYPE svg PUBLIC "-//W3C//DTD SVG 1.1//EN" "http://www.w3.org/Graphics/SVG/1.1/DTD/svg11.dtd"><svg t="1528957181173" class="icon" style="" viewBox="0 0 1170 1024" version="1.1" xmlns="http://www.w3.org/2000/svg" p-id="2335" xmlns:xlink="http://www.w3.org/1999/xlink" width="36.5625" height="32"><defs><style type="text/css"></style></defs><path d="M658.284774 626.834122c0 41.910797-146.285505 41.910797-146.285505 0V324.023126c0-41.837655 146.285505-41.837655 146.285505 0V626.834122z" p-id="2336"></path><path d="M585.142021 804.571011m-73.142752 0a73.142753 73.142753 0 1 0 146.285505 0 73.142753 73.142753 0 1 0-146.285505 0Z" p-id="2337"></path><path d="M1087.486446 841.142387l-436.735376-731.427527C637.585375 87.845177 613.155695 73.143484 585.142021 73.143484c-27.940532 0-52.516496 14.701693-65.535906 36.571376l-436.735376 731.427527a70.94847 70.94847 0 0 0 0 73.142753c13.970266 23.405681 39.423944 36.571376 65.535906 36.571376h873.470752c26.185105 0 51.565641-13.165695 65.609049-36.571376a70.94847 70.94847 0 0 0 0-73.142753z m62.17134 110.957556a148.699216 148.699216 0 0 1-127.780389 71.899326H148.479788a148.479788 148.479788 0 0 1-127.560961-71.533613 144.310651 144.310651 0 0 1-0.292571-148.991787l436.735376-731.427526A148.699216 148.699216 0 0 1 585.142021 0.000731c52.809067 0 101.156427 27.574818 127.853532 72.045612l436.735376 731.427526a144.530079 144.530079 0 0 1 0 148.626074z" p-id="2338"></path></svg>