<?xml version="1.0" standalone="no"?><!DOCTYPE svg PUBLIC "-//W3C//DTD SVG 1.1//EN" "http://www.w3.org/Graphics/SVG/1.1/DTD/svg11.dtd"><svg t="1531469845927" class="icon" style="" viewBox="0 0 1024 1024" version="1.1" xmlns="http://www.w3.org/2000/svg" p-id="2357" xmlns:xlink="http://www.w3.org/1999/xlink" width="200" height="200"><defs><style type="text/css"></style></defs><path d="M803.4304 237.4656h-278.8352c-37.632 0-68.1472 30.5152-68.1472 68.1472v518.4c0 37.632 30.5152 68.1472 68.1472 68.1472h278.8352c37.632 0 68.1472-30.5152 68.1472-68.1472V305.6128a68.096 68.096 0 0 0-68.1472-68.1472z m-229.2224 594.3296h-24.7808v-255.488h24.7808v255.488z m68.1472 0h-24.7808v-255.488h24.7808v255.488z m68.1984 0h-24.7808v-255.488h24.7808v255.488z m68.096 0h-24.6784v-255.488h24.6784v255.488z m-12.3904-284.5696a41.2672 41.2672 0 1 1 0-82.5856 41.2672 41.2672 0 0 1 0 82.5856z m41.2672-134.2464h-287.0272V338.688h287.0272v74.2912zM209.5616 170.7008a52.3264 52.3264 0 0 0-4.2496 20.4288l-41.3696 41.3184 62.5152 1.7408L308.6336 316.416A52.224 52.224 0 0 0 382.464 242.5344L297.2672 157.2864l0.6656-62.6688-45.1584 45.1072a51.5072 51.5072 0 0 0-15.7184 3.9936l-10.1376-10.1888 16.7936-16.7936-8.5504-8.6016-62.72 62.72 8.5504 8.5504 18.6368-18.6368 9.9328 9.9328zM150.1184 527.0528a51.2 51.2 0 0 0 11.4176 17.408v58.4192l45.4144-42.9056h116.2752a52.224 52.224 0 0 0 0-104.448H202.6496L158.72 410.7264v63.8464a53.6576 53.6576 0 0 0-8.2944 13.9264h-14.336v-23.7568h-12.1344v88.6784h12.0832v-26.4192l14.08 0.0512zM207.2064 883.8144c6.5024 2.816 13.4656 4.3008 20.3776 4.3008l41.3184 41.3696 1.7408-62.5152 82.2272-82.1248a52.224 52.224 0 0 0-73.8304-73.8304L193.792 796.16l-62.72-0.6144 45.1072 45.1584c0.5632 5.3248 1.792 10.6496 3.9936 15.6672l-10.1376 10.1376-16.896-16.7424-8.5504 8.4992 62.7712 62.72 8.5504-8.5504-18.688-18.6368 9.984-9.984z" p-id="2358"></path></svg>