<?xml version="1.0" encoding="utf-8"?>
<!-- Generator: Adobe Illustrator 22.0.0, SVG Export Plug-In . SVG Version: 6.00 Build 0)  -->
<svg version="1.1" id="图层_1" xmlns="http://www.w3.org/2000/svg" xmlns:xlink="http://www.w3.org/1999/xlink" x="0px" y="0px"
	 viewBox="0 0 20 20" style="enable-background:new 0 0 20 20;" xml:space="preserve">
<style type="text/css">
	.st0{fill:#040000;}
</style>
<path class="st0" d="M4.6,18.8h-2c-0.6,0-1-0.5-1-1v-15c0-0.5,0.4-1,1-1h2c0.6,0,1,0.5,1,1v15C5.6,18.4,5.1,18.8,4.6,18.8z"/>
<path class="st0" d="M11.3,18.8h-2c-0.6,0-1-0.5-1-1V8.9c0-0.6,0.4-1,1-1h2c0.6,0,1,0.4,1,1v8.9C12.3,18.4,11.8,18.8,11.3,18.8z"/>
<path class="st0" d="M18,18.8h-2c-0.5,0-1-0.5-1-1v-3.1c0-0.6,0.5-1,1-1h2c0.5,0,1,0.4,1,1v3.1C19,18.4,18.5,18.8,18,18.8z"/>
</svg>
