<?xml version="1.0" standalone="no"?><!DOCTYPE svg PUBLIC "-//W3C//DTD SVG 1.1//EN" "http://www.w3.org/Graphics/SVG/1.1/DTD/svg11.dtd"><svg class="icon" width="200px" height="200.00px" viewBox="0 0 1024 1024" version="1.1" xmlns="http://www.w3.org/2000/svg"><path fill="#333333" d="M235.52 962.56h-102.4c-30.72 0-51.2-25.6-51.2-51.2v-768c0-25.6 20.48-51.2 51.2-51.2h102.4c30.72 0 51.2 25.6 51.2 51.2v768c0 30.72-25.6 51.2-51.2 51.2zM578.56 962.56h-102.4c-30.72 0-51.2-25.6-51.2-51.2V455.68c0-30.72 20.48-51.2 51.2-51.2h102.4c30.72 0 51.2 20.48 51.2 51.2v455.68c0 30.72-25.6 51.2-51.2 51.2zM921.6 962.56h-102.4c-25.6 0-51.2-25.6-51.2-51.2v-158.72c0-30.72 25.6-51.2 51.2-51.2h102.4c25.6 0 51.2 20.48 51.2 51.2v158.72c0 30.72-25.6 51.2-51.2 51.2z" /></svg>