<?xml version="1.0" encoding="utf-8"?>
<!-- Generator: Adobe Illustrator 16.0.0, SVG Export Plug-In . SVG Version: 6.00 Build 0)  -->
<!DOCTYPE svg PUBLIC "-//W3C//DTD SVG 1.1//EN" "http://www.w3.org/Graphics/SVG/1.1/DTD/svg11.dtd">
<svg version="1.1" id="图层_1" xmlns="http://www.w3.org/2000/svg" xmlns:xlink="http://www.w3.org/1999/xlink" x="0px" y="0px"
	 width="30px" height="30px" viewBox="0 0 20 20" enable-background="new 0 0 20 20" xml:space="preserve">
<path fill-rule="evenodd" clip-rule="evenodd" fill="#fff" d="M19.473,6.085L19.473,6.085L8.698,16.861
	c-0.254,0.254-0.606,0.411-0.994,0.411s-0.74-0.157-0.994-0.411l-6.091-6.091c-0.254-0.255-0.411-0.605-0.411-0.994
	c0-0.776,0.63-1.405,1.406-1.405c0.388,0,0.739,0.157,0.994,0.411l5.097,5.097l9.782-9.782c0.253-0.254,0.605-0.411,0.992-0.411
	c0.777,0,1.406,0.629,1.406,1.405C19.885,5.479,19.728,5.831,19.473,6.085"/>
</svg>
