<?xml version="1.0" standalone="no"?><!DOCTYPE svg PUBLIC "-//W3C//DTD SVG 1.1//EN" "http://www.w3.org/Graphics/SVG/1.1/DTD/svg11.dtd"><svg t="1527597542938" class="icon" style="" viewBox="0 0 1024 1024" version="1.1" xmlns="http://www.w3.org/2000/svg" p-id="3953" xmlns:xlink="http://www.w3.org/1999/xlink" width="32" height="32"><defs><style type="text/css"></style></defs><path d="M113.777778 0h796.444444a56.888889 56.888889 0 0 1 56.888889 56.888889v910.222222a56.888889 56.888889 0 0 1-56.888889 56.888889H113.777778a56.888889 56.888889 0 0 1-56.888889-56.888889V56.888889a56.888889 56.888889 0 0 1 56.888889-56.888889z m56.888889 170.666667v113.777777h113.777777V170.666667H170.666667z m0 284.444444v113.777778h113.777777V455.111111H170.666667z m227.555555-284.444444v113.777777h455.111111V170.666667H398.222222z m0 284.444444v113.777778h455.111111V455.111111H398.222222z" p-id="3954"></path></svg>