<?xml version="1.0" standalone="no"?><!DOCTYPE svg PUBLIC "-//W3C//DTD SVG 1.1//EN" "http://www.w3.org/Graphics/SVG/1.1/DTD/svg11.dtd"><svg class="icon" width="200px" height="200.00px" viewBox="0 0 1024 1024" version="1.1" xmlns="http://www.w3.org/2000/svg"><path fill="#333333" d="M113.778 0h796.444a56.889 56.889 0 0 1 56.89 56.889V967.11a56.889 56.889 0 0 1-56.89 56.889H113.778a56.889 56.889 0 0 1-56.89-56.889V56.89A56.889 56.889 0 0 1 113.779 0z m56.889 170.667v113.777h113.777V170.667H170.667z m0 284.444V568.89h113.777V455.11H170.667z m227.555-284.444v113.777h455.111V170.667h-455.11z m0 284.444V568.89h455.111V455.11h-455.11z" /></svg>