<?xml version="1.0" standalone="no"?><!DOCTYPE svg PUBLIC "-//W3C//DTD SVG 1.1//EN" "http://www.w3.org/Graphics/SVG/1.1/DTD/svg11.dtd"><svg t="1532511553288" class="icon" style="" viewBox="0 0 1024 1024" version="1.1" xmlns="http://www.w3.org/2000/svg" p-id="2744" xmlns:xlink="http://www.w3.org/1999/xlink" width="32" height="32"><defs><style type="text/css"></style></defs><path d="M939.5712 85.76c-112.64-112.64-294.912-112.64-407.4496 0l-129.024 129.024 67.8912 67.8912 129.024-129.024c71.68-71.6288 192.512-79.2064 271.6672 0 79.2064 79.2576 71.6288 200.0384 0 271.6672l-129.024 129.024 68.0448 68.0448 129.024-129.024a288.4096 288.4096 0 0 0-0.1536-407.6032zM425.472 871.68c-71.6288 71.6288-192.512 79.2064-271.616 0-79.2576-79.2576-71.68-200.0384 0-271.6672l129.024-129.024L214.784 402.944l-129.024 129.024c-112.64 112.64-112.64 294.912 0 407.5008a288 288 0 0 0 407.4496 0l129.024-129.024-67.8912-67.9424-128.9216 129.1776zM177.5104 109.7216a10.7008 10.7008 0 0 0-15.0528 0l-52.736 52.736a10.7008 10.7008 0 0 0 0 15.0528l738.2528 738.2528c4.096 4.096 10.9056 4.096 15.0528 0l52.736-52.736a10.7008 10.7008 0 0 0 0-15.0528L177.4592 109.7216z" p-id="2745"></path></svg>