<?xml version="1.0" standalone="no"?><!DOCTYPE svg PUBLIC "-//W3C//DTD SVG 1.1//EN" "http://www.w3.org/Graphics/SVG/1.1/DTD/svg11.dtd"><svg t="1526035359710" class="icon" style="" viewBox="0 0 1024 1024" version="1.1" xmlns="http://www.w3.org/2000/svg" p-id="4421" xmlns:xlink="http://www.w3.org/1999/xlink" width="32" height="32"><defs><style type="text/css"></style></defs><path d="M512 694.4v-108.8H137.6V153.6c0-3.2 3.2-6.4 6.4-6.4h739.2c3.2 0 6.4 3.2 6.4 6.4v169.6c41.6 25.6 76.8 60.8 99.2 102.4v-288c0-44.8-35.2-80-80-80H115.2c-44.8 0-80 35.2-80 80v512c0 44.8 35.2 80 80 80h313.6v185.6H176v57.6h489.6c-92.8-57.6-153.6-160-153.6-278.4z" p-id="4422"></path><path d="M672 620.8c25.6 0 48-22.4 48-48h-99.2c3.2 25.6 25.6 48 51.2 48zM966.4 768c51.2-70.4 12.8-121.6 12.8-121.6H544C544 1072 982.4 992 966.4 976c-102.4-92.8-67.2-118.4 0-208zM761.6 320c-118.4 0-217.6 96-217.6 217.6h435.2c0-118.4-99.2-217.6-217.6-217.6zM864 620.8c25.6 0 48-22.4 48-48h-99.2c0 25.6 22.4 48 51.2 48z" p-id="4423"></path></svg>