<?xml version="1.0" standalone="no"?><!DOCTYPE svg PUBLIC "-//W3C//DTD SVG 1.1//EN" "http://www.w3.org/Graphics/SVG/1.1/DTD/svg11.dtd"><svg t="1526035364808" class="icon" style="" viewBox="0 0 1024 1024" version="1.1" xmlns="http://www.w3.org/2000/svg" p-id="4658" xmlns:xlink="http://www.w3.org/1999/xlink" width="32" height="32"><defs><style type="text/css"></style></defs><path d="M608 320h256v597.952c0 23.264-19.264 42.048-43.008 42.048H203.008C179.264 960 160 941.216 160 917.952V106.048C160 82.912 179.264 64 203.008 64H608v256z m32-256l224 224h-224V64z m-132.896 288C421.44 352 352 423.648 352 512h310.272c0-88.384-69.472-160-155.168-160z m-56.064 227.04c19.328 0 35.008-15.68 35.008-35.04H416c0 19.328 15.68 35.04 35.04 35.04z m127.968 0c19.392 0 35.04-15.68 35.04-35.04H544c0 19.328 15.68 35.04 35.008 35.04zM352 608c0 316.416 314.208 255.136 301.92 243.744-73.376-67.392-48.512-85.568-0.96-153.856 36.48-52.416 9.28-89.888 9.28-89.888H352z" p-id="4659"></path></svg>