<?xml version="1.0" encoding="utf-8"?>
<!-- Generator: Adobe Illustrator 16.0.0, SVG Export Plug-In . SVG Version: 6.00 Build 0)  -->
<!DOCTYPE svg PUBLIC "-//W3C//DTD SVG 1.0//EN" "http://www.w3.org/TR/2001/REC-SVG-20010904/DTD/svg10.dtd">
<svg version="1.0" id="图层_1" xmlns="http://www.w3.org/2000/svg" xmlns:xlink="http://www.w3.org/1999/xlink" x="0px" y="0px"
	 width="20px" height="20px" viewBox="0 0 20 20" enable-background="new 0 0 20 20" xml:space="preserve">
<g>
	<path fill="#1C374B" d="M8.101,9.96L7.299,5.625C7.267,5.467,7.226,5.347,7.172,5.266C7.118,5.184,7.044,5.127,6.951,5.098V4.15
		h1.924v0.947c-0.092,0.01-0.157,0.036-0.193,0.078C8.644,5.217,8.626,5.288,8.626,5.387c0,0.039,0.001,0.078,0.004,0.119
		c0.002,0.041,0.006,0.081,0.012,0.121l0.447,2.699L9.79,4.15h1.022l0.768,4.154l0.343-2.619c0.004-0.033,0.009-0.084,0.019-0.151
		c0.009-0.067,0.013-0.11,0.013-0.132c0-0.086-0.018-0.152-0.055-0.196c-0.038-0.044-0.101-0.081-0.192-0.108V4.15h1.679v0.947
		c-0.096,0.04-0.168,0.098-0.217,0.17s-0.088,0.212-0.119,0.418L12.371,9.96h-1.574l-0.593-3.183L9.695,9.96H8.101z"/>
</g>
<path fill="#1C374B" d="M19.776,17.462l-2.16-5.151V2.903c0-0.867-0.7-1.568-1.568-1.568H4.288c-0.865,0-1.568,0.701-1.568,1.568
	v9.407l-2.465,5.185c-0.416,0.897,0.283,1.089,2.075,1.089h15.679C19.012,18.584,20.192,18.277,19.776,17.462z M4.679,4.158
	c0-0.479,0.384-0.864,0.863-0.864h9.252c0.479,0,0.863,0.386,0.863,0.864v6.115c0,0.477-0.385,0.86-0.863,0.86H5.542
	c-0.479,0-0.863-0.384-0.863-0.86V4.158z M7.056,16.232l0.6-1.57h5.297l0.605,1.57H7.056z M4.645,13.229l0.233-0.493h10.896
	l0.2,0.493H4.645z"/>
</svg>
