<?xml version="1.0" standalone="no"?><!DOCTYPE svg PUBLIC "-//W3C//DTD SVG 1.1//EN" "http://www.w3.org/Graphics/SVG/1.1/DTD/svg11.dtd"><svg t="1531469959001" class="icon" style="" viewBox="0 0 1024 1024" version="1.1" xmlns="http://www.w3.org/2000/svg" p-id="4409" xmlns:xlink="http://www.w3.org/1999/xlink" width="200" height="200"><defs><style type="text/css"></style></defs><path d="M859.1872 361.6768l-0.2048-8.8064a235.008 235.008 0 0 0-226.5088-226.3552l-8.6016-0.1536a43.6736 43.6736 0 0 1 0-87.1936l8.6016 0.2048c79.8208 2.1504 158.72 33.4848 219.2896 94.3104a320.7168 320.7168 0 0 1 94.4128 219.1872l0.1024 8.8064a43.52 43.52 0 0 1-87.0912 0z" p-id="4410"></path><path d="M590.8992 241.2032c0-19.2 15.616-34.8672 34.9184-34.8672l6.912 0.1536a145.408 145.408 0 0 1 96.6144 42.752c26.88 26.7776 41.1136 61.3888 42.8032 96.4608l0.1024 7.0144a34.8672 34.8672 0 0 1-69.7344 0 75.776 75.776 0 0 0-22.528-54.2208 76.544 76.544 0 0 0-47.3088-22.2208s-4.5056-0.256-6.912-0.256a34.7648 34.7648 0 0 1-34.8672-34.816zM257.7408 209.0496c-52.1728 144.3328-20.3264 311.9616 96.4608 426.3424 116.7872 114.2784 285.0816 142.5408 428.288 87.3472L257.7408 209.0496zM276.48 814.4896a141.312 141.312 0 0 0-141.312 141.312h282.624a141.312 141.312 0 0 0-141.312-141.312z" p-id="4411"></path><path d="M524.6464 522.3936A43.4176 43.4176 0 0 1 463.5136 460.8l102.6048-101.9904a43.4176 43.4176 0 0 1 61.184 61.5424l-102.656 102.0416zM320.3072 720.2816a34.304 34.304 0 1 1-48.384-48.6912l81.2032-80.5888a34.304 34.304 0 0 1 48.5376 0.1024 34.4064 34.4064 0 0 1-0.1536 48.5888l-81.2032 80.5888z" p-id="4412"></path><path d="M305.8176 840.9088a29.4912 29.4912 0 0 1-58.9312-0.2048l0.3584-98.304a29.5424 29.5424 0 0 1 29.5424-29.3888 29.5424 29.5424 0 0 1 29.3888 29.5936l-0.3584 98.304z" p-id="4413"></path><path d="M276.48 712.0384m-65.9968 0a65.9968 65.9968 0 1 0 131.9936 0 65.9968 65.9968 0 1 0-131.9936 0Z" p-id="4414"></path></svg>