<?xml version="1.0" standalone="no"?><!DOCTYPE svg PUBLIC "-//W3C//DTD SVG 1.1//EN" "http://www.w3.org/Graphics/SVG/1.1/DTD/svg11.dtd"><svg class="icon" width="200px" height="200.00px" viewBox="0 0 1024 1024" version="1.1" xmlns="http://www.w3.org/2000/svg"><path fill="#1C374B" d="M477.866667 750.933333a273.066667 273.066667 0 1 1 0-546.133333 273.066667 273.066667 0 0 1 0 546.133333z m0-68.266666a204.8 204.8 0 1 0 0-409.6 204.8 204.8 0 0 0 0 409.6zM624.401067 672.6656l48.264533-48.264533 120.695467 120.661333-48.264534 48.298667zM494.933333 375.466667h-34.133333a17.066667 17.066667 0 0 0-17.066667 17.066666V443.733333h-51.2a17.066667 17.066667 0 0 0-17.066666 17.066667v34.133333a17.066667 17.066667 0 0 0 17.066666 17.066667H443.733333v51.2a17.066667 17.066667 0 0 0 17.066667 17.066667h34.133333a17.066667 17.066667 0 0 0 17.066667-17.066667V512h51.2a17.066667 17.066667 0 0 0 17.066667-17.066667v-34.133333a17.066667 17.066667 0 0 0-17.066667-17.066667H512v-51.2a17.066667 17.066667 0 0 0-17.066667-17.066666z" /></svg>