<?xml version="1.0" standalone="no"?><!DOCTYPE svg PUBLIC "-//W3C//DTD SVG 1.1//EN" "http://www.w3.org/Graphics/SVG/1.1/DTD/svg11.dtd"><svg class="icon" width="200px" height="200.00px" viewBox="0 0 1024 1024" version="1.1" xmlns="http://www.w3.org/2000/svg"><path fill="#1C374B" d="M563.2 443.733333h-170.666667a17.066667 17.066667 0 0 0-17.066666 17.066667v34.133333a17.066667 17.066667 0 0 0 17.066666 17.066667h170.666667a17.066667 17.066667 0 0 0 17.066667-17.066667v-34.133333a17.066667 17.066667 0 0 0-17.066667-17.066667zM477.866667 750.933333a273.066667 273.066667 0 1 1 0-546.133333 273.066667 273.066667 0 0 1 0 546.133333z m0-68.266666a204.8 204.8 0 1 0 0-409.6 204.8 204.8 0 0 0 0 409.6zM624.401067 672.6656l48.264533-48.264533 120.695467 120.661333-48.264534 48.298667z" /></svg>