<?xml version="1.0" encoding="utf-8"?>
<!-- Generator: Adobe Illustrator 16.0.0, SVG Export Plug-In . SVG Version: 6.00 Build 0)  -->
<!DOCTYPE svg PUBLIC "-//W3C//DTD SVG 1.1//EN" "http://www.w3.org/Graphics/SVG/1.1/DTD/svg11.dtd">
<svg version="1.1" id="图层_1" xmlns="http://www.w3.org/2000/svg" xmlns:xlink="http://www.w3.org/1999/xlink" x="0px" y="0px"
	 width="20px" height="20px" viewBox="0 0 20 20" enable-background="new 0 0 20 20" xml:space="preserve">
<style type="text/css">
	.file-stroke {
		fill: #3b495a;
	}
	.file-fill {
		fill: #FFF;
	}
</style>
<path class="file-stroke" d="M16.776,1.505h-2.457L8.15,1.516L3.25,1.505c-0.497,0-0.899,0.372-0.899,0.832V6.67v7.314v4.185
	C2.351,18.628,2.753,19,3.25,19h8.67c0.24,0,0.471-0.09,0.64-0.248l4.854-4.58c0.165-0.156,0.259-0.365,0.259-0.584V2.337
	C17.675,1.876,17.274,1.505,16.776,1.505z"/>
<path class="file-fill" d="M15.948,2.575h-2.156l-5.415,0.01l-4.299-0.01c-0.436,0-0.79,0.327-0.79,0.73v3.803v6.418V17.2
	c0,0.402,0.354,0.729,0.79,0.729h7.608c0.212,0,0.413-0.078,0.562-0.217l4.261-4.02c0.146-0.137,0.227-0.32,0.227-0.513V3.306
	C16.736,2.902,16.386,2.575,15.948,2.575z"/>
<path class="file-stroke" d="M7.58,12.849H5.03c-0.387,0-0.702-0.315-0.702-0.702c0-0.386,0.315-0.701,0.702-0.701h2.55
	c0.387,0,0.702,0.315,0.702,0.701C8.281,12.533,7.966,12.849,7.58,12.849z"/>
<path class="file-stroke" d="M15.183,12.849h-3.602v3.468c0,0.386-0.316,0.702-0.702,0.702s-0.701-0.316-0.701-0.702v-4.17
	c0-0.386,0.315-0.701,0.701-0.701c0.023,0,0.044,0.011,0.067,0.013c0.022-0.002,0.043-0.013,0.066-0.013h4.17
	c0.386,0,0.702,0.315,0.702,0.701C15.885,12.533,15.568,12.849,15.183,12.849z"/>
</svg>
