<svg xmlns="http://www.w3.org/2000/svg" viewBox="0 0 250 250"><defs><style>.cls-1,.cls-10,.cls-12,.cls-3,.cls-6{fill:#2b75c8;}.cls-1{opacity:0.05;}.cls-11,.cls-2,.cls-5,.cls-7{fill:none;}.cls-11,.cls-2,.cls-5,.cls-7,.cls-8{stroke:#2b75c8;stroke-miterlimit:10;}.cls-2{opacity:0.5;}.cls-4,.cls-8{fill:#fff;}.cls-6{opacity:0.2;}.cls-7{stroke-width:5px;}.cls-11,.cls-8{stroke-width:0.5px;}.cls-9{opacity:0.41;}.cls-10{font-size:11px;}.cls-10,.cls-12{font-family:FZLTTHK--GBK1-0, Lantinghei SC;}.cls-11{opacity:0.4;}.cls-12{font-size:12px;}</style></defs><title>资源 3</title><g id="图层_2" data-name="图层 2"><g id="图层_1-2" data-name="图层 1"><circle class="cls-1" cx="125" cy="125" r="125"/><line class="cls-2" x1="176.2" y1="64.66" x2="192.5" y2="55.5"/><line class="cls-2" x1="45.5" y1="119.5" x2="73.32" y2="105.51"/><circle class="cls-3" cx="128" cy="156" r="4"/><circle class="cls-4" cx="128" cy="156" r="1.05"/><line class="cls-5" x1="128" y1="160" x2="128" y2="209"/><rect class="cls-6" x="76" y="12" width="99" height="132" rx="5.53" ry="5.53"/><rect class="cls-7" x="74.5" y="11" width="101" height="133.5" rx="3.69" ry="3.69"/><rect class="cls-8" x="81" y="17" width="88" height="105"/><g class="cls-9"><rect class="cls-6" x="86" y="49" width="77" height="10"/></g><g class="cls-9"><rect class="cls-6" x="86" y="62" width="77" height="10"/></g><g class="cls-9"><rect class="cls-6" x="86" y="75" width="77" height="10"/></g><g class="cls-9"><rect class="cls-6" x="86" y="88" width="77" height="10" transform="translate(249 186) rotate(180)"/></g><g class="cls-9"><rect class="cls-6" x="86" y="101" width="50" height="10" transform="translate(222 212) rotate(180)"/></g><text class="cls-10" transform="translate(87.21 33.95)">分析报告</text><line class="cls-11" x1="86" y1="42" x2="163" y2="42"/><text class="cls-12" transform="translate(18.79 128.11)">IOC</text><path class="cls-3" d="M198.23,122.23h1.08v2.06h-2.06v-1.83a2.73,2.73,0,0,1,1.73-2.67l.47.75A1.91,1.91,0,0,0,198.23,122.23Zm2.63,0h1.08v2.06h-2.07v-1.83a2.74,2.74,0,0,1,1.74-2.67l.47.75A1.8,1.8,0,0,0,200.86,122.23Z"/><path class="cls-3" d="M202.78,120.12h1.64l2.34,12h-1.64Z"/><path class="cls-3" d="M207.94,124.34l-.47-.7a2,2,0,0,0,1.22-1.69h-1.08v-2.06h2.06v1.82A2.64,2.64,0,0,1,207.94,124.34Zm2.62,0-.51-.7a2,2,0,0,0,1.26-1.69h-1.08v-2.06h2.07v1.82A2.65,2.65,0,0,1,210.56,124.34Z"/><path class="cls-3" d="M204.56,40.2a6.74,6.74,0,0,0-6.74,6.74H211.3A6.74,6.74,0,0,0,204.56,40.2Z"/><path class="cls-3" d="M201.84,49.55A1.53,1.53,0,0,0,203.36,48h-3A1.53,1.53,0,0,0,201.84,49.55Z"/><path class="cls-3" d="M207.71,49.55A1.53,1.53,0,0,0,209.23,48h-3A1.53,1.53,0,0,0,207.71,49.55Z"/><path class="cls-3" d="M197.82,50.27H211.3s1.18,1.57-.4,3.77c-2.07,2.86-3.15,3.62,0,6.45C211.47,61,197.82,63.53,197.82,50.27Z"/><line class="cls-2" x1="176.2" y1="126.5" x2="192.5" y2="126.5"/><line class="cls-2" x1="46.5" y1="126.5" x2="73.32" y2="126.5"/><line class="cls-2" x1="204.5" y1="68" x2="204.5" y2="114.5"/><rect class="cls-3" x="77" y="230" width="96" height="20" rx="3.69" ry="3.69"/><path class="cls-3" d="M165.39,223.21v-6.44a4.85,4.85,0,0,0-4.83-4.84h-8.06l0,16.1,8,0A4.83,4.83,0,0,0,165.39,223.21Zm-59.67-11.36,0,16.1,43.6.24,0-16.11ZM84.61,220l18,7.81,0-16Z"/></g></g></svg>