<svg xmlns="http://www.w3.org/2000/svg" xmlns:xlink="http://www.w3.org/1999/xlink" viewBox="0 0 250 250"><defs><style>.cls-1,.cls-2,.cls-4{fill:#2b75c8;}.cls-1{opacity:0.05;}.cls-2{opacity:0.2;}.cls-3{fill:none;stroke:#2b75c8;stroke-miterlimit:10;stroke-width:5px;}.cls-5{fill:url(#未命名的渐变_8);}.cls-6{fill:url(#未命名的渐变_8-2);}</style><linearGradient id="未命名的渐变_8" x1="125" y1="113.34" x2="125" y2="184.66" gradientUnits="userSpaceOnUse"><stop offset="0" stop-color="#2b75c8"/><stop offset="1" stop-color="#2b75c8" stop-opacity="0"/></linearGradient><linearGradient id="未命名的渐变_8-2" y1="82" y2="102" xlink:href="#未命名的渐变_8"/></defs><title>资源 1</title><g id="图层_2" data-name="图层 2"><g id="图层_1-2" data-name="图层 1"><circle class="cls-1" cx="125" cy="125" r="125"/><rect class="cls-2" x="63" y="11" width="124" height="97"/><rect class="cls-2" x="65" y="16" width="53" height="87"/><rect class="cls-3" x="60.81" y="11.5" width="128.38" height="31.88" rx="2.42" ry="2.42"/><rect class="cls-4" x="153.48" y="24.89" width="18.7" height="5.1" rx="2" ry="2"/><rect class="cls-3" x="60.81" y="43.81" width="128.38" height="31.88" rx="2.42" ry="2.42"/><rect class="cls-4" x="153.48" y="57.2" width="18.7" height="5.1" rx="2" ry="2"/><rect class="cls-3" x="60.81" y="76.12" width="128.38" height="31.88" rx="2.42" ry="2.42"/><rect class="cls-4" x="153.48" y="89.51" width="18.7" height="5.1" rx="2" ry="2"/><path class="cls-4" d="M68.12,20.32H82.8v3.86H77.87V36H73V24.18H68.12Z"/><path class="cls-4" d="M85.18,20.32H90V36H85.18Z"/><path class="cls-4" d="M93.46,20.32h8a5.49,5.49,0,0,1,3.92,1.25,4.67,4.67,0,0,1,1.31,3.55,4.83,4.83,0,0,1-1.42,3.7A6.22,6.22,0,0,1,101,30.15H98.31V36H93.46ZM98.31,27h1.18a3.05,3.05,0,0,0,2-.48,1.57,1.57,0,0,0,.57-1.24,1.71,1.71,0,0,0-.49-1.25,2.56,2.56,0,0,0-1.85-.51H98.31Z"/><path class="cls-4" d="M163.14,200.07H86.86c-2.55,0-4.37,2.45-4.07,5.44l6.07,36.59a4.39,4.39,0,0,0,4.25,3.9h63.78a4.39,4.39,0,0,0,4.25-3.9l6.07-36.59C167.51,202.52,165.69,200.07,163.14,200.07Zm-8.25-13.16H118.21l-6-7.91H95.27a4.61,4.61,0,0,0-4.61,4.61v6.69h68.68A4.62,4.62,0,0,0,154.89,186.91Zm8.63,11,.22-2H86.26l.22,2Zm-1.61-3.74.29-2.09H87.8l.29,2.09Z"/><polygon class="cls-5" points="125 113.34 101 144.2 115.4 144.2 117.7 184.66 125 184.66 132.3 184.66 134.6 144.2 149 144.2 125 113.34"/><polygon class="cls-6" points="125 82 107.14 93.75 117.86 93.75 119.29 102 125 102 130.71 102 132.14 93.75 142.86 93.75 125 82"/></g></g></svg>