<?xml version="1.0" standalone="no"?><!DOCTYPE svg PUBLIC "-//W3C//DTD SVG 1.1//EN" "http://www.w3.org/Graphics/SVG/1.1/DTD/svg11.dtd"><svg t="1531980907754" class="icon" style="" viewBox="0 0 1024 1024" version="1.1" xmlns="http://www.w3.org/2000/svg" p-id="3954" xmlns:xlink="http://www.w3.org/1999/xlink" width="200" height="200"><defs><style type="text/css"></style></defs><path d="M937.0624 28.2112H89.6C42.752 28.2112 4.864 66.2016 4.864 112.9472v546.9696c0 46.848 37.9392 84.7872 84.736 84.7872h847.4624c46.7968 0 84.736-37.9392 84.736-84.7872V112.9472c0-46.7968-37.9392-84.736-84.736-84.736z m-22.5792 565.248H112.0768V130.1504a7.168 7.168 0 0 1 7.168-7.168h788.1216a7.168 7.168 0 0 1 7.168 7.168v463.3088z" p-id="3955"></path><path d="M423.3728 741.9392h182.4256v214.3744H423.3728z" p-id="3956"></path><path d="M152.3712 938.496h724.4288v62.6176H152.3712z" p-id="3957"></path><path d="M513.28 672.3072m-31.5904 0a31.5904 31.5904 0 1 0 63.1808 0 31.5904 31.5904 0 1 0-63.1808 0Z" p-id="3958"></path></svg>