<?xml version="1.0" standalone="no"?><!DOCTYPE svg PUBLIC "-//W3C//DTD SVG 1.1//EN" "http://www.w3.org/Graphics/SVG/1.1/DTD/svg11.dtd"><svg t="1518082746905" class="icon" style="" viewBox="0 0 1024 1024" version="1.1" xmlns="http://www.w3.org/2000/svg" p-id="1711" xmlns:xlink="http://www.w3.org/1999/xlink" width="200" height="200"><defs><style type="text/css"></style></defs><path d="M972.8 276.48c0-15.36-30.72-20.48-30.72-20.48-30.72-5.12-61.44-5.12-87.04-10.24-40.96 0-76.8-5.12-107.52-5.12-46.08 0-92.16 0-133.12 5.12-30.72 10.24-61.44 10.24-92.16 10.24-35.84 0-66.56 0-97.28-5.12-40.96-5.12-81.92-5.12-128-5.12-30.72 0-66.56 0-107.52 5.12-30.72 0-56.32 0-92.16 5.12 0 0-25.6 5.12-30.72 20.48 0 10.24-5.12 30.72 5.12 40.96 10.24 15.36 20.48 30.72 20.48 51.2 0 40.96 10.24 76.8 30.72 112.64 20.48 35.84 51.2 56.32 87.04 61.44 25.6 5.12 51.2 5.12 76.8 5.12s46.08 0 71.68-5.12c56.32-10.24 92.16-40.96 107.52-92.16 10.24-25.6 15.36-51.2 20.48-81.92 0-5.12 5.12-15.36 5.12-20.48 5.12-15.36 10.24-20.48 20.48-20.48s15.36 5.12 20.48 20.48c0 5.12 5.12 15.36 5.12 20.48 5.12 25.6 10.24 51.2 20.48 81.92 15.36 51.2 56.32 81.92 107.52 92.16 25.6 5.12 46.08 5.12 71.68 5.12 25.6 0 51.2 0 76.8-5.12 40.96-5.12 71.68-25.6 87.04-61.44 20.48-35.84 30.72-71.68 30.72-112.64 0-20.48 5.12-35.84 20.48-51.2 20.48-10.24 20.48-30.72 20.48-40.96z m-286.72 215.04c-51.2-10.24-81.92-40.96-92.16-92.16v-25.6-20.48c0-20.48 5.12-35.84 25.6-40.96 25.6-10.24 46.08-15.36 71.68-15.36 20.48 0 40.96-5.12 56.32-5.12 30.72 0 61.44 5.12 92.16 10.24 40.96 10.24 51.2 25.6 51.2 66.56 0 25.6-5.12 51.2-15.36 76.8-10.24 30.72-35.84 46.08-81.92 51.2h-66.56c-10.24 0-25.6 0-40.96-5.12z m-373.76 5.12H245.76c-40.96-5.12-66.56-20.48-81.92-51.2-10.24-20.48-15.36-46.08-15.36-76.8 0-40.96 5.12-56.32 51.2-66.56 25.6-5.12 56.32-10.24 92.16-10.24 20.48 0 35.84 0 56.32 5.12 25.6 0 46.08 10.24 71.68 15.36 20.48 5.12 25.6 20.48 25.6 40.96v46.08c-10.24 51.2-40.96 87.04-92.16 92.16-15.36 5.12-30.72 5.12-40.96 5.12zM865.28 691.2c-20.48-10.24-40.96-10.24-61.44-5.12H834.56c10.24 5.12 20.48 10.24 25.6 20.48 10.24 30.72-25.6 56.32-61.44 51.2-51.2-5.12-76.8-40.96-107.52-76.8-5.12-5.12-10.24-15.36-20.48-20.48-35.84-40.96-102.4-40.96-138.24 5.12l-5.12 5.12c0-5.12-5.12-5.12-5.12-5.12-35.84-40.96-102.4-46.08-138.24-5.12-5.12 5.12-10.24 15.36-20.48 20.48-30.72 30.72-56.32 66.56-107.52 76.8-35.84 5.12-71.68-25.6-61.44-51.2 5.12-10.24 15.36-20.48 25.6-20.48h30.72c-20.48-5.12-46.08-5.12-61.44 5.12-25.6 10.24-30.72 35.84-25.6 56.32 10.24 30.72 30.72 51.2 66.56 61.44 35.84 10.24 71.68 20.48 107.52 20.48 56.32 5.12 107.52 0 153.6-25.6 15.36-5.12 25.6-15.36 40.96-25.6 15.36 10.24 25.6 15.36 40.96 25.6 46.08 25.6 97.28 30.72 153.6 25.6 35.84-5.12 76.8-10.24 107.52-20.48 35.84-10.24 61.44-30.72 66.56-61.44-5.12-25.6-15.36-46.08-35.84-56.32z" p-id="1712"></path></svg>