<?xml version="1.0" standalone="no"?><!DOCTYPE svg PUBLIC "-//W3C//DTD SVG 1.1//EN" "http://www.w3.org/Graphics/SVG/1.1/DTD/svg11.dtd"><svg t="1522828305545" class="icon" style="" viewBox="0 0 1641 1024" version="1.1" xmlns="http://www.w3.org/2000/svg" p-id="1097" xmlns:xlink="http://www.w3.org/1999/xlink" width="320.5078125" height="200"><defs><style type="text/css"></style></defs><path d="M1610.605568 86.016a53.248 53.248 0 0 0-45.056-65.536l-102.4-11.264a51.2 51.2 0 0 0-56.32 37.888c-30.72 102.4-149.504 349.184-596.992 349.184-418.816 0-568.32-259.072-614.4-363.52a51.2 51.2 0 0 0-61.44-30.72L42.861568 26.624A53.248 53.248 0 0 0 2.925568 96.256a776.192 776.192 0 0 0 307.2 367.616L131.949568 643.072a52.224 52.224 0 0 0 0 75.776l69.632 68.608a51.2 51.2 0 0 0 74.752 0l232.448-231.424c66.6624 20.48 135.2704 33.792 204.8 39.936v307.2c0 28.8768 23.3472 52.224 52.224 52.224h102.4a52.224 52.224 0 0 0 52.224-52.224v-307.2a1055.744 1055.744 0 0 0 186.368-30.72l219.136 223.232a52.224 52.224 0 0 0 73.728 0l70.656-71.68a52.224 52.224 0 0 0 0-73.728l-162.816-163.84A679.936 679.936 0 0 0 1610.605568 86.016z" p-id="1098"></path></svg>