<?xml version="1.0" encoding="utf-8"?>
<!-- Generator: Adobe Illustrator 16.0.0, SVG Export Plug-In . SVG Version: 6.00 Build 0)  -->
<!DOCTYPE svg PUBLIC "-//W3C//DTD SVG 1.1//EN" "http://www.w3.org/Graphics/SVG/1.1/DTD/svg11.dtd">
<svg version="1.1" id="图层_1" xmlns="http://www.w3.org/2000/svg" xmlns:xlink="http://www.w3.org/1999/xlink" x="0px" y="0px"
	 width="20px" height="20px" viewBox="0 0 20 20" enable-background="new 0 0 20 20" xml:space="preserve">
<path d="M10,0.232c-5.395,0-9.768,4.373-9.768,9.768S4.605,19.768,10,19.768s9.768-4.373,9.768-9.768S15.395,0.232,10,0.232z
	 M11.7,13.609l-3.493,3.483c-0.177,0.172-0.457,0.172-0.633,0L3.432,12.95c-0.169-0.173-0.169-0.45,0-0.623l3.501-3.501
	C7.015,8.74,7.127,8.691,7.246,8.691S7.477,8.74,7.558,8.826l0.565,0.565c0.084,0.084,0.131,0.198,0.131,0.316
	s-0.047,0.232-0.131,0.316l-2.616,2.615l2.379,2.396l2.624-2.616c0.082-0.085,0.194-0.133,0.313-0.133
	c0.118,0,0.231,0.048,0.312,0.133l0.565,0.565c0.086,0.081,0.136,0.194,0.136,0.312C11.836,13.415,11.786,13.528,11.7,13.609z
	 M12.419,7c0.172-0.171,0.45-0.171,0.621,0l0.526,0.525c0.171,0.171,0.171,0.449,0,0.62L8.219,13.49
	c-0.171,0.172-0.449,0.172-0.621,0l-0.525-0.523c-0.171-0.172-0.171-0.45,0-0.621L12.419,7z M13.666,11.66
	c-0.079,0.085-0.19,0.133-0.308,0.133c-0.115,0-0.228-0.048-0.309-0.133l-0.573-0.574c-0.168-0.17-0.168-0.444,0-0.615l2.641-2.658
	l-2.403-2.388l-2.659,2.633c-0.171,0.168-0.445,0.168-0.616,0l-0.54-0.616c-0.168-0.171-0.168-0.445,0-0.616l3.51-3.477
	c0.171-0.168,0.445-0.168,0.616,0l4.15,4.151c0.17,0.171,0.17,0.445,0,0.616L13.666,11.66z"/>
</svg>
