<?xml version="1.0" encoding="utf-8"?>
<!-- Generator: Adobe Illustrator 22.0.0, SVG Export Plug-In . SVG Version: 6.00 Build 0)  -->
<svg version="1.1" id="图层_1" xmlns="http://www.w3.org/2000/svg" xmlns:xlink="http://www.w3.org/1999/xlink" x="0px" y="0px"
	 viewBox="0 0 20 20" style="enable-background:new 0 0 20 20;" xml:space="preserve">
<path d="M8.9,5.1c-0.2,0-0.1,0.2-0.2,0.2C8.6,5.3,8.6,5.1,8.9,5.1z M9.5,5.2c0.2,0,0.2,0.1,0.3,0.1C9.9,5.2,9.8,5,9.5,5.2z M16,17.6
	c-0.6,0.3-1.3,0.9-1.6,1.2c-0.2,0.2-1.1,0.3-1.6,0c-0.6-0.3-0.3-0.8-1.2-0.8c-0.4,0-0.9,0-1.3,0c-0.4,0-0.8,0-1.2,0
	c-1.3,0-1.5,0.9-2.3,0.9c-0.6,0-1.3-0.5-2.6-0.7C3.4,18,2.6,18,2.4,17.6c-0.2-0.4,0.2-0.8,0.3-1.2c0-0.5-0.4-1.2-0.1-1.5
	c0.3-0.2,0.8-0.1,1.2-0.3c0.4-0.2,0.5-0.4,0.5-0.9c0.1,0.5,0,0.9-0.3,1.1C3.8,15,3.4,15,3.1,15c-0.2,0-0.4,0-0.4,0.1
	c-0.1,0.1-0.1,0.3,0.1,0.6C2.9,15.9,3,16.1,3,16.4c0,0.3-0.4,0.7-0.3,1c0,0.1,0.1,0.2,0.4,0.3c0.4,0.1,1.1,0.2,1.8,0.4
	c0.8,0.2,1.6,0.6,2.1,0.5c1.5-0.2,0.7-1.9,0.4-2.2c-1.3-2-2.1-3.4-2.8-2.8c-0.2,0.1-0.2-0.3-0.2-0.5c0-0.7,0.4-0.9,0.6-1.4
	c0.4-1,0.7-2.1,1.3-2.7c0.4-0.6,1.1-1.5,1.2-2c-0.1-1-0.1-2.2-0.2-3.1c0-1,0.1-1.9,1.3-2.6C8.9,1.1,9.3,1,9.7,1c0.7,0,1.5,0.2,2,0.6
	c0.8,0.6,1.3,1.8,1.2,2.7c0,0.7,0.1,1.4,0.3,2.1c0.3,0.9,0.7,1.5,1.3,2.2c0.8,0.8,1.4,2.5,1.6,3.6c0.2,1,0,1.6-0.3,1.6
	c-0.3,0-0.5,1.1-1.5,1c-0.6,0-0.7-0.4-0.9-0.7c-0.3-0.5-0.6-0.4-0.7,0.2c-0.1,0.3,0,0.7,0.1,1c0.2,0.6,0.1,1.2,0,2
	c-0.2,1.4,1,1.7,1.8,1c0.8-0.7,1-0.8,1.9-1.1c1.5-0.5,1-1,0.2-1.2c-0.7-0.2-0.8-1.5-0.5-1.7c0.1,1.3,0.7,1.5,1,1.7
	C18.5,16.6,16.7,17.2,16,17.6z M12.7,13.8c0.1-0.2,0.3-0.2,0.5-0.2c0-0.8,1.3-0.7,1.7-0.4c0-0.2-0.4-0.4-0.5-0.4
	c0.3-0.9,0.1-1.3,0-2.1c-0.1-0.6-0.7-1.5-1.2-1.8c0.1,0.1,0.3,0.4,0.6,0.8c0.4,0.8,0.8,1.9,0.5,2.8c-0.1,0.4-0.3,0.4-0.5,0.4
	C13,13,13.4,12,13.1,10.8c-0.3-1.4-0.7-1.5-0.8-1.6c-0.4-1.8-0.9-1.6-1-2.3c-0.1-0.6,0.5-1.1-0.3-1.3c-0.3-0.1-0.7-0.3-0.8-0.3
	c-0.2,0-0.2-1,0.3-1c0.6,0,0.7,0.6,0.6,0.9c-0.2,0.3,0,0.4,0.3,0.3c0.2-0.1,0.1-0.7,0.1-0.7c-0.1-0.8-0.5-1-0.9-1
	C9.3,3.7,9.9,5.2,9.8,5C9.6,4.8,9,5,9,4.9c0-0.8-0.2-1.2-0.6-1.2C8,3.6,7.8,4.2,7.8,4.5c0,0.3,0.2,0.9,0.3,0.9
	c0.1,0,0.3-0.2,0.1-0.2C8.1,5.2,8,5,8,4.7C8,4.4,8,4.2,8.4,4.2C8.8,4.2,8.8,5,8.7,5C8.6,5.1,8.4,5.3,8.4,5.3C8.3,5.5,8,5.6,8,5.7
	C7.8,5.8,7.7,6.1,7.9,6.1c0.5,0.3,0.3,0.6,0.9,0.6c0.4,0,0.7-0.1,1-0.2c0.2-0.1,0.9-0.2,1.1-0.5C11,6,11.1,6,11.1,6
	C11.2,6,11.3,6.2,11,6.3c-0.4,0.1-0.7,0.3-1,0.4C9.7,6.8,9.6,6.9,9.3,6.9C8.6,7.1,8.1,6.7,8.6,7.1c0.1,0.1,0.3,0.2,0.7,0.2
	c0.8,0,1.8-1,1.9-0.6c0,0.1-0.3,0.2-0.5,0.3C9.8,7.5,9.3,8.2,8.8,8C8.3,7.7,7.9,6.6,7.9,7.1c0,0.8-1,1.5-0.5,2.3
	C7,9.5,6.3,11,6.2,11.8c-0.1,0.4,0,1-0.1,1.3c-0.2,0.4-0.8-0.4-0.6-1.5c0-0.2,0-0.2,0-0.1c-0.3,0.5-0.1,1.2,0.1,1.7
	c0.1,0.2,0.3,0.3,0.5,0.5c0.4,0.4,1.7,1.4,2,1.7c0.3,0.3,0.2,1-0.4,1C8,17,8.3,17,8.3,18c0.4-0.2,0.2-0.6,0.1-0.9
	c-0.1-0.2-0.3-0.3-0.2-0.3c0,0,0.2-0.2,0.3-0.1c0.3,0.4,1,0.4,1.7,0.4c0.7-0.1,1.4-0.3,1.8-0.9c0.2-0.3,0.3-0.3,0.4-0.3
	c0.1,0,0.1,0.2,0.1,0.5c0,0.3-0.1,0.7-0.2,0.9c-0.1,0.3-0.1,0.5,0.2,0.5c0.1-0.6,0.2-1.1,0.3-1.7C12.7,15.5,12.2,14.4,12.7,13.8z
	 M8.5,4.7c0,0.1,0,0.2,0.1,0.2c0,0,0,0,0,0c0-0.3-0.1-0.4-0.1-0.4c-0.1,0-0.1,0.1,0,0.1C8.4,4.5,8.5,4.6,8.5,4.7z M10.7,4.3
	C10.6,4.4,10.7,4.4,10.7,4.3c0.1,0.1,0.1,0.3,0.1,0.4c0,0,0.1,0,0.1-0.1C11,4.5,10.8,4.3,10.7,4.3z"/>
</svg>
