<?xml version="1.0" encoding="utf-8"?>
<!-- Generator: Adobe Illustrator 22.0.0, SVG Export Plug-In . SVG Version: 6.00 Build 0)  -->
<svg version="1.1" id="图层_1" xmlns="http://www.w3.org/2000/svg" xmlns:xlink="http://www.w3.org/1999/xlink" x="0px" y="0px"
	 viewBox="0 0 20 20" style="enable-background:new 0 0 20 20;" xml:space="preserve">
<path d="M19,3.2c0,0.5-0.4,0.8-0.8,0.8H8.9C8.4,4.1,8,3.7,8,3.2l0,0c0-0.5,0.4-0.8,0.8-0.8h9.3C18.6,2.4,19,2.8,19,3.2
	L19,3.2z"/>
<path d="M4.2,2.4c0.5,0,0.8,0.4,0.8,1v10.8c0,0.5-0.4,1-0.8,1l0,0c-0.5,0-0.8-0.4-0.8-1V3.4C3.4,2.8,3.8,2.4,4.2,2.4
	L4.2,2.4z"/>
<path d="M16.7,7.6c0,0.5-0.4,0.8-0.8,0.8h-7C8.4,8.5,8,8.1,8,7.6l0,0c0-0.5,0.4-0.8,0.8-0.8h7
	C16.4,6.8,16.7,7.2,16.7,7.6L16.7,7.6z"/>
<path d="M16.7,12c0,0.5-0.4,0.8-0.8,0.8h-7C8.4,12.8,8,12.5,8,12l0,0c0-0.5,0.4-0.8,0.8-0.8h7
	C16.4,11.1,16.7,11.5,16.7,12L16.7,12z"/>
<path d="M16.7,16.4c0,0.5-0.4,0.8-0.8,0.8h-7c-0.5,0-0.8-0.4-0.8-0.8l0,0c0-0.5,0.4-0.8,0.8-0.8h7
	C16.4,15.5,16.7,15.9,16.7,16.4L16.7,16.4z"/>
<path d="M3.9,17.1l-2.5-3.8c-0.1-0.2-0.1-0.5,0.3-0.5h4.9c0.4,0,0.5,0.3,0.3,0.5l-2.5,3.8C4.3,17.5,4.1,17.4,3.9,17.1z"
	/>
</svg>
