<?xml version="1.0" encoding="UTF-8"?>
<svg width="40px" height="15px" viewBox="0 0 40 15" version="1.1" xmlns="http://www.w3.org/2000/svg" xmlns:xlink="http://www.w3.org/1999/xlink">
    <path d="M6,-2.66453526e-15 L38,-2.66453526e-15 L38,-2.66453526e-15 C38.5522847,-2.76598832e-15 39,0.44771525 39,1 L39,14 L39,14 C39,14.5522847 38.5522847,15 38,15 L5.91986984,15 L5.91986984,15 C5.33602007,15 4.78132104,14.7448745 4.40135664,14.3015827 L0.0440927229,9.21810818 L0.0440927229,9.21810818 C-0.565957351,8.50638309 -0.59983245,7.46644327 -0.0373940724,6.71652543 L4.4,0.8 L4.4,0.8 C4.77770876,0.296388315 5.37048539,-2.99298451e-15 6,-3.10862447e-15 Z" id="Rectangle-18" fill="#FF213D"></path>
    <text id="NEW" font-family="Arial-BoldMT, Arial" font-size="12" font-weight="bold" line-spacing="12" fill="#FFFFFF">
        <tspan x="7" y="12">NEW</tspan>
    </text>
</svg>