<?xml version="1.0" encoding="utf-8"?>
<!-- Generator: Adobe Illustrator 22.0.0, SVG Export Plug-In . SVG Version: 6.00 Build 0)  -->
<svg version="1.1" id="图层_1" xmlns="http://www.w3.org/2000/svg" xmlns:xlink="http://www.w3.org/1999/xlink" x="0px" y="0px"
	 viewBox="0 0 20 20" style="enable-background:new 0 0 20 20;" xml:space="preserve">
<style type="text/css">
	.st0{fill:#040000;}
	.st1{fill-rule:evenodd;clip-rule:evenodd;fill:#040000;}
</style>
<g>
	<path class="st0" d="M10,2.7C6,2.7,2.7,6,2.7,10c0,4,3.3,7.3,7.3,7.3c4,0,7.3-3.3,7.3-7.3C17.3,6,14.1,2.7,10,2.7z M10,15.5
		c-3.1,0-5.5-2.5-5.5-5.5C4.5,6.9,7,4.5,10,4.5c3,0,5.5,2.5,5.5,5.5C15.5,13.1,13.1,15.5,10,15.5z"/>
	<path class="st0" d="M10.9,3.5c0,0.5-0.4,0.8-0.8,0.8l0,0c-0.5,0-0.8-0.4-0.8-0.8V1.9c0-0.5,0.4-0.8,0.8-0.8l0,0
		c0.5,0,0.8,0.4,0.8,0.8V3.5z"/>
	<path class="st0" d="M10.9,18.1c0,0.5-0.4,0.8-0.8,0.8l0,0c-0.5,0-0.8-0.4-0.8-0.8v-1.6c0-0.5,0.4-0.8,0.8-0.8l0,0
		c0.5,0,0.8,0.4,0.8,0.8V18.1z"/>
	<path class="st0" d="M16.5,11.4c-0.5,0-0.8-0.4-0.8-0.8l0,0c0-0.5,0.4-0.8,0.8-0.8h1.6c0.5,0,0.8,0.4,0.8,0.8l0,0
		c0,0.5-0.4,0.8-0.8,0.8L16.5,11.4z"/>
	<path class="st0" d="M1.9,11.4c-0.5,0-0.8-0.4-0.8-0.8l0,0c0-0.5,0.4-0.8,0.8-0.8h1.6c0.5,0,0.8,0.4,0.8,0.8l0,0
		c0,0.5-0.4,0.8-0.8,0.8L1.9,11.4z"/>
</g>
<path class="st1" d="M7.9,10c0,1.2,0.9,2.1,2.1,2.1c1.2,0,2.1-0.9,2.1-2.1c0-1.2-0.9-2.1-2.1-2.1C8.8,7.9,7.9,8.8,7.9,10z"/>
</svg>
