<?xml version="1.0" encoding="utf-8"?>
<!-- Generator: Adobe Illustrator 16.0.0, SVG Export Plug-In . SVG Version: 6.00 Build 0)  -->
<!DOCTYPE svg PUBLIC "-//W3C//DTD SVG 1.1//EN" "http://www.w3.org/Graphics/SVG/1.1/DTD/svg11.dtd">
<svg version="1.1" id="图层_1" xmlns="http://www.w3.org/2000/svg" xmlns:xlink="http://www.w3.org/1999/xlink" x="0px" y="0px"
	 width="20px" height="20px" viewBox="0 0 20 20" enable-background="new 0 0 20 20" xml:space="preserve">
<path fill="#040000" d="M18.105,5.973c0,0.688-0.559,1.245-1.247,1.245H3.14c-0.688,0-1.246-0.557-1.246-1.245l0,0
	c0-0.688,0.558-1.247,1.246-1.247h13.719C17.547,4.726,18.105,5.285,18.105,5.973L18.105,5.973z"/>
<path fill="#040000" d="M9.577,16.562l-3.56-5.476c-0.194-0.296-0.104-0.698,0.475-0.698h7.012c0.633,0,0.65,0.373,0.476,0.698
	l-3.56,5.476C10.095,17.036,9.838,16.927,9.577,16.562z"/>
</svg>
