<?xml version="1.0" standalone="no"?><!DOCTYPE svg PUBLIC "-//W3C//DTD SVG 1.1//EN" "http://www.w3.org/Graphics/SVG/1.1/DTD/svg11.dtd"><svg t="1523413844749" class="icon" style="" viewBox="0 0 1024 1024" version="1.1" xmlns="http://www.w3.org/2000/svg" p-id="1491" xmlns:xlink="http://www.w3.org/1999/xlink" width="200" height="200"><defs><style type="text/css"></style></defs><path d="M683.2128 444.5696c1.4848-11.4688 2.56-23.1424 2.56-34.9696 0-11.8272-1.0752-23.4496-2.56-34.9696l77.8752-59.2896a17.5616 17.5616 0 0 0 4.4544-22.9376l-73.728-124.16a18.432 18.432 0 0 0-22.4256-7.7312l-91.7504 36.0448a281.4976 281.4976 0 0 0-62.208-35.328l-13.824-94.976A18.7904 18.7904 0 0 0 483.1744 51.2H335.872a18.432 18.432 0 0 0-18.2272 15.0528l-13.824 94.976a274.432 274.432 0 0 0-62.208 35.328l-91.7504-36.0448a18.688 18.688 0 0 0-22.4768 7.68L53.6576 292.4544c-4.608 7.68-2.56 17.408 4.4544 22.9376l77.7216 59.2896c-1.536 11.4688-2.56 23.1424-2.56 34.9696 0 11.8272 1.024 23.4496 2.56 34.9696L58.112 503.808a17.5616 17.5616 0 0 0-4.4544 22.9376l73.728 124.16a18.432 18.432 0 0 0 22.4256 7.7312l91.7504-36.0448c18.944 14.1824 39.7824 26.1632 62.208 35.328l13.824 94.976A18.432 18.432 0 0 0 335.872 768h147.3536a18.432 18.432 0 0 0 18.2272-15.0528l13.824-94.976a274.432 274.432 0 0 0 62.2592-35.328l91.6992 36.0448c8.2944 3.072 17.92 0 22.528-7.68l73.6256-124.2112c4.608-7.68 2.56-17.408-4.4032-22.9376l-77.7216-59.2896zM409.4976 535.04C338.2272 535.04 280.576 478.9248 280.576 409.6s57.6512-125.44 128.9216-125.44S538.4192 340.2752 538.4192 409.6s-57.6512 125.44-128.9216 125.44z" p-id="1492"></path><path d="M930.4064 811.0592c0.7168-5.7344 1.28-11.5712 1.28-17.4592 0-5.888-0.512-11.776-1.28-17.4592l38.912-29.696a8.7552 8.7552 0 0 0 2.2528-11.4176l-36.864-62.1056c-2.304-3.84-7.0656-5.4784-11.2128-3.84l-45.8752 17.9712a140.7488 140.7488 0 0 0-31.1296-17.664l-6.912-47.4624a9.4208 9.4208 0 0 0-9.216-7.5264H756.736a9.216 9.216 0 0 0-9.1136 7.5264l-6.912 47.4624a137.216 137.216 0 0 0-31.1296 17.664l-45.8752-17.9712a9.3184 9.3184 0 0 0-11.264 3.84l-36.8128 62.1056a8.8064 8.8064 0 0 0 2.2016 11.4688l38.912 29.6448a136.9088 136.9088 0 0 0-1.3312 17.4592c0 5.888 0.512 11.776 1.28 17.4592l-38.8608 29.696a8.7552 8.7552 0 0 0-2.2016 11.4176l36.864 62.1056c2.304 3.84 7.0656 5.4784 11.2128 3.84l45.8752-17.9712c9.472 7.0656 19.8656 13.056 31.1296 17.664l6.912 47.4624a9.216 9.216 0 0 0 9.1136 7.5264h73.6768a9.216 9.216 0 0 0 9.1136-7.5264l6.912-47.4624c11.2128-4.608 21.6064-10.496 31.0784-17.664l45.8752 17.9712c4.1472 1.536 8.96 0 11.264-3.84l36.864-62.1056a8.8064 8.8064 0 0 0-2.2528-11.4688l-38.912-29.6448z m-136.8576 45.2608c-35.6352 0-64.4608-28.0576-64.4608-62.72s28.8256-62.72 64.512-62.72c35.584 0 64.4096 28.0576 64.4096 62.72s-28.8256 62.72-64.4608 62.72z" p-id="1493"></path></svg>