<?xml version="1.0" standalone="no"?><!DOCTYPE svg PUBLIC "-//W3C//DTD SVG 1.1//EN" "http://www.w3.org/Graphics/SVG/1.1/DTD/svg11.dtd"><svg t="1528697141502" class="icon" style="" viewBox="0 0 1024 1024" version="1.1" xmlns="http://www.w3.org/2000/svg" p-id="2470" xmlns:xlink="http://www.w3.org/1999/xlink" width="32" height="32"><defs><style type="text/css"></style></defs><path d="M1018.62261 713.575614a34.870835 34.870835 0 0 0-23.436842-24.858981l-8.475945-1.877222a82.484031 82.484031 0 0 1-56.316684-97.672471l2.275422-7.508891a34.245094 34.245094 0 0 0-9.329229-32.879841s-7.508891-6.541837-29.58048-19.227313c-22.071589-12.685475-31.002619-15.927951-31.002619-15.927951a34.700179 34.700179 0 0 0-33.334926 7.963976l-5.631668 6.086753a80.265495 80.265495 0 0 1-56.316684 22.526673c-22.071589 0-41.810871-8.475945-56.316683-22.526673l-5.688554-6.143639c-7.508891-8.41906-22.526673-11.718421-33.334926-7.963975 0 0-9.386114 3.299361-31.457703 15.927951-21.616505 12.742361-29.58048 19.341083-29.58048 19.341083a33.562468 33.562468 0 0 0-9.386114 32.822956l2.332307 7.963975a80.20861 80.20861 0 0 1-8.874144 60.128015c-10.808252 18.772228-28.215227 31.855902-47.897624 37.544456l-7.963975 1.877223a33.27804 33.27804 0 0 0-23.493728 24.85898s-1.877223 9.898084-1.877223 35.269034c0 25.314065 1.877223 35.155263 1.877223 35.155263a34.074438 34.074438 0 0 0 23.436842 24.915866l7.508891 1.877223a82.256489 82.256489 0 0 1 56.885539 97.672471l-2.389192 7.508891a34.245094 34.245094 0 0 0 9.386114 32.822956s7.508891 6.598723 29.58048 19.284198c21.616505 12.685475 31.002619 15.927951 31.002619 15.92795a34.700179 34.700179 0 0 0 33.334925-7.963975l5.631669-6.086753c15.017782-14.107614 34.700179-22.526673 56.316683-22.526673s41.810871 8.41906 56.316684 22.526673l5.688554 6.086753c7.508891 8.475945 22.526673 11.718421 33.334926 7.963975 0 0 9.386114-3.242476 31.457703-15.92795 21.616505-12.685475 29.58048-19.284198 29.58048-19.284198a33.903781 33.903781 0 0 0 9.386114-32.822956l-2.389193-7.963976a80.20861 80.20861 0 0 1 8.93103-60.128014c10.808252-18.772228 28.670312-31.912787 47.897624-37.544456l7.508891-1.877223c10.808252-2.389193 21.616505-13.652529 23.493727-24.915866 0 0 1.877223-9.841198 1.877223-35.212149 0.455084-25.37095-0.967054-35.212149-0.967054-35.212148z m-251.149655 136.18398a100.687404 100.687404 0 1 1 0-201.374808c55.406515-0.056886 100.914946 44.996461 100.914947 100.858061 0 54.951431-45.053347 100.516747-100.914947 100.516747z" p-id="2471"></path><path d="M1009.350267 390.181325l-110.528602 27.020631A398.198773 398.198773 0 1 0 512 910.228922v113.771078a511.969851 511.969851 0 1 1 497.350267-633.818675z" p-id="2472"></path><path d="M568.885539 512.030149v56.885539H227.572305a56.885539 56.885539 0 1 1 0-113.771078h227.542156V284.487993a56.885539 56.885539 0 1 1 113.771078 0v227.542156z" p-id="2473"></path></svg>