<?xml version="1.0" standalone="no"?><!DOCTYPE svg PUBLIC "-//W3C//DTD SVG 1.1//EN" "http://www.w3.org/Graphics/SVG/1.1/DTD/svg11.dtd"><svg t="1531470069783" class="icon" style="" viewBox="0 0 1024 1024" version="1.1" xmlns="http://www.w3.org/2000/svg" p-id="6473" xmlns:xlink="http://www.w3.org/1999/xlink" width="200" height="200"><defs><style type="text/css"></style></defs><path d="M851.2 74.6496H172.8512a102.4 102.4 0 0 0-102.4 102.4v678.4a102.4 102.4 0 0 0 102.4 102.4h678.3488a102.4 102.4 0 0 0 102.4-102.4V177.0496a102.4 102.4 0 0 0-102.4-102.4z m-166.5536 813.9264l-113.5616-170.496h71.0144v-121.9584L512 489.6768l-130.0992 106.496v121.9584h71.0144l-113.5104 170.4448-113.8176-170.4448h71.1168v-142.1824c0-12.8 5.7856-24.7808 15.5136-32.9216l132.5056-108.3904L345.088 353.0752a43.008 43.008 0 0 1-15.5648-32.9216V178.0736a42.6496 42.6496 0 0 1 85.1968 0v121.856L512 379.5456l97.28-79.616v-121.856a42.7008 42.7008 0 1 1 85.3504 0v142.08c0 12.8-5.9392 24.8832-15.8208 32.9728l-99.5328 81.5104 132.5056 108.3904a42.5472 42.5472 0 0 1 15.5136 32.9216v142.1824h71.168l-113.8176 170.4448z" p-id="6474"></path></svg>