<?xml version="1.0" encoding="utf-8"?>
<!-- Generator: Adobe Illustrator 22.0.0, SVG Export Plug-In . SVG Version: 6.00 Build 0)  -->
<svg version="1.1" id="图层_1" xmlns="http://www.w3.org/2000/svg" xmlns:xlink="http://www.w3.org/1999/xlink" x="0px" y="0px"
	 viewBox="0 0 20 20" style="enable-background:new 0 0 20 20;" xml:space="preserve">
<path d="M4.1,3.6c-3.6,3.3-3.8,8.9-0.5,12.5c3.3,3.6,8.9,3.8,12.5,0.5c3.6-3.3,3.8-8.9,0.5-12.5C13.3,0.5,7.7,0.3,4.1,3.6z M14.6,15
	c-2.7,2.5-6.9,2.3-9.4-0.4c-2.5-2.7-2.3-6.9,0.4-9.4c2.7-2.5,6.9-2.3,9.4,0.4C17.5,8.3,17.3,12.5,14.6,15z"/>
<g>
	<path d="M11.7,7.9C11.7,7.3,11.1,7,10,7C9,7,8.5,7.3,8.5,7.8c0,0.3,0.2,0.6,0.5,0.7c0.3,0.2,1,0.3,2.1,0.5c1,0.2,1.8,0.5,2.3,1
		c0.5,0.5,0.7,1.1,0.7,1.8c0,0.9-0.4,1.5-1.2,2c-0.8,0.5-1.7,0.7-2.7,0.7c-2.4,0-3.8-0.9-4.1-2.8l2-0.2c0.1,1,0.9,1.5,2.1,1.5
		c1.2,0,1.8-0.4,1.8-1.2c0-0.4-0.1-0.6-0.4-0.8c-0.3-0.2-1-0.4-2-0.6c-1.1-0.2-1.8-0.5-2.3-1C6.7,9.2,6.5,8.6,6.5,8
		c0-0.7,0.3-1.3,0.9-1.7C8,5.8,8.9,5.5,10.1,5.5c2.3,0,3.5,0.8,3.6,2.3L11.7,7.9z"/>
</g>
</svg>
