<?xml version="1.0" encoding="utf-8"?>
<!-- Generator: Adobe Illustrator 22.0.0, SVG Export Plug-In . SVG Version: 6.00 Build 0)  -->
<svg version="1.1" id="图层_1" xmlns="http://www.w3.org/2000/svg" xmlns:xlink="http://www.w3.org/1999/xlink" x="0px" y="0px"
	 viewBox="0 0 20 20" style="enable-background:new 0 0 20 20;" xml:space="preserve">
<!-- <style type="text/css">
	.st0{stroke: #fff}
</style> -->
<path d="M17.3,5c0,0.6-0.5,1.1-1.1,1.1H3.9C3.3,6.1,2.7,5.6,2.7,5V4.8c0-0.6,0.5-1.1,1.1-1.1h12.2
	c0.6,0,1.1,0.5,1.1,1.1V5z"/>
<path d="M9.9,1.8c-0.6,0-1.1,0.5-1.1,1.1V4c0,0.6,0.5,1.1,1.1,1.1h0.1c0.6,0,1.1-0.5,1.1-1.1V2.9c0-0.6-0.5-1.1-1.1-1.1
	H9.9z"/>
<path d="M14.5,7.9h-9c-0.6,0-1.1,0.5-1.1,1.1v8c0,0.6,0.5,1.1,1.1,1.1h9c0.6,0,1.1-0.5,1.1-1.1v-8
	C15.6,8.4,15.1,7.9,14.5,7.9z M7.4,16.2c0,0.4-0.4,0.8-0.8,0.8c-0.4,0-0.8-0.4-0.8-0.8V10c0-0.4,0.4-0.8,0.8-0.8
	c0.4,0,0.8,0.4,0.8,0.8V16.2z M10.8,16.2c0,0.4-0.4,0.8-0.8,0.8c-0.4,0-0.8-0.4-0.8-0.8V10c0-0.4,0.4-0.8,0.8-0.8
	c0.4,0,0.8,0.4,0.8,0.8V16.2z M14.1,16.2c0,0.4-0.4,0.8-0.8,0.8s-0.8-0.4-0.8-0.8V10c0-0.4,0.4-0.8,0.8-0.8s0.8,0.4,0.8,0.8V16.2z"
	/>
</svg>
