<?xml version="1.0" standalone="no"?><!DOCTYPE svg PUBLIC "-//W3C//DTD SVG 1.1//EN" "http://www.w3.org/Graphics/SVG/1.1/DTD/svg11.dtd"><svg t="1532316581114" class="icon" style="" viewBox="0 0 1024 1024" version="1.1" xmlns="http://www.w3.org/2000/svg" p-id="3082" xmlns:xlink="http://www.w3.org/1999/xlink" width="32" height="32"><defs><style type="text/css"></style></defs><path d="M213.333333 1024h-85.333333c-25.6 0-42.666667-30.122667-42.666667-60.245333V60.245333C85.333333 30.122667 102.4 0 128 0h85.333333c25.6 0 42.666667 30.122667 42.666667 60.245333v903.509334c0 36.181333-21.333333 60.245333-42.666667 60.245333zM540.416 1024h-56.832C443.733333 1024 426.666667 992.682667 426.666667 948.138667V417.28C426.666667 366.421333 443.733333 341.333333 483.584 341.333333h56.832C580.266667 341.333333 597.333333 366.421333 597.333333 417.194667v530.944c0 50.773333-21.333333 75.861333-56.917333 75.861333zM881.749333 1024h-56.832C789.333333 1024 768 973.824 768 896v-256c0-87.893333 21.333333-128 56.917333-128h56.832C917.333333 512 938.666667 552.106667 938.666667 640v256c0 87.893333-21.333333 128-56.917334 128z" p-id="3083"></path></svg>