<svg xmlns="http://www.w3.org/2000/svg" viewBox="0 0 24 30"><defs><style>.cls-1{fill:#3d4a5c;}.cls-2{fill:#fff;}</style></defs><title>资源 3</title><g id="图层_2" data-name="图层 2"><g id="图层_1-2" data-name="图层 1"><path class="cls-1" d="M0,.94V29.06A1,1,0,0,0,1,30H23a1,1,0,0,0,1-.94V1a1,1,0,0,0-1-1H1A1,1,0,0,0,0,.94Z"/><rect class="cls-2" x="12" y="3" width="2" height="1"/><rect class="cls-2" x="10" width="2" height="1"/><rect class="cls-2" x="12" y="1" width="2" height="1"/><rect class="cls-2" x="10" y="2" width="2" height="1"/><rect class="cls-2" x="10" y="4" width="2" height="1"/><rect class="cls-2" x="12" y="5" width="2" height="1"/><path class="cls-2" d="M10,6V9h2V6Zm1.5,2h-1V7h1Z"/></g></g></svg>